<svg width="500" height="277" viewBox="0 0 500 277" fill="none" xmlns="http://www.w3.org/2000/svg">
<g clip-path="url(#clip0_427_2575)">
<path d="M44.2861 14.8133C43.0144 14.8133 42.1628 15.6619 42.1628 16.9361V154.814V169.663C42.1628 170.938 43.0144 171.786 44.2861 171.786H61.2595C62.1096 171.786 62.9569 170.938 63.3827 169.663C63.3827 169.663 63.3813 163.299 63.3813 154.814V114.936L111.334 169.663C112.182 170.724 113.456 171.786 115.577 171.786H135.52C136.795 171.786 137.643 170.938 137.643 169.663C137.643 167.542 86.7203 112.39 86.7203 112.39C86.7203 112.39 137.643 69.9651 137.643 67.8438C137.643 66.7831 137.008 65.7224 135.52 65.7224H113.456C112.395 65.7224 110.697 66.5724 109.212 67.8438L63.3813 110.481V14.8133C63.3813 13.5391 62.5326 12.692 61.2595 12.692L44.2861 14.8133Z" fill="#3169F4"/>
<path d="M132.839 118.754C132.839 149.299 142.387 173.905 188.004 173.905C209.223 173.905 221.952 169.663 221.952 169.663C223.226 169.45 223.864 168.603 224.076 167.541C224.076 167.541 226.196 155.451 226.196 154.813C226.196 153.542 225.349 152.693 224.076 152.693C223.226 152.693 207.101 156.935 188.004 156.935C163.604 156.935 155.541 145.057 154.27 127.237H230.441C231.714 127.237 232.562 126.178 232.562 125.116V118.754C232.562 80.571 215.587 63.6003 185.884 63.6003C142.387 63.6003 132.839 88.2078 132.839 118.754ZM185.884 80.571C204.98 80.571 211.346 93.934 211.346 110.27H154.27C155.541 92.6626 161.482 80.571 185.884 80.571Z" fill="#3169F4"/>
<path d="M263.753 80.5717L263.754 67.7476C263.329 66.4762 262.481 65.6277 261.633 65.6277H244.658C243.386 65.6277 242.536 66.4762 242.536 67.7476V82.6931V169.663C242.536 170.938 243.386 171.786 244.658 171.786H261.633C262.904 171.786 263.753 170.938 263.753 169.663V110.907C263.753 90.7527 274.787 80.5717 295.581 80.5717C316.798 80.5717 316.798 96.6924 316.798 118.754V169.663C316.798 170.938 317.647 171.786 318.92 171.786H335.893C337.166 171.786 338.015 170.938 338.015 169.663V118.754C338.015 88.2085 338.015 63.6011 295.581 63.6011C272.24 63.6011 263.753 80.5717 263.753 80.5717Z" fill="#3169F4"/>
<path d="M368.356 65.7308C366.768 66.5299 351.384 81.9944 351.384 81.9944C349.989 83.3958 349.26 84.2571 349.26 85.5299V176.036C349.26 193.005 346.291 201.49 336.529 201.49C330.164 201.49 326.982 199.369 325.923 199.369C325.071 199.369 324.012 200.219 323.8 201.067C323.8 201.067 321.678 212.735 321.678 213.795C321.678 214.855 322.526 215.917 323.8 216.341C323.8 216.341 328.043 218.461 336.529 218.461C361.991 218.461 370.479 199.369 370.479 176.036V67.8522C370.479 66.759 369.586 65.6361 368.755 65.6375C368.619 65.6375 368.484 65.6672 368.356 65.7308Z" fill="#3169F4"/>
<path d="M391.838 72.0857C390.777 72.5099 389.927 73.3585 389.716 74.207C389.716 74.207 387.595 86.5093 387.595 86.9335C387.595 88.2078 388.443 89.0549 389.716 89.0549C390.139 89.0549 413.692 80.571 427.908 80.571C444.882 80.571 453.369 86.9336 453.369 97.5416V110.27C453.369 110.27 434.06 108.147 425.787 108.147C398.204 108.147 381.229 118.753 381.229 139.965C381.229 167.541 406.69 173.905 419.421 173.905C447.004 173.905 453.369 159.057 453.369 159.057L455.491 169.663C455.915 170.937 456.764 171.785 457.613 171.785H474.586C475.859 171.785 476.708 170.937 476.708 169.663C476.708 168.815 474.586 163.299 474.586 154.813V97.5416C474.586 76.3283 455.491 63.6003 427.908 63.6003C410.086 63.6003 391.838 72.0857 391.838 72.0857ZM402.448 139.965C402.448 129.36 413.055 125.116 425.787 125.116H453.369V131.269C453.369 155.027 435.97 156.935 419.421 156.935C413.055 156.935 402.448 154.813 402.448 139.965Z" fill="#3169F4"/>
<path d="M349.492 2.07158V66.6703C349.492 68.8737 350.77 69.4026 352.328 67.8427L382.975 37.2065C384.534 35.6466 384.534 33.0953 382.975 31.534L352.328 0.896333C351.723 0.291047 351.16 0.00113771 350.699 0.00113771C349.97 0.00113771 349.492 0.722418 349.492 2.07158Z" fill="#11B911"/>
<path d="M64.6834 234.84H41.9679L37.7835 246.422H30.6101L49.4401 194.639H57.2859L76.0412 246.422H68.8679L64.6834 234.84ZM62.7407 229.31L53.3257 203.008L43.9107 229.31H62.7407ZM91.0475 194.341V246.422H84.2478V194.341H91.0475ZM138.772 194.341C144.451 194.341 149.358 195.412 153.493 197.554C157.677 199.646 160.865 202.66 163.057 206.595C165.299 210.53 166.419 215.163 166.419 220.493C166.419 225.823 165.299 230.456 163.057 234.392C160.865 238.277 157.677 241.266 153.493 243.358C149.358 245.401 144.451 246.422 138.772 246.422H122.558V194.341H138.772ZM138.772 240.818C145.497 240.818 150.628 239.049 154.165 235.512C157.702 231.926 159.47 226.919 159.47 220.493C159.47 214.017 157.677 208.961 154.09 205.325C150.553 201.688 145.447 199.87 138.772 199.87H129.357V240.818H138.772ZM199.001 246.945C194.169 246.945 189.76 245.824 185.775 243.582C181.79 241.291 178.626 238.128 176.285 234.093C173.994 230.008 172.848 225.425 172.848 220.344C172.848 215.263 173.994 210.705 176.285 206.67C178.626 202.585 181.79 199.422 185.775 197.18C189.76 194.888 194.169 193.743 199.001 193.743C203.883 193.743 208.316 194.888 212.301 197.18C216.286 199.422 219.425 202.56 221.716 206.595C224.008 210.63 225.153 215.213 225.153 220.344C225.153 225.475 224.008 230.058 221.716 234.093C219.425 238.128 216.286 241.291 212.301 243.582C208.316 245.824 203.883 246.945 199.001 246.945ZM199.001 241.042C202.637 241.042 205.9 240.195 208.789 238.501C211.728 236.808 214.02 234.392 215.664 231.253C217.357 228.115 218.204 224.478 218.204 220.344C218.204 216.159 217.357 212.523 215.664 209.434C214.02 206.296 211.753 203.88 208.864 202.186C205.975 200.493 202.687 199.646 199.001 199.646C195.314 199.646 192.027 200.493 189.137 202.186C186.248 203.88 183.957 206.296 182.263 209.434C180.619 212.523 179.797 216.159 179.797 220.344C179.797 224.478 180.619 228.115 182.263 231.253C183.957 234.392 186.248 236.808 189.137 238.501C192.076 240.195 195.364 241.042 199.001 241.042ZM273.583 209.434C272.139 206.396 270.046 204.054 267.307 202.411C264.567 200.717 261.379 199.87 257.742 199.87C254.106 199.87 250.818 200.717 247.879 202.411C244.99 204.054 242.698 206.445 241.004 209.584C239.361 212.672 238.539 216.259 238.539 220.344C238.539 224.429 239.361 228.015 241.004 231.104C242.698 234.192 244.99 236.583 247.879 238.277C250.818 239.921 254.106 240.743 257.742 240.743C262.823 240.743 267.008 239.224 270.296 236.185C273.583 233.146 275.501 229.037 276.049 223.856H255.276V218.326H283.297V223.557C282.899 227.841 281.554 231.776 279.262 235.363C276.971 238.9 273.957 241.714 270.221 243.807C266.485 245.849 262.325 246.87 257.742 246.87C252.91 246.87 248.502 245.749 244.516 243.508C240.531 241.216 237.368 238.053 235.027 234.018C232.735 229.983 231.589 225.425 231.589 220.344C231.589 215.263 232.735 210.705 235.027 206.67C237.368 202.585 240.531 199.422 244.516 197.18C248.502 194.888 252.91 193.743 257.742 193.743C263.272 193.743 268.154 195.113 272.388 197.852C276.672 200.592 279.785 204.453 281.728 209.434H273.583Z" fill="#3169F4"/>
</g>
<defs>
<clipPath id="clip0_427_2575">
<rect width="500" height="276.699" fill="white"/>
</clipPath>
</defs>
</svg>
