<svg width="250" height="250" viewBox="0 0 250 250" fill="none" xmlns="http://www.w3.org/2000/svg">
<path fill-rule="evenodd" clip-rule="evenodd" d="M71.825 58.2255V59.113C71.825 59.3617 71.9237 59.6001 72.0996 59.776C72.2754 59.9518 72.5138 60.0505 72.7625 60.0505C73.0111 60.0505 73.2496 59.9518 73.4254 59.776C73.6012 59.6001 73.7 59.3617 73.7 59.113V58.1755C73.6872 57.929 73.5801 57.6969 73.401 57.527C73.2218 57.3572 72.9843 57.2627 72.7375 57.263C72.6138 57.2646 72.4918 57.291 72.3785 57.3405C72.2652 57.3901 72.163 57.4618 72.0779 57.5516C71.9929 57.6413 71.9266 57.7472 71.8832 57.8629C71.8398 57.9787 71.82 58.102 71.825 58.2255ZM71.4625 55.613C72.8375 55.288 73.9625 54.363 71.9625 54.488C71.4671 54.5571 70.978 54.6658 70.5 54.813C68.625 55.588 70.25 55.9005 71.4625 55.613ZM186.15 64.313C185.574 65.5216 184.61 66.5028 183.412 67.1005C183.366 67.1171 183.327 67.1493 183.301 67.1916C183.276 67.234 183.266 67.2838 183.274 67.3326C183.281 67.3813 183.305 67.426 183.342 67.4589C183.379 67.4919 183.426 67.511 183.475 67.513C183.88 67.5843 184.295 67.5547 184.686 67.427C185.076 67.2993 185.429 67.0773 185.713 66.7807C185.998 66.4841 186.204 66.122 186.316 65.7265C186.427 65.331 186.438 64.9142 186.35 64.513C186.35 64.46 186.329 64.4091 186.291 64.3716C186.254 64.3341 186.203 64.313 186.15 64.313ZM181.175 54.4005C180.935 54.339 180.68 54.3739 180.465 54.4977C180.25 54.6215 180.092 54.8244 180.025 55.063C179.912 55.4699 179.89 55.8969 179.962 56.313C179.962 56.5617 180.061 56.8001 180.237 56.976C180.413 57.1518 180.651 57.2505 180.9 57.2505C181.149 57.2505 181.387 57.1518 181.563 56.976C181.739 56.8001 181.837 56.5617 181.837 56.313C181.837 55.413 182.037 54.638 181.175 54.4005ZM138.187 177.213C137.175 176.701 117.812 177.963 117.325 180.138C117.225 180.613 117.537 182.438 118.087 182.738C119.175 183.313 137.8 182.263 138.825 180.238C139.116 179.745 139.213 179.162 139.095 178.602C138.977 178.042 138.653 177.546 138.187 177.213ZM118.325 182.213C117.94 181.607 117.732 180.906 117.725 180.188C117.975 179.063 128.287 178.451 129.425 178.376C129.398 179.386 129.658 180.383 130.175 181.251C128.75 181.476 119 182.576 118.325 182.251V182.213ZM137.912 179.713C136.925 180.413 131.912 181.051 130.712 181.201C130.818 180.211 130.608 179.214 130.112 178.351C131.6 178.251 136.362 177.988 137.775 178.113C138.15 178.388 138.162 179.238 137.912 179.738V179.713ZM105.337 180.176C105.304 180.154 105.265 180.143 105.225 180.143C105.185 180.143 105.146 180.154 105.112 180.176C105.112 180.051 81.2375 193.501 80.5125 194.926C80.4802 194.994 80.4634 195.069 80.4634 195.144C80.4634 195.22 80.4802 195.295 80.5125 195.363C81.275 197.551 106.187 220.076 107.225 220.588C107.525 220.738 107.9 220.476 109.075 219.851C111.575 218.513 132.912 207.113 135.112 205.276C135.725 204.651 136.1 199.026 135.762 198.388C135.425 197.751 105.337 180.301 105.337 180.176ZM107.5 219.551C104.837 217.438 83.75 198.438 81.4125 195.213C83.5875 193.163 104.625 180.976 105.262 180.601C108.487 182.563 131.7 196.688 134.675 198.688C133.103 199.142 131.607 199.829 130.237 200.726C129.525 201.413 131.3 202.688 133.762 205.076C130 207.501 111.337 217.501 107.5 219.551ZM134.475 204.363C134.35 204.238 131.337 201.301 131.2 201.188C132.414 200.43 133.666 199.733 134.95 199.101C134.954 200.867 134.786 202.629 134.45 204.363H134.475Z" fill="black"/>
<path fill-rule="evenodd" clip-rule="evenodd" d="M124.087 202.063C123.212 202.438 112.538 205.975 109.525 207.2C108.64 207.642 107.675 207.901 106.687 207.963C106.512 207.963 107.525 206.013 115.188 200.038C115.987 199.413 117.525 198.225 117.688 197.25C118.425 194.025 109.687 198.85 101.875 201.9C101.067 202.334 100.185 202.614 99.275 202.725C99.1875 202.213 100.95 200.6 101.062 200.475C105.725 195.325 111.637 193.2 111.237 191.3C110.625 188.325 99.775 194.113 97.4875 195.05C95.5625 195.863 92.4875 196.838 92.675 196.838C92.2625 197 92.675 197.288 92.75 197.25C92.825 197.213 96.7875 196 97.75 195.575C99.1875 195.025 108.8 190.388 110.4 191.475C111.037 191.925 104.237 195.588 100.4 199.825C99.725 200.55 97.9 202.025 98.4625 203.225C98.5657 203.411 98.722 203.561 98.9114 203.657C99.1007 203.753 99.3145 203.79 99.525 203.763C101.388 203.763 114.087 197.4 116.7 197.2C116.1 197.992 115.384 198.687 114.575 199.263C112.713 200.738 107.312 205.138 106.062 207.163C105.412 208.213 105.95 208.838 106.8 208.85C107.925 208.85 109.3 208.088 112.688 206.813C124.175 202.388 124.538 202.588 124.35 202.175C124.34 202.151 124.326 202.128 124.307 202.109C124.289 202.09 124.267 202.075 124.242 202.064C124.218 202.054 124.192 202.048 124.165 202.048C124.138 202.048 124.112 202.053 124.087 202.063Z" fill="black"/>
<path fill-rule="evenodd" clip-rule="evenodd" d="M243.75 154.4C243.588 141.325 242.413 114.638 239.825 101.7C238.463 94.8378 235.513 85.4503 230.025 80.9128C227.7 79.0003 224.275 77.1628 218.063 73.7253C218.138 73.5628 208.25 69.5628 207.788 70.8878C207.404 68.608 206.865 66.3569 206.175 64.1503C207.1 63.8503 206.688 61.1503 207.075 59.6253C207.463 58.1003 208.925 57.0128 209.675 55.7628C211.363 52.9753 211.65 48.1128 211.338 44.8753C211.038 41.8628 206.638 35.1378 203.738 34.0378C200.838 32.9378 197.863 32.9753 194.8 32.3628C192.3 31.8503 190.45 30.4628 187.65 30.1128C184.85 29.7628 183.175 31.3628 180.775 31.3628C178.375 31.3628 175.675 29.5003 173.163 29.3503C171.798 29.3291 170.471 29.804 169.43 30.6868C168.388 31.5695 167.703 32.8002 167.5 34.1503C167.197 36.1626 167.435 38.2194 168.191 40.1088C168.947 41.9983 170.193 43.6522 171.8 44.9003C173.757 46.1384 175.956 46.9439 178.25 47.2628C178.1 53.6503 178.775 51.9378 178.025 52.5003C177.275 53.0628 177.513 57.0003 177.775 58.0878C177.888 58.5253 178 58.6878 178.538 58.8628C178.238 60.1128 176.125 62.8128 178.025 63.4753C178.275 63.5628 179.275 63.7378 179.375 63.7753C179.631 64.9607 180.008 66.1167 180.5 67.2253C180.985 68.3398 181.693 69.343 182.581 70.1729C183.469 71.0028 184.518 71.6418 185.663 72.0503C187.463 72.7503 188.888 72.9378 189.938 73.3003C190.082 73.8172 190.158 74.351 190.163 74.8878C185.699 76.0611 181.493 78.0578 177.763 80.7753C171 86.2628 161.388 109.025 158.875 111.525C157.9 112.488 134.938 116.938 131.55 119.238C130.888 119.688 130.863 120.075 130.95 120.875C130.125 121.025 126.65 121.675 126.263 122.413C126.148 122.949 126.178 123.505 126.35 124.025C123.257 123.448 120.136 123.03 117 122.775C116.426 122.789 115.861 122.922 115.342 123.168C114.824 123.413 114.362 123.765 113.988 124.2C112.938 125.45 113.788 125.238 112.675 125.063C110.313 124.725 101.85 127.563 100.788 128.063C100.788 127.613 100.788 127.3 100.313 127.05C98.9174 126.646 97.4598 126.502 96.0125 126.625C95.1375 127.213 98.5126 127.013 99.9126 127.738C99.9126 128.7 100.038 138.575 99.9126 140.513C99.9126 140.863 99.9126 140.813 99.65 140.85C98.4 141.025 96.6 140.85 96.05 141.25C96.25 136.9 96.05 126.25 95.4501 125.625C95.0875 125.25 88.4126 124.45 81.15 123.575C81.1758 118.321 80.8836 113.07 80.2751 107.85C78.9376 96.2503 76.1376 82.5753 67.3876 75.6378C67.8946 75.8448 68.4526 75.8928 68.9875 75.7753C69.7019 75.4918 70.4708 75.3722 71.2376 75.4253C72.4876 75.7628 72.6501 76.6753 75.7751 74.5753C75.9751 74.4378 76.5001 74.4753 76.9126 74.0628C78.3251 72.6503 77.6125 70.7378 77.6125 69.3128C77.8195 68.344 77.8869 67.3506 77.8126 66.3628C77.7742 66.2155 77.7024 66.0791 77.6027 65.9642C77.5029 65.8493 77.378 65.759 77.2376 65.7003C77.2376 65.2878 77.675 64.5503 77.05 63.7503C77.9501 63.2753 78.9251 62.7253 78.4251 61.7503C77.4699 60.2227 76.6821 58.5966 76.0751 56.9003C75.6876 55.4503 76.2126 53.6003 76.1876 52.0378C76.1876 50.9628 76.3001 49.6753 76.1876 48.5003C77.1517 47.8271 77.8884 46.8768 78.3 45.7753C78.3912 45.33 78.3717 44.8692 78.2431 44.4333C78.1145 43.9974 77.8808 43.5997 77.5626 43.2753C77.1501 43.0128 77.0626 43.2753 77.0751 42.5003C77.1203 42.2283 77.108 41.9499 77.0391 41.6829C76.9702 41.416 76.8462 41.1664 76.675 40.9503C76.1501 40.4378 74.9501 39.8753 74.5751 39.3503C73.9376 38.4128 73.5626 37.4753 72.3625 37.1003C71.5126 36.8253 70.7126 37.3628 70.1376 37.1753C69.3501 36.9253 68.5376 36.0753 67.6376 36.9753C67.4366 37.0842 67.2161 37.1525 66.9888 37.1761C66.7614 37.1997 66.5316 37.1782 66.3126 37.1128C65.5625 36.4753 65.375 35.3753 64.1001 35.1378C63.375 35.0128 61.9501 35.3628 61.4001 35.1378C60.499 34.4746 59.5049 33.948 58.4501 33.5753C57.2707 33.463 56.0808 33.5646 54.9376 33.8753C54.1376 34.0378 53.1126 33.9503 52.2751 34.0753C50.5376 34.3503 50.0376 35.8503 48.8876 36.5753C47.7376 37.3003 45.8 37.3128 44.7001 38.9378C43.7751 40.3128 43.9751 41.8003 43.6126 43.1753C43.4626 43.7628 42.6626 44.4253 42.3626 45.0253C41.6626 46.4128 42.2001 47.8128 42.1876 49.0128C42.1751 50.2128 41.3376 51.3128 41.5751 52.7628C41.768 53.487 42.0852 54.1721 42.5126 54.7878C42.5177 54.9904 42.4924 55.1927 42.4376 55.3878C42.0562 56.3715 41.9779 57.4467 42.2126 58.4753C42.4171 59.4614 42.8934 60.3706 43.5876 61.1003C44.4626 61.8628 44.9126 61.6628 45.55 62.7503C45.8182 63.3253 46.2213 63.8271 46.7251 64.2128C47.6501 64.8378 48.7876 64.3003 49.3376 64.5753C49.6797 64.756 50.0529 64.8705 50.4375 64.9128C50.1298 65.0683 49.864 65.2955 49.6626 65.5753C42.8626 66.4378 33.8876 71.4003 28.4126 78.1878C26.2501 80.9753 22.6126 85.0003 21.2501 88.2253C13.9251 104.775 17.5001 130.725 14.5501 138.738L7.25005 157.775C6.90005 158.688 6.00005 163.225 6.32505 164.788C6.85005 167.113 9.28755 164.2 10.7751 162.55C9.85005 165.838 9.86255 166.7 9.37505 179.638C9.22505 183.688 9.08755 188.1 9.02505 191.813C9.02147 191.839 9.02365 191.867 9.03145 191.892C9.03926 191.918 9.0525 191.942 9.07028 191.962C9.08806 191.982 9.10997 191.998 9.13452 192.009C9.15906 192.02 9.18568 192.026 9.21255 192.025C9.56255 192.025 9.33755 192.425 9.85005 182.1C10.2126 174.838 10.6251 168.063 10.6626 167.513C10.8476 165.376 11.3185 163.274 12.0626 161.263C15.5534 158.655 19.4816 156.691 23.6626 155.463C28.3157 154.218 33.2293 154.344 37.8126 155.825C39.0626 156.238 42.4251 157.075 43.6251 156.513C46.1251 155.263 52.5626 151.125 53.6251 148.613C54.1501 147.363 54.5751 146.35 54.9876 145.413C56.9001 145.588 59.2501 146.075 61.3376 146.1C63.6751 146.1 65.1751 145.725 67.7626 143.438C77.2751 143.65 87.7625 143.363 92.7625 143.175C96.1 144.425 106.35 148.088 108.838 150.55C109.813 151.5 110.388 154.15 110.738 157.1C111.198 160.626 111.32 164.189 111.1 167.738C104.25 169.05 95.525 171.125 88.775 172.8C88.397 172.695 88.002 172.665 87.6125 172.713C85.825 172.9 86.6626 173.625 86.0751 171.813C86.1032 171.819 86.1325 171.819 86.1604 171.811C86.1883 171.804 86.214 171.79 86.235 171.77C86.2561 171.75 86.2719 171.725 86.281 171.698C86.2902 171.671 86.2924 171.641 86.2875 171.613C86.2691 169.21 85.9883 166.817 85.4501 164.475C85.3626 164.125 84.7501 163.95 84.3751 163.838C80.3251 162.663 64.6876 161.088 61.2501 161.975C59.0126 162.563 43.5251 170.563 42.8251 172.263C42.125 173.963 40.2251 184.188 39.8751 186.075C31.7751 188.438 25.3876 190.388 22.2626 191.45C22.2367 191.459 22.2127 191.472 22.1923 191.49C22.1718 191.508 22.1552 191.53 22.1435 191.555C22.1318 191.579 22.1252 191.606 22.1242 191.633C22.1232 191.66 22.1277 191.687 22.1376 191.713C22.2875 192.175 26.3876 190.05 68.3876 179.013C68.8096 180.09 69.3504 181.118 70.0001 182.075C68.7501 182.375 67.3376 182.925 66.9251 184.075C66.8517 184.318 66.8396 184.575 66.8897 184.824C66.9399 185.073 67.0508 185.305 67.2126 185.5C68.238 186.649 69.6051 187.437 71.1125 187.75C73.7557 188.413 76.5021 188.557 79.2001 188.175C81.7907 187.949 84.3435 187.403 86.8 186.55C89.4751 185.425 89.3 183.75 88.2751 182.988C87.2188 182.367 86.0582 181.943 84.8501 181.738C85.9875 179.675 84.925 180.588 86.6251 180.175C87.587 179.946 88.4659 179.452 89.1626 178.75C90.2626 177.625 91 174.85 89.95 173.513C95.225 172.263 116.438 167.013 121.625 167.4C131.038 168.088 199.475 196.225 215.675 201.65C215.7 201.658 215.727 201.662 215.754 201.659C215.781 201.657 215.807 201.65 215.83 201.638C215.854 201.626 215.875 201.609 215.893 201.588C215.91 201.568 215.923 201.544 215.931 201.519C215.94 201.494 215.943 201.467 215.94 201.44C215.938 201.413 215.931 201.388 215.919 201.364C215.907 201.34 215.89 201.319 215.869 201.301C215.849 201.284 215.826 201.271 215.8 201.263C211.563 199.788 202.113 196.025 190.8 191.5C191.35 190.175 192.8 185.9 193.925 184.425C194.388 183.825 194.363 183.775 198.488 184.013C209.3 184.638 218.825 184.35 229.2 181.038C235.538 179 238.65 174.3 240.45 168.013C240.813 168.125 241.8 168.45 242.15 168.525C242.25 168.549 242.354 168.55 242.454 168.526C242.554 168.502 242.647 168.455 242.725 168.388C243.963 167.125 243.75 156.863 243.75 154.4ZM72.7751 68.4503C72.4367 68.5735 72.0715 68.6038 71.7176 68.5378C71.3636 68.4718 71.0338 68.3121 70.7626 68.0753C70.4927 67.8593 70.2815 67.579 70.1483 67.2602C70.015 66.9413 69.9641 66.594 70.0001 66.2503C69.9835 66.1989 69.988 66.143 70.0126 66.095C70.0372 66.0469 70.0799 66.0106 70.1313 65.994C70.1827 65.9775 70.2386 65.982 70.2866 66.0066C70.3347 66.0312 70.371 66.0739 70.3876 66.1253C71.0047 67.013 71.8763 67.6928 72.8876 68.0753C72.9197 68.1019 72.9434 68.1374 72.9555 68.1774C72.9676 68.2174 72.9677 68.2601 72.9556 68.3001C72.9436 68.3401 72.9201 68.3757 72.888 68.4024C72.8559 68.4291 72.8166 68.4458 72.7751 68.4503ZM61.0376 57.5003C61.0803 57.1331 61.2278 56.7859 61.4626 56.5003C61.7375 56.2253 62.5751 56.4003 63.1626 56.0003C63.6019 55.653 63.9353 55.1897 64.1251 54.6628C64.8251 53.2753 65.9376 54.3503 67.4876 52.0628C67.8832 51.4195 68.1901 50.7257 68.4001 50.0003C69.2751 49.5878 70.4126 50.1878 71.5126 48.3753C71.8751 47.7628 72.1125 47.1253 72.7626 46.9503C73.2501 47.4753 73.7375 49.4503 75.7126 48.6878C75.7126 49.3628 75.5626 52.7753 75.525 53.0503C75.363 53.8741 75.2752 54.7108 75.2626 55.5503C75.2626 58.0503 76.4126 59.4253 77.6876 62.0378C77.8876 62.4503 76.8376 62.8503 76.3126 63.1378C75.5719 62.865 74.8055 62.6681 74.0251 62.5503C71.6001 61.9628 69.6626 63.2253 67.5751 63.8003C67.2212 63.8025 66.8685 63.7605 66.5251 63.6753C65.7376 63.6003 64.9126 64.4003 63.8001 64.5503C63.51 64.6072 63.2095 64.5757 62.9376 64.4598C62.6657 64.3439 62.4348 64.149 62.2751 63.9003C62.1403 63.4425 62.0441 62.9742 61.9876 62.5003C61.8751 62.0503 61.7376 61.6003 61.6376 61.1628C61.4376 60.2628 62.0251 59.9128 61.3376 58.6628C60.8626 57.8128 60.8751 58.1878 61.0376 57.5003ZM61.5126 83.0003C62.3542 81.403 63.0407 79.7287 63.5625 78.0003C64.2626 82.3503 64.6376 84.5503 64.8125 85.6503C63.9001 84.8878 63.8125 84.6003 61.5126 82.9503V83.0003ZM65.2626 88.0878C65.875 91.8378 65.7376 90.9878 65.8501 91.7628C65.5514 91.2003 65.1863 90.6757 64.7626 90.2003C64.9025 89.3746 64.9652 88.5376 64.9501 87.7003L65.2626 88.0878ZM60.7376 90.3378C59.9911 89.5616 59.3096 88.7255 58.7001 87.8378C59.3181 86.3923 60.015 84.9819 60.7876 83.6128C63.4126 85.6253 63.2126 85.6003 63.8626 86.4128C63.958 87.4773 63.958 88.5483 63.8626 89.6128L60.7376 90.3378ZM60.9001 91.1503C62.3876 94.4628 62.9876 99.9003 63.3001 103.525C61.7396 98.9594 59.6415 94.5954 57.0501 90.5253C57.5569 89.8327 58.0083 89.1013 58.4001 88.3378C58.9149 89.2966 59.5309 90.1976 60.2375 91.0253C60.3278 91.0821 60.4296 91.1182 60.5354 91.1312C60.6413 91.1442 60.7487 91.1336 60.8501 91.1003L60.9001 91.1503ZM53.4751 64.4003C53.5768 64.4319 53.6815 64.4528 53.7876 64.4628C54.0786 64.4497 54.3576 64.3428 54.5829 64.1581C54.8082 63.9733 54.9677 63.7206 55.0376 63.4378C55.2376 63.3128 55.3876 63.1753 55.3751 62.9378C55.3626 62.7003 52.6751 59.0253 56.1001 57.1378C56.4021 57.105 56.7057 57.1834 56.9542 57.3582C57.2026 57.5331 57.3789 57.7924 57.4501 58.0878C57.6118 58.7546 57.9533 59.3642 58.4376 59.8503C58.4754 60.6493 58.5799 61.4437 58.7501 62.2253C58.8501 62.6878 58.5001 63.2878 58.4251 63.9253C58.2501 65.1753 59.4626 66.5503 59.9001 67.6753C60.4875 69.1878 60.0876 70.8128 61.4875 72.1503C62.8876 73.4878 62.6251 72.3878 63.1126 75.3878C62.5294 77.7454 61.7258 80.0431 60.7126 82.2503C59.3001 80.2503 52.1501 68.5753 50.7126 65.9128C51.2501 65.5878 52.9251 64.6378 53.4251 64.3503L53.4751 64.4003ZM49.7251 66.0628C50.6376 68.1878 59.7251 82.5878 59.7251 82.7128C59.2876 84.1003 56.7751 89.8503 55.5876 90.4753C52.9751 88.6128 45.8126 69.0253 45.3001 67.2503C46.7103 66.6462 48.1938 66.2301 49.7126 66.0128L49.7251 66.0628ZM62.625 121.25C61.25 120.813 56.8125 105.75 52.8501 97.4128C50.4751 92.4128 45.8126 84.1503 40.7251 81.9503C35.2251 79.5878 25 85.2503 23.9125 92.6003C23.2485 97.4476 23.6408 102.381 25.0625 107.063C30.9625 124.9 38.9501 139.125 56.0126 143.2C56.4126 142.4 55.0001 143.063 66.2251 143.363C65.6749 143.791 65.0895 144.171 64.4751 144.5C62.3751 145.638 58.3876 144.725 55.4375 144.4L55.8126 143.588C38.2376 139.663 30.0126 124.838 24.125 107.338C22.6381 102.515 22.2117 97.4281 22.875 92.4253C24 84.4753 34.5876 78.7753 40.4501 80.7503C41.9448 81.3072 43.3133 82.1572 44.4751 83.2503C43.9176 78.2414 43.7796 73.1947 44.0626 68.1628C44.2923 67.9588 44.539 67.7748 44.8001 67.6128C45.8751 71.3628 52.0001 89.2878 55.1126 91.2753C55.3099 91.392 55.5411 91.4382 55.7682 91.4064C55.9952 91.3746 56.2048 91.2667 56.3626 91.1003C59.1751 95.9378 61.8001 100.888 62.8501 106.1C63.4441 108.977 63.5958 111.928 63.3001 114.85C61.5251 107.5 56.6126 96.8753 51.0251 91.7878C56.7376 101.65 60.9001 117.425 62.7626 120.538C63.5076 120.743 64.2686 120.885 65.0376 120.963C64.7126 113.463 64.4626 97.8253 61.2876 91.0378C61.6751 91.0378 64.4126 90.4503 64.4126 90.4503C64.9062 91.043 65.326 91.6937 65.6626 92.3878C66.1751 93.3753 66 92.6253 66.7751 97.8753C70.525 122.113 70.3126 121.988 70.8 122.25C68.3501 121.938 64.0376 121.675 62.625 121.25ZM70.9251 116.25C66.0501 88.5753 66.0001 87.8003 63.9501 76.2503C64.1126 75.7003 64.2376 75.2503 64.3251 74.9253C65.1001 75.9128 69.3251 81.3253 69.7876 82.5128C69.1001 83.1253 66.6251 84.1753 67.3751 85.0128C67.7126 85.4003 70.5001 87.8128 71.3751 88.6878C71.8501 90.7003 71.1001 112.75 70.9251 116.25ZM40.3751 185.913C40.7251 184.325 43.0126 174 43.6501 172.55C44.1125 171.475 59.1876 163.475 61.5626 162.875C64.9876 161.975 83.6376 163.825 84.9375 164.663C85.5244 166.843 85.8682 169.082 85.9625 171.338C83.8625 168.838 67.6126 169.5 67.4376 173.025C67.4341 173.141 67.4584 173.256 67.5084 173.36C67.5584 173.465 67.6327 173.555 67.7251 173.625C67.7169 175.136 67.8889 176.643 68.2376 178.113C58.6376 180.7 49.0376 183.4 40.3751 185.913ZM88.0376 183.963C88.675 186.025 81.1876 186.913 79.0251 187.163C76.4573 187.529 73.8431 187.397 71.3251 186.775C70.2251 186.475 68.1876 185.675 67.8001 184.675C67.6126 184.2 68.2251 183.75 68.675 183.513C69.2452 183.215 69.8497 182.988 70.4751 182.838C71.156 183.776 72.0692 184.521 73.1251 185C74.3751 185.55 79.7126 185.163 81.5626 184.763C82.3751 184.588 83.2375 184.35 84.4626 182.388C85.2126 182.5 87.8251 183.275 88.0376 183.963ZM82.0626 183.525C81.1251 184.088 74.5001 184.538 73.4876 184.125C70.1376 182.788 68.3126 177.563 68.1751 173.875C70.8983 174.474 73.6933 174.681 76.4751 174.488C78.5626 174.213 83.5001 173.363 85.3126 172.45C86.4001 176.55 84.1001 182.338 82.0626 183.525ZM89.05 177.075C88.7117 177.745 88.2364 178.335 87.6549 178.809C87.0735 179.283 86.3989 179.629 85.6751 179.825C86.329 178.072 86.6388 176.209 86.5875 174.338C86.6862 174.131 86.8295 173.949 87.007 173.804C87.1845 173.659 87.3919 173.556 87.6142 173.501C87.8365 173.446 88.0682 173.441 88.2927 173.486C88.5172 173.531 88.7289 173.626 88.9125 173.763C89.85 174.375 89.4375 176.013 89.05 177.075ZM217.8 74.0878C226.25 78.7503 230 80.7003 232.7 84.7878C231.002 83.3273 228.84 82.5167 226.6 82.5003C218.588 82.2253 214.65 94.0878 212.6 101.763C209.2 114.563 211.288 130.763 211.1 133.138C208.938 135.15 197.863 140.9 192.913 143.588C193.6 140.688 196.05 129.5 197.65 125.088C199.8 119.163 205.988 105.363 206.4 102.363C206.513 101.475 206.338 101.363 203.713 99.6628C204.725 99.6628 207.463 99.3878 208.313 99.2253C208.675 99.2253 208.863 99.0628 209 98.3003C209.463 95.6503 210.363 73.8128 210.438 71.4878C210.35 71.4378 216.725 73.4753 217.838 74.0878H217.8ZM208.163 71.1003C208.732 71.0593 209.304 71.1228 209.85 71.2878C209.225 80.3503 208.6 96.2878 208.013 98.3253C207.35 98.4503 205 98.6128 204.088 98.6753C202.138 98.7878 202.088 98.6753 201.888 98.9503C201.688 99.2253 201.963 99.6003 202.325 99.8503C202.963 100.3 205.088 101.638 205.388 101.988C205.099 103.476 204.655 104.93 204.063 106.325C197 125.075 197.425 119.313 192.675 139.875C192.992 130.025 193.902 120.203 195.4 110.463C196.4 105.1 197.613 100.063 201.65 88.5878C203.238 84.1503 206.525 75.6503 206.65 75.7003C207.277 74.2064 207.795 72.669 208.2 71.1003H208.163ZM186.45 147.813C186.688 148.738 186.688 148.613 186.613 148.625L186.225 148.55C186.225 148.425 185.55 135.875 185.875 130.688C186.463 121.5 187.213 111.538 187.913 101.938C188.25 97.2878 189.525 87.3003 189.488 87.6753L190.738 86.7503C191.256 87.7852 191.845 88.7833 192.5 89.7378C192.75 90.0753 193.088 90.5003 193.488 90.5378C193.213 92.8003 189.05 120.713 187.825 138.55C187.15 148.263 187.825 146.2 186.838 147.088C186.72 147.167 186.626 147.276 186.565 147.403C186.503 147.53 186.477 147.672 186.488 147.813H186.45ZM193.875 90.5503C194.825 90.5503 195.85 88.5503 197.1 87.7003C197.588 88.2128 199.063 90.6628 200.038 90.9878C195.9 102.338 191.475 118.163 191.488 144.288C190.425 144.863 188.988 145.688 187.925 146.3C188.55 135.663 193.075 100.75 193.913 90.5503H193.875ZM207 73.7503C206.6 75.0003 200.663 89.3378 200.25 90.0003C199.606 89.3683 199.031 88.6684 198.538 87.9128C197.488 86.5003 197.125 86.0378 195.338 88.0503C197.988 83.0503 203.163 77.9753 205.338 75.4503C207.413 73.0753 207.138 73.2753 207 73.7503ZM179 47.5003C179.933 47.7875 180.93 47.7875 181.863 47.5003C182.576 47.1832 183.364 47.0707 184.138 47.1753C185.23 47.6788 186.353 48.113 187.5 48.4753C188.919 48.4628 190.335 48.35 191.738 48.1378C192.38 48.4381 192.925 48.9147 193.308 49.5121C193.69 50.1095 193.896 50.8033 193.9 51.5128C191.57 51.8511 189.322 52.6092 187.263 53.7503C187.136 53.3399 186.885 52.9788 186.545 52.7168C186.205 52.4549 185.792 52.305 185.363 52.2878C183.313 52.0412 181.243 52.016 179.188 52.2128C179.005 50.6155 178.943 49.0069 179 47.4003V47.5003ZM178.513 58.1628C178.2 57.6128 177.588 53.3503 178.213 52.8878C178.313 53.0128 177.875 52.6253 180.25 52.6503C181.924 52.7031 183.594 52.8534 185.25 53.1003C186.375 53.3003 186.563 53.8128 186.5 54.9003C186.5 56.9128 186.563 56.7128 186.5 57.3378C186.5 57.5128 186.425 57.9753 186.288 58.0753C183.716 58.5406 181.082 58.5364 178.513 58.0628V58.1628ZM190 72.2503C186.575 71.2753 183.438 71.1503 181.325 66.8003C179.963 64.0003 180.713 63.1878 179.475 62.8253C179.016 62.7706 178.564 62.6701 178.125 62.5253C178.125 61.6878 179.175 59.9378 179.375 59.0503C181.451 59.2985 183.549 59.2985 185.625 59.0503C186.875 58.8628 187.538 58.6503 187.338 56.1128V54.1753C189.3 53.5753 193.463 52.5878 193.963 52.4503C193.966 53.1303 194.058 53.8069 194.238 54.4628C194.433 54.8752 194.77 55.2035 195.188 55.3878C195.254 55.4175 195.327 55.4313 195.4 55.4283C195.473 55.4253 195.544 55.4055 195.608 55.3704C195.673 55.3354 195.728 55.286 195.77 55.2261C195.812 55.1662 195.839 55.0975 195.85 55.0253C196.138 53.8628 196.363 52.8253 196.45 52.3253C196.45 52.6003 196.563 51.4503 197.388 51.0003C198.638 50.3503 200.575 51.8003 200.713 53.8503C200.788 54.8503 199.788 56.6628 199.038 58.7503C198.588 60.0003 201.313 60.5378 202.263 61.0003C202.613 61.8128 202.4 62.7253 202.875 63.2128C203.588 63.6522 204.37 63.9691 205.188 64.1503C206.05 66.9133 206.677 69.7442 207.063 72.6128C203.888 75.9503 203.175 76.7503 202.325 77.6128C199.004 80.7681 196.188 84.4148 193.975 88.4253C193.088 83.2128 191.4 78.6128 191.213 77.1003C191.063 75.9253 191.313 73.8503 190.763 72.7378C190.679 72.6054 190.568 72.4931 190.436 72.4088C190.304 72.3245 190.155 72.2704 190 72.2503ZM190.363 76.4878C190.963 78.7128 192.563 85.9378 193.025 88.8378C192.263 87.6878 191.325 85.7878 191.325 85.7878C191.293 85.72 191.245 85.6604 191.187 85.6134C191.128 85.5664 191.059 85.5333 190.986 85.5165C190.913 85.4997 190.837 85.4996 190.763 85.5163C190.69 85.533 190.621 85.5659 190.563 85.6128L189.65 86.3128C190 83.0628 190.35 79.7503 190.4 76.4878H190.363ZM190 75.3753C189.888 84.5753 188.05 92.7753 187.3 101.938C184.8 132.738 184.8 131.225 185.05 142.125C183.7 132.275 181.813 113.113 180.775 102.725C181.513 102.163 185.075 99.4503 185.475 98.6253C185.663 98.2253 185.475 97.8128 184.575 97.8128C183.011 97.9308 181.439 97.9308 179.875 97.8128C180.825 93.9378 186.263 79.8003 187.713 76.0503C188.45 75.8378 189.063 75.6253 190 75.3753ZM131.888 120.175C133.825 118.138 158.138 113.388 159.463 112.1C161.325 110.225 166.45 98.5878 171.675 89.7628C176.113 82.2628 178.525 79.4878 187.163 76.3003C185.088 81.4378 181.038 91.4878 179.213 97.3378C179.1 97.7003 178.938 98.1003 179.213 98.3378C179.9 99.0128 182.775 98.6128 184.425 98.6378C183.263 99.8003 180.063 102.163 180.063 102.163C180.001 102.208 179.952 102.269 179.922 102.339C179.891 102.41 179.879 102.487 179.888 102.563C180.413 108.363 183.638 142.975 185.038 148L182.788 147.425C181.333 146.711 179.754 146.287 178.138 146.175C180.988 132 179.963 128.038 180.313 120.313C180.313 119.513 176.938 103.438 176.913 103.313C176.913 103.26 176.891 103.209 176.854 103.171C176.816 103.134 176.766 103.113 176.713 103.113C176.66 103.113 176.609 103.134 176.571 103.171C176.534 103.209 176.513 103.26 176.513 103.313C176.725 108.788 178.275 114 179.338 119.975C175.338 123.725 171.15 128.913 164.338 130.6C160.125 131.663 140.4 135.963 137.775 136.15C135.625 133.75 131.55 121.775 131.888 120.175ZM129.513 121.838C129.513 121.838 131.013 121.475 130.988 121.238C132.155 125.63 133.625 129.936 135.388 134.125C134.251 134.477 133.089 134.74 131.913 134.913C131.2 134.913 131.7 135.538 129.963 131.413C128.892 128.848 127.974 126.223 127.213 123.55C127 122.688 126.638 122.775 129.513 121.838ZM114.875 124.475C115.863 123.388 116.575 123.225 126.45 124.475C127.328 127.456 128.393 130.378 129.638 133.225C127.605 134.809 125.276 135.97 122.788 136.638C122.713 136.1 122.538 136.263 122.963 136.3C123.322 136.31 123.678 136.24 124.006 136.094C124.334 135.948 124.625 135.73 124.858 135.457C125.091 135.183 125.259 134.861 125.351 134.514C125.442 134.166 125.455 133.803 125.388 133.45C125.288 132.2 121.713 129.6 120.7 128.888C121.301 129.011 121.925 128.964 122.5 128.75C122.551 128.734 122.594 128.697 122.619 128.649C122.643 128.601 122.648 128.545 122.631 128.494C122.615 128.443 122.578 128.4 122.53 128.375C122.482 128.351 122.426 128.346 122.375 128.363C120.275 128.913 118.15 126.413 117.875 126.338C116.913 126.1 117.513 128.338 115.375 129.675C115.063 129.875 113.863 129.425 113.788 128.813C113.63 128.055 113.646 127.271 113.835 126.52C114.023 125.768 114.379 125.07 114.875 124.475ZM100.9 128.413C102.5 127.838 110.65 125.313 113 125.913C112.736 126.911 112.676 127.953 112.825 128.975C112.904 129.3 113.053 129.604 113.26 129.866C113.468 130.128 113.729 130.342 114.027 130.494C114.325 130.646 114.652 130.732 114.986 130.746C115.32 130.76 115.653 130.702 115.963 130.575C116.834 129.994 117.488 129.142 117.825 128.15C118.938 128.825 124.463 132.488 124.388 133.788C124.388 134.663 123.925 135.4 123.05 135.325C122.311 135.061 121.613 134.695 120.975 134.238C120.333 133.725 119.656 133.257 118.95 132.838C118.838 132.779 118.708 132.765 118.585 132.797C118.463 132.828 118.356 132.904 118.287 133.01C118.217 133.115 118.188 133.243 118.207 133.368C118.226 133.493 118.29 133.607 118.388 133.688C118.388 133.688 119.325 134.388 120.363 135.063C121.925 136.313 122.463 137.463 120.525 138.05C120.222 138.14 119.903 138.167 119.589 138.128C119.275 138.089 118.972 137.986 118.7 137.825C118.382 137.196 117.959 136.626 117.45 136.138C117.223 135.554 116.816 135.057 116.288 134.72C115.76 134.383 115.138 134.223 114.513 134.263C113.863 134.338 113.813 134.663 113.875 134.363C114.175 132.875 112.275 131.975 110.95 132.225C108.813 132.65 107.625 135.475 106.925 137.538C106.5 138.438 108.175 137.438 100.863 140.038C101.069 136.407 101.069 132.768 100.863 129.138C100.8 128.275 100.775 128.475 100.9 128.413ZM107.275 137.675C107.963 136.2 109.475 133.438 111.088 133.188C111.713 133.075 112.975 133.5 112.838 134.138C112.567 135.83 111.786 137.4 110.6 138.638C110.75 138.888 106.838 138.963 107.275 137.675ZM114.35 135.288C114.65 134.988 116.4 135.6 116.45 136.538C116.538 138.1 115.05 139.963 113.763 140.825C113.35 141.113 111.725 139.788 111.35 139.25C112.243 137.852 113.246 136.527 114.35 135.288ZM116.463 139.45C116.55 139.325 117.8 136.55 118.013 138.85C118.1 139.75 116.763 140.225 115.888 140.1C116.091 139.894 116.283 139.677 116.463 139.45ZM144.263 155.7C139 159.788 138.25 165.163 139.113 171.575C130.663 168.575 124.213 166.575 121.7 166.363C118.299 166.433 114.915 166.852 111.6 167.613C111.938 164.25 111.788 152.45 109.4 150.025C107.013 147.6 98.35 144.288 95.0875 143.038H95.8251C96.1125 142.888 95.6375 141.575 96.725 141.5C98.0375 141.425 99.875 141.925 100.475 141.4C100.654 141.128 100.758 140.813 100.775 140.488C102.15 140.05 105.388 139.063 107.025 138.638C107.576 139.075 108.22 139.378 108.908 139.523C109.595 139.669 110.307 139.652 110.988 139.475C111.363 140.313 113.113 142.15 114.2 141.55C114.502 141.376 114.79 141.18 115.063 140.963C115.853 141.182 116.693 141.147 117.463 140.863C117.87 140.752 118.233 140.518 118.504 140.194C118.774 139.87 118.939 139.471 118.975 139.05C119.63 139.238 120.327 139.208 120.963 138.965C121.599 138.721 122.139 138.277 122.5 137.7C125.241 137.084 127.805 135.853 130 134.1C130.238 134.613 130.463 135.05 130.65 135.35C130.712 135.456 130.799 135.544 130.904 135.607C131.009 135.671 131.128 135.707 131.25 135.713C132.5 135.838 135.45 134.463 135.575 134.463C136.003 135.356 136.536 136.195 137.163 136.963C137.388 137.188 137.763 137.125 138.113 137.088C141.738 136.65 159.738 132.775 164.55 131.575C170.8 130.013 174.875 125.625 179.163 121.45C178.925 128.625 179.863 132.125 177.025 146.213C171.125 146.946 165.279 148.065 159.525 149.563C154.488 151 148.488 152.425 144.263 155.713V155.7ZM162.5 180.363L162.063 180.188C161.963 173.838 163.538 167.988 168.188 163.65C168.599 163.755 169.016 163.834 169.438 163.888C164.65 167.988 162.763 173.963 162.5 180.363ZM182.238 159.525C178.488 161.725 179.588 162.913 176.15 163.275C173.396 163.464 170.629 163.25 167.938 162.638C165.763 161.938 166.913 161.1 169.188 160.85C169.575 160.913 172.625 160.938 174.063 160.85C174.18 160.832 174.287 160.772 174.364 160.681C174.441 160.591 174.484 160.475 174.484 160.357C174.484 160.238 174.441 160.123 174.364 160.032C174.287 159.942 174.18 159.882 174.063 159.863C172.441 159.723 170.812 159.698 169.188 159.788C168.153 159.773 167.122 159.651 166.113 159.425C166.012 159.261 165.954 159.075 165.943 158.883C165.932 158.691 165.969 158.5 166.05 158.325C167.363 157.538 173.55 157.838 174.575 157.8C174.696 157.781 174.806 157.72 174.885 157.627C174.964 157.534 175.008 157.416 175.008 157.294C175.008 157.172 174.964 157.054 174.885 156.961C174.806 156.868 174.696 156.807 174.575 156.788C172.524 156.831 170.473 156.723 168.438 156.463C167.563 156.313 165.525 155.875 165.675 154.988C165.95 153.388 169.238 154.763 171.55 154.6C173.182 154.576 174.797 154.271 176.325 153.7C176.439 153.665 176.535 153.587 176.592 153.481C176.648 153.376 176.66 153.252 176.625 153.138C176.59 153.023 176.511 152.928 176.406 152.871C176.3 152.815 176.177 152.803 176.063 152.838C174.498 153.214 172.912 153.489 171.313 153.663C171.211 153.642 171.121 153.584 171.059 153.502C170.997 153.419 170.967 153.316 170.975 153.213C170.993 152.979 171.052 152.751 171.15 152.538C171.795 151.697 172.66 151.052 173.65 150.675C177.2 149.2 179.9 150.675 183.963 150.938C184.472 153.249 185.119 155.528 185.9 157.763C184.654 158.261 183.447 158.85 182.288 159.525H182.238ZM187.013 158C186.575 156.525 184.95 151.175 184.788 149.925C185.433 149.61 186.112 149.371 186.813 149.213C187.388 151.35 188.45 155.063 189.138 157.138C188.467 157.473 187.773 157.761 187.063 158H187.013ZM190.55 158C189.888 156.5 187.925 149.513 187.475 147.763C189.625 146 208.925 136.513 211.8 133.625C212.7 132.725 209.663 115.788 213.225 101.85C215.125 94.3503 218.85 82.5628 226.538 82.8253C231.813 83.0003 234.825 87.0253 236.538 92.0503C239.675 101.3 238.425 114.138 238.425 114.013C238.425 124.5 234.675 140.263 227.175 147.763C221.513 153.438 194.075 158.638 190.6 158.038L190.55 158ZM242.088 167.5C240.625 167.113 233.913 164.638 231.075 164.4C216.338 163.15 217.25 160.35 208.138 156.35C213.138 155.1 224.25 152.2 227.938 148.55C235.725 140.825 239.325 124.9 239.288 114.125C239.577 110.352 239.577 106.561 239.288 102.788C242.05 118.463 243.75 162.75 242.088 167.5Z" fill="black"/>
<path fill-rule="evenodd" clip-rule="evenodd" d="M48.8125 83.0005L44.7125 83.4755C45.9624 84.6509 47.1006 85.9398 48.1125 87.3255L49.25 83.5755C49.2847 83.5082 49.2996 83.4326 49.293 83.3572C49.2865 83.2819 49.2587 83.2099 49.2129 83.1497C49.1671 83.0895 49.1051 83.0436 49.0343 83.0171C48.9634 82.9907 48.8865 82.9849 48.8125 83.0005ZM167.387 197.075C166.356 196.423 165.218 195.957 164.025 195.7C166.862 191.088 166.35 185.7 165.6 185.225C164.894 184.506 163.954 184.063 162.95 183.975C159.2 183.188 150.112 183.125 147.712 185.125C147.187 185.563 146.875 186.275 147.387 186.75C147.143 189.713 147.764 192.683 149.175 195.3C147.925 195.538 146.475 196.013 146 197.138C145.918 197.38 145.896 197.638 145.935 197.891C145.974 198.143 146.074 198.382 146.225 198.588C147.185 199.778 148.498 200.632 149.975 201.025C152.584 201.819 155.321 202.104 158.037 201.863C160.633 201.757 163.206 201.338 165.7 200.613C168.462 199.588 168.437 197.9 167.387 197.075ZM147.825 186.975C150.512 187.709 153.29 188.055 156.075 188C159.111 187.793 162.11 187.205 165 186.25C165.25 187.97 165.158 189.722 164.729 191.406C164.3 193.09 163.543 194.673 162.5 196.063C162.248 196.504 161.884 196.872 161.446 197.129C161.007 197.385 160.508 197.522 160 197.525C158.25 197.75 153.475 197.875 152.5 197.438C149.337 195.975 147.775 190.663 147.825 186.975ZM157.987 200.725C155.407 200.97 152.804 200.707 150.325 199.95C149.202 199.645 148.17 199.075 147.312 198.288C147.112 198.075 146.787 197.65 146.887 197.388C147.212 196.563 148.8 196.138 149.675 195.988C150.301 196.943 151.162 197.722 152.175 198.25C153.425 198.888 160.35 198.813 161.637 198.15C162.44 197.661 163.12 196.994 163.625 196.2C164.362 196.413 166.937 197.288 167.112 197.988C167.675 200.138 160.237 200.65 157.987 200.788V200.725Z" fill="black"/>
</svg>
