<svg width="154" height="154" viewBox="0 0 154 154" fill="none" xmlns="http://www.w3.org/2000/svg">
<path d="M46.6434 19.815C46.6009 19.8274 46.565 19.8562 46.5435 19.8949C46.522 19.9336 46.5166 19.9792 46.5285 20.0219C46.5285 20.1752 46.5975 20.1292 47.5403 20.1829C48.3528 20.2289 49.0733 20.2672 49.426 20.2672H49.6406C49.6718 20.2589 49.7003 20.2424 49.7232 20.2196C49.7461 20.1967 49.7625 20.1682 49.7709 20.1369C49.7792 20.1061 49.7793 20.0736 49.7713 20.0427C49.7632 20.0118 49.7472 19.9835 49.7249 19.9606C49.4873 19.723 46.6664 19.8073 46.6434 19.815ZM45.5856 15.2464C45.5281 16.1526 45.5281 17.0615 45.5856 17.9676C45.5856 18.0596 45.532 18.3969 45.7773 18.3969C45.8268 18.3969 45.8744 18.3778 45.9101 18.3435C45.9459 18.3092 45.9669 18.2624 45.9689 18.2129C46.0299 17.225 46.0299 16.2343 45.9689 15.2464C45.9689 15.1956 45.9487 15.1469 45.9128 15.1109C45.8768 15.075 45.8281 15.0548 45.7773 15.0548C45.7264 15.0548 45.6777 15.075 45.6418 15.1109C45.6058 15.1469 45.5856 15.1956 45.5856 15.2464ZM42.1592 19.447C42.1192 19.4658 42.0859 19.4965 42.0639 19.5349C42.042 19.5733 42.0324 19.6176 42.0366 19.6617C42.0366 19.9606 42.3739 19.9299 42.8415 19.9836C43.2711 20.0225 43.6984 20.0839 44.1216 20.1676C44.1619 20.1652 44.2005 20.15 44.2317 20.1244C44.263 20.0987 44.2853 20.0638 44.2955 20.0247C44.3057 19.9855 44.3033 19.9442 44.2886 19.9065C44.2738 19.8688 44.2476 19.8368 44.2135 19.815C43.5553 19.5741 42.8602 19.4496 42.1592 19.447ZM45.2254 21.0567C44.7961 23.0344 44.7271 23.3947 45.0261 23.3947C45.325 23.3947 45.2943 23.272 45.6393 21.1641C45.6393 20.8958 45.2254 20.7885 45.2254 21.0567ZM51.6566 7.55814C50.8364 8.86891 51.9172 10.9615 53.5499 10.6243C54.0143 10.5654 54.4432 10.345 54.7613 10.0016C55.0795 9.65823 55.2666 9.21381 55.2899 8.74627C55.4662 6.89893 52.7144 5.87178 51.6566 7.55814ZM52.1241 9.54346C51.9751 9.32062 51.8784 9.06698 51.8413 8.80151C51.8041 8.53603 51.8274 8.26559 51.9095 8.0104C52.4001 6.47734 54.669 6.8836 54.9066 8.363C55.0676 9.25984 53.159 11.1378 52.1241 9.54346ZM14.4568 27.4649C14.414 27.4664 14.3725 27.4802 14.3373 27.5047C14.3021 27.5292 14.2748 27.5634 14.2586 27.6031C14.2424 27.6428 14.238 27.6863 14.246 27.7285C14.2539 27.7706 14.2739 27.8095 14.3035 27.8405C14.7021 28.2698 16.1049 30.784 16.9097 31.5276C17.2777 31.2286 19.5543 27.4803 19.4163 27.2733C17.7742 27.508 16.1122 27.5722 14.4568 27.4649ZM18.9334 27.5953C18.3948 28.8056 17.6989 29.9397 16.8637 30.968L14.9167 27.9019C16.2628 27.9488 17.61 27.846 18.9334 27.5953ZM8.18661 94.475C8.23764 94.4748 8.28678 94.4557 8.32458 94.4214C8.34638 94.4006 8.36374 94.3756 8.3756 94.348C8.38745 94.3203 8.39357 94.2905 8.39357 94.2604C8.39357 94.2303 8.38745 94.2005 8.3756 94.1729C8.36374 94.1452 8.34638 94.1202 8.32458 94.0994C7.80448 93.6737 7.21266 93.344 6.57689 93.1259C6.51552 93.1304 6.45806 93.1578 6.41592 93.2026C6.39384 93.2355 6.38205 93.2742 6.38205 93.3138C6.38205 93.3533 6.39384 93.392 6.41592 93.4249C6.41592 93.4709 6.50024 93.5092 6.99082 93.7698C7.36896 93.9454 7.72849 94.1585 8.06396 94.4061C8.09462 94.4438 8.13846 94.4684 8.18661 94.475ZM8.4319 96.2687C7.87262 97.0407 7.42371 97.887 7.09813 98.7829C7.09405 98.822 7.10314 98.8614 7.12398 98.8947C7.14481 98.928 7.17618 98.9535 7.21311 98.9669H7.2821C7.30961 98.9664 7.33656 98.9591 7.36061 98.9457C7.38466 98.9324 7.40508 98.9133 7.42008 98.8903L7.77268 98.2387C8.10995 97.6255 8.53921 96.7823 8.7615 96.5447C8.80138 96.5021 8.82357 96.4459 8.82357 96.3875C8.82357 96.3292 8.80138 96.273 8.7615 96.2304C8.74536 96.1979 8.71958 96.1711 8.68767 96.1538C8.65576 96.1365 8.61928 96.1295 8.58322 96.1337C8.54716 96.1379 8.51328 96.1531 8.48619 96.1773C8.45911 96.2014 8.44015 96.2334 8.4319 96.2687ZM11.7663 91.3783C11.7993 91.3428 11.8206 91.2981 11.8275 91.2501C11.8343 91.2022 11.8263 91.1533 11.8046 91.11C11.7746 91.063 11.7284 91.0285 11.6749 91.013C11.6213 90.9975 11.5639 91.002 11.5133 91.0257C10.9856 91.5945 10.5695 92.2576 10.2869 92.9803C10.2837 93.0051 10.2856 93.0303 10.2924 93.0543C10.2993 93.0783 10.311 93.1007 10.3267 93.12C10.3425 93.1394 10.3621 93.1553 10.3842 93.1669C10.4064 93.1785 10.4306 93.1854 10.4555 93.1873C10.5017 93.19 10.5472 93.176 10.5838 93.1479C10.6205 93.1197 10.6457 93.0793 10.6548 93.034C10.8965 92.5403 11.1921 92.075 11.5363 91.6465C11.705 91.4702 11.751 91.4089 11.7663 91.3783ZM11.5823 95.2952C11.5577 95.2887 11.532 95.2871 11.5067 95.2905C11.4814 95.2939 11.457 95.3022 11.4349 95.315C11.4129 95.3278 11.3936 95.3449 11.3781 95.3651C11.3626 95.3854 11.3513 95.4085 11.3447 95.4332C11.3382 95.4579 11.3365 95.4836 11.3399 95.5089C11.3433 95.5342 11.3517 95.5585 11.3645 95.5806C11.3773 95.6027 11.3943 95.622 11.4146 95.6375C11.4349 95.653 11.458 95.6643 11.4827 95.6708C11.6437 95.7168 13.9586 96.3837 14.1349 96.3837C14.1694 96.3798 14.2021 96.3662 14.2293 96.3445C14.2564 96.3228 14.2768 96.2939 14.2882 96.2611C14.2979 96.2259 14.2965 96.1886 14.2842 96.1543C14.2718 96.1199 14.2491 96.0903 14.2192 96.0694C14.1042 95.9851 11.613 95.3029 11.5823 95.2952ZM140.551 53.3354C140.529 53.3077 140.501 53.2857 140.469 53.271C140.437 53.2564 140.402 53.2495 140.367 53.251C140.337 53.251 140.307 53.2596 140.281 53.2759C140.255 53.2922 140.235 53.3155 140.221 53.343C139.455 54.5541 137.83 57.329 137.661 57.6203C137.622 57.6463 137.593 57.6844 137.578 57.7287C137.563 57.773 137.562 57.8211 137.577 57.8655C137.586 57.9054 137.608 57.9409 137.64 57.9661C137.673 57.9913 137.712 58.0045 137.753 58.0035C143.602 57.4593 143.41 57.5206 143.479 57.352C143.548 57.1833 143.64 57.5513 140.551 53.3354ZM142.912 57.1143L138.137 57.5513C138.75 56.5624 139.8 54.8071 140.26 54.0329C140.321 53.9332 140.367 53.8489 140.405 53.7953C141.678 55.52 142.521 56.6391 142.912 57.1143ZM145.587 45.0108C145.217 44.7255 144.766 44.5631 144.299 44.5462C143.831 44.5292 143.37 44.6587 142.98 44.9164C142.589 45.1742 142.289 45.5474 142.121 45.9839C141.953 46.4204 141.926 46.8985 142.043 47.3515C142.159 47.8044 142.415 48.2096 142.773 48.5104C143.131 48.8112 143.574 48.9928 144.04 49.0296C144.507 49.0664 144.973 48.9568 145.374 48.7159C145.775 48.475 146.091 48.115 146.277 47.686C146.435 47.2213 146.454 46.7207 146.331 46.2455C146.209 45.7704 145.95 45.3413 145.587 45.0108ZM142.705 47.87C142.456 47.531 142.329 47.118 142.344 46.6978C142.359 46.2775 142.515 45.8746 142.787 45.5539C143.059 45.2332 143.431 45.0135 143.843 44.9303C144.255 44.847 144.683 44.9051 145.058 45.0951C145.457 45.3554 145.763 45.7351 145.932 46.1799C146.101 46.6247 146.126 47.1117 146.001 47.571C145.857 47.8724 145.638 48.1312 145.364 48.322C145.09 48.5128 144.771 48.629 144.438 48.6591C144.106 48.6893 143.771 48.6324 143.467 48.494C143.163 48.3557 142.901 48.1406 142.705 47.87ZM117.417 56.6314C116.244 57.8502 117.494 60.5561 119.464 60.0042C119.855 59.8847 120.201 59.6485 120.455 59.3271C120.708 59.0057 120.857 58.6146 120.882 58.206C120.907 57.7974 120.807 57.3909 120.595 57.041C120.382 56.6911 120.068 56.4145 119.694 56.2482C119.32 56.0755 118.902 56.0198 118.496 56.0882C118.09 56.1565 117.714 56.3459 117.417 56.6314ZM120.583 57.9269C120.609 58.2765 120.533 58.6263 120.362 58.9328C120.192 59.2393 119.936 59.4892 119.625 59.6516C117.877 60.5407 116.689 58.1185 117.425 56.9917C117.632 56.6908 117.929 56.4632 118.274 56.3414C118.619 56.2196 118.993 56.2099 119.343 56.3137C119.694 56.4175 120.002 56.6294 120.225 56.9191C120.448 57.2088 120.573 57.5616 120.583 57.9269ZM115.792 53.8336C115.754 53.8949 115.792 53.9869 115.876 53.9639C119.326 52.8754 119.196 52.9368 119.188 52.8294C118.575 45.762 114.704 39.9747 114.535 40.036C111.607 40.9942 111.569 40.9022 111.638 41.0479C113.568 45.113 114.964 49.4105 115.792 53.8336ZM114.619 40.4576C118.245 46.5899 118.651 51.373 118.751 52.5075C117.77 52.8218 117.072 53.0441 116.106 53.4043C115.267 49.1838 113.878 45.0914 111.975 41.2318C114.704 40.289 114.535 40.312 114.619 40.4576ZM79.6196 60.6327C83.3449 60.947 99.5034 61.2919 101.082 61.3073C103.796 61.3073 106.594 60.5407 107.015 57.8349C107.184 56.7311 107.782 48.4985 107.682 47.1035C107.353 42.1823 105.528 38.7176 96.9509 37.5755C91.9301 36.9086 78.6844 36.5407 74.5758 39.4611C72.4602 40.9942 72.7055 44.1063 72.6442 46.4442C72.6073 49.1985 72.7635 51.952 73.1117 54.6844C73.587 58.839 74.8058 60.2265 79.6196 60.6327ZM94.6743 52.7145C94.6655 52.7379 94.6498 52.7582 94.6293 52.7725C94.6087 52.7868 94.5843 52.7944 94.5593 52.7944C94.5342 52.7944 94.5098 52.7868 94.4892 52.7725C94.4687 52.7582 94.453 52.7379 94.4443 52.7145C94.4251 51.5133 94.4865 50.3123 94.6283 49.1194C94.6283 49.0274 94.8122 49.0121 94.8352 49.1194C94.8626 50.32 94.8089 51.5211 94.6743 52.7145ZM93.5168 44.3823C94.084 44.4206 96.5829 44.6429 96.8819 44.7425C96.9892 44.7809 97.0275 44.9802 96.8819 45.0032C96.5906 45.0032 94.0534 44.7119 93.4861 44.6276C93.3175 44.6046 93.3558 44.3746 93.5168 44.3823ZM81.6662 54.0636C81.6749 54.0401 81.6906 54.0198 81.7112 54.0055C81.7317 53.9912 81.7562 53.9836 81.7812 53.9836C81.8062 53.9836 81.8307 53.9912 81.8512 54.0055C81.8718 54.0198 81.8875 54.0401 81.8962 54.0636C81.9797 54.8271 82.0002 55.5962 81.9575 56.3631C85.1846 56.3631 88.3887 56.9534 91.6158 56.9074C91.6618 56.3861 91.7078 55.8802 91.7844 55.3743C91.7844 55.2057 92.0834 55.2517 92.0757 55.3743C92.0757 55.9339 91.9914 56.4858 91.9301 57.0377C91.9301 57.0804 91.9131 57.1213 91.8829 57.1515C91.8527 57.1817 91.8118 57.1987 91.7691 57.1987C90.0981 57.1987 83.4599 56.6468 81.8042 56.6774C81.7601 56.6755 81.7183 56.6572 81.687 56.6259C81.6558 56.5947 81.6374 56.5529 81.6356 56.5088C81.5844 55.6941 81.5947 54.8767 81.6662 54.0636ZM78.6001 51.4727C78.5921 51.4926 78.5784 51.5097 78.5606 51.5217C78.5429 51.5337 78.5219 51.5402 78.5005 51.5402C78.479 51.5402 78.458 51.5337 78.4403 51.5217C78.4225 51.5097 78.4088 51.4926 78.4008 51.4727C78.2307 50.344 78.1895 49.1996 78.2782 48.0616C78.2782 47.9543 78.4698 47.985 78.4775 48.0616C78.4698 48.6748 78.6768 51.2121 78.5924 51.4727H78.6001ZM80.8997 43.2785C80.9226 43.2888 80.942 43.3055 80.9556 43.3265C80.9692 43.3476 80.9765 43.3722 80.9765 43.3973C80.9765 43.4224 80.9692 43.4469 80.9556 43.468C80.942 43.4891 80.9226 43.5058 80.8997 43.5161C79.6781 43.8933 78.4338 44.1929 77.1744 44.4129C76.4385 44.1293 80.7234 43.2478 80.8844 43.2785H80.8997ZM132.219 140.528C132.219 140.59 132.38 140.651 132.395 140.59C132.885 138.995 133.721 137.527 134.844 136.292C135.966 135.058 137.347 134.086 138.888 133.445C139.753 133.113 140.646 132.857 141.555 132.679C143.042 132.411 134.143 132.388 132.219 140.528ZM129.735 137.255C130.263 135.322 131.482 133.65 133.16 132.555C134.838 131.46 136.86 131.019 138.842 131.315C138.911 131.315 138.926 131.2 138.842 131.184C135.852 130.517 130.763 131.529 129.574 137.201C129.544 137.255 129.72 137.309 129.735 137.255Z" fill="black"/>
<path d="M147.174 137.255C147.856 137.102 148.538 136.972 149.228 136.872C149.443 136.872 149.336 136.688 147.22 134.158C148.393 133.836 148.584 133.875 148.454 133.729C143.403 128.409 133.606 121.756 133.346 121.771C127.459 122.032 120.514 125.366 119.349 131.177C117.573 130.174 115.631 129.501 113.615 129.191C114.702 125.673 114.67 121.905 113.523 118.406C120.79 112.274 121.878 106.004 122.001 105.766C135.032 102.202 137.37 96.3148 135.323 87.3693C133.85 81.0205 130.592 75.2253 125.933 70.6666C125.88 65.6152 126.547 55.6426 123.097 45.2485C116.574 25.564 101.397 22.6588 100.983 22.5898C100.572 22.5325 100.156 22.5094 99.7411 22.5208C108.464 9.64313 92.0068 6.2704 87.3616 11.5825C84.7094 14.6486 86.4647 19.0178 88.5191 22.6742C86.0585 23.0421 78.5541 24.6671 72.7668 32.731C66.6883 41.2395 65.9601 52.9751 66.4276 64.4961C63.1239 62.1351 62.7483 61.9205 62.8019 62.1965C62.9476 62.8327 63.4995 65.3392 63.6758 65.9371L60.7936 64.1358C60.7246 64.0898 60.6557 64.1358 60.6633 64.2354C60.9163 65.5385 61.2076 66.8263 61.4835 68.1218C60.3364 67.6828 59.1671 67.3042 57.9805 66.9873C58.8696 68.8653 62.9169 77.1975 65.8987 83.3221C60.1038 83.0078 58.9463 75.6567 55.6119 71.9237C54.4477 70.6016 52.9155 69.6568 51.2113 69.2103C49.5072 68.7638 47.7086 68.8358 46.0456 69.4172C44.7501 67.3399 42.4659 68.0221 42.3126 69.4172C41.0401 67.5392 39.2465 66.8953 37.0005 66.7497C34.988 63.7744 33.1626 60.6768 31.5352 57.4746C31.5261 57.4587 31.5126 57.4458 31.4962 57.4376C31.4798 57.4294 31.4613 57.4263 31.4432 57.4286C27.9708 58.0725 17.9906 59.8739 18.0059 59.8969C18.3892 60.7477 18.6498 61.3763 18.1362 62.1965C17.4693 63.2619 16.4728 62.1965 16.3732 62.0048C14.3035 58.6551 27.9555 83.6977 28.0321 83.69C32.6313 83.5673 42.9641 81.9346 43.4087 81.8273C43.6994 81.7761 43.9725 81.652 44.2023 81.4667C44.4321 81.2814 44.6113 81.041 44.723 80.7677C44.8347 80.4945 44.8755 80.1974 44.8413 79.9041C44.8072 79.6109 44.6994 79.3311 44.5278 79.0908L42.4352 75.6338C42.5608 75.4261 42.6685 75.2081 42.7572 74.9822C43.1864 76.2853 45.4707 76.8449 46.5362 74.8212C48.8358 74.8212 50.6064 76.6149 51.6029 78.5849C53.6649 82.6858 55.6119 95.4026 67.4088 94.4597C68.4047 94.4111 69.3871 94.2095 70.3216 93.8618C71.3411 100.416 73.955 112.703 79.6886 116.091C78.7228 118.467 78.6231 121.925 78.9221 124.469C80.7388 141.946 98.323 143.755 106.441 138.267C111.753 141.893 113.891 145.664 114.198 145.549C114.796 145.304 115.378 145.028 115.984 144.782C122.614 142.176 127.482 143.311 129.421 143.924C130.301 144.246 131.157 144.63 131.981 145.074C131.988 145.42 132.104 145.755 132.314 146.03C132.523 146.306 132.815 146.508 133.146 146.607C134.68 147.028 135.699 145.319 135.185 144.453C137.539 142.92 143.18 141.387 149.42 141.847C149.719 141.808 149.474 141.632 147.174 137.255ZM148.998 136.696C143.855 137.393 135.806 140.268 133.668 144.974C135.201 139.608 141.647 135.776 147.021 134.243C147.021 134.227 148.354 135.875 149.021 136.696H148.998ZM129.275 122.729C130.617 122.377 131.767 122.246 133.108 121.963C142.429 128.578 141.693 127.957 148.071 133.637C145.416 134.227 142.881 135.263 140.574 136.703C136.964 138.85 134.258 141.18 133.315 145.25C129.613 139.447 123.856 135.017 119.61 131.399C120.836 127.16 123.588 124.224 129.298 122.729H129.275ZM120.844 105.651C115.93 105.069 111.385 98.1238 113.876 96.4527C115.314 96.1506 116.72 95.7143 118.076 95.1496C117.494 98.1544 122.775 104.394 126.217 103.896C124.472 104.6 122.682 105.187 120.859 105.651H120.844ZM91.7155 98.7523C90.6653 99.3195 89.2472 98.2234 90.535 95.8778C91.6772 93.7929 95.0805 91.4013 95.6478 94.1608C95.5273 94.1133 95.401 94.0824 95.2722 94.0688C95.0252 94.1477 94.7884 94.2558 94.567 94.3908C90.88 96.2688 91.9224 98.6297 91.7615 98.7216L91.7155 98.7523ZM89.9985 93.08C88.3274 93.3176 87.7908 94.1071 86.1658 93.5706C85.4237 93.3178 84.7747 92.8478 84.3031 92.2215C82.5631 90.3588 82.5708 87.7986 82.3255 86.0432C83.9622 86.0793 85.5996 86.0307 87.2313 85.8976C87.0927 87.4013 87.3908 88.913 88.0898 90.2515C89.1093 92.0145 92.0834 93.3713 93.1872 92.3364C93.1935 92.5396 93.2377 92.7398 93.3175 92.9267C92.9043 93.1227 92.507 93.3508 92.1294 93.6089C91.0589 94.4448 90.2589 95.578 89.8298 96.8666C89.0537 95.9277 88.3466 94.9337 87.7142 93.8925C87.8752 93.8925 89.6228 93.3099 90.0138 93.1873C90.0321 93.1914 90.0512 93.188 90.067 93.1779C90.0829 93.1679 90.094 93.1519 90.0981 93.1336C90.1022 93.1153 90.0988 93.0962 90.0887 93.0804C90.0787 93.0646 90.0627 93.0534 90.0444 93.0493L89.9985 93.08ZM100.684 66.903C100.684 67.4472 100.776 67.8381 100.761 68.3824C98.2923 69.1029 80.4168 74.7369 79.8496 74.9362C86.4898 71.4838 93.4928 68.7792 100.73 66.8723L100.684 66.903ZM80.0719 74.507C85.4902 70.1342 91.7148 66.8682 98.392 64.8947C98.392 65.6612 98.5529 66.3127 98.5683 67.0946C92.2085 68.9948 86.0333 71.4654 80.1179 74.4763L80.0719 74.507ZM83.9045 85.8209C83.9045 85.7443 80.8767 75.2888 80.7388 74.9975L102.715 69.3789C102.807 72.0387 103.313 88.3275 103.351 89.8529C103.275 89.8529 93.1259 92.1525 93.1182 92.2291C92.7632 92.3932 92.3747 92.472 91.9838 92.4591C90.7637 92.2903 89.6341 91.7214 88.772 90.8417C88.2147 90.1267 87.8119 89.3037 87.5889 88.425C87.3659 87.5463 87.3277 86.6309 87.4766 85.7366C87.5149 85.591 87.6222 85.6906 83.9275 85.7903L83.9045 85.8209ZM82.0802 74.4686C82.5861 74.2923 101.895 68.4207 102.424 68.2751C102.424 68.597 102.539 68.781 102.524 69.1029C96.3147 70.8123 82.3715 74.392 82.1032 74.438L82.0802 74.4686ZM80.1179 75.1278C79.926 75.2796 79.7059 75.3916 79.4702 75.4573C79.2346 75.5229 78.9882 75.541 78.7456 75.5103C78.5029 75.4796 78.2688 75.4008 78.0569 75.2785C77.845 75.1563 77.6597 74.993 77.5117 74.7982C77.5265 74.7863 77.5384 74.7711 77.5464 74.7538C77.5544 74.7365 77.5583 74.7176 77.5577 74.6986C77.642 74.7522 78.5312 75.2505 78.8991 75.4651C79.3201 75.3774 79.7349 75.2622 80.1409 75.1202L80.1179 75.1278ZM80.5471 75.0359C80.6391 75.8024 83.6592 85.7673 83.6822 85.8286C83.114 85.7838 82.5424 85.8095 81.9805 85.9053C82.1185 89.0787 82.9464 92.5817 85.9052 93.7315C86.2501 94.774 84.4104 95.4869 83.5366 93.7315C83.207 93.0417 78.0942 76.6686 77.55 75.0512C77.7397 75.2668 77.9739 75.4386 78.2364 75.5549C78.4989 75.6712 78.7836 75.7291 79.0707 75.7248C79.3578 75.7204 79.6405 75.6538 79.8994 75.5296C80.1582 75.4053 80.3871 75.2264 80.5701 75.0052L80.5471 75.0359ZM95.2798 94.1531C95.2798 94.1531 98.139 95.3413 98.4303 95.4409C97.2422 95.5329 94.0381 99.3655 96.261 102.102C95.8931 101.872 92.2521 99.5418 91.9914 98.9286C91.1712 96.9203 94.2067 94.6207 95.3028 94.1225L95.2798 94.1531ZM99.9404 95.9238C100.398 96.0869 100.871 96.2075 101.351 96.2841C99.1125 96.928 97.5181 102.14 100.278 104.202C98.9231 103.621 97.6138 102.939 96.3606 102.163C94.9349 99.8178 96.8896 94.5364 99.9633 95.8932L99.9404 95.9238ZM101.765 96.3837C102.958 96.6494 104.166 96.8414 105.383 96.9586C102.845 97.8095 102.401 103.735 105.268 105.85C103.727 105.487 102.217 105.003 100.753 104.402C98.116 102.148 99.1891 96.583 101.788 96.3531L101.765 96.3837ZM105.551 96.974C106.667 97.0813 107.788 97.1197 108.909 97.0889C106.701 99.8791 109.2 104.938 111.653 106.686C109.67 106.63 107.696 106.389 105.758 105.965C103.06 104.172 102.792 97.7098 105.574 96.9433L105.551 96.974ZM109.077 97.0889C110.61 97.0382 112.136 96.8562 113.638 96.5447C111.339 98.3767 115.417 105.13 120.499 105.743C117.688 106.419 114.803 106.733 111.914 106.678C106.724 101.596 108.801 97.5105 109.1 97.0583L109.077 97.0889ZM126.884 103.627C123.013 104.609 118.521 97.8938 118.253 96.629C118.166 96.1382 118.148 95.6377 118.199 95.142C119.531 94.6202 120.745 93.8385 121.771 92.8424C122.17 97.8478 130.456 101.075 132.717 99.9404C131.238 102.079 126.93 103.589 126.907 103.597L126.884 103.627ZM133.254 99.3349C132.983 99.6063 132.652 99.811 132.288 99.9328C130.418 100.492 122.829 97.6332 121.886 92.7044C122.771 91.6308 123.306 90.312 123.419 88.9254C125.205 92.965 133.798 94.3908 135.477 91.0333C135.791 94.935 134.833 97.4415 133.277 99.3042L133.254 99.3349ZM133.553 83.1381C132.786 85.2001 128.187 87.193 123.588 85.292C123.45 85.2307 123.419 85.4147 123.481 85.4453C127.796 87.4383 132.733 85.8056 133.637 83.437C134.506 85.7368 135.096 88.1329 135.392 90.5734C134.588 93.8465 126.263 93.149 123.389 88.8257C123.557 86.8805 123.171 84.9274 122.277 83.1917C122.668 82.7548 126.156 79.0141 131.238 78.2629C132.138 79.8168 132.919 81.4362 133.576 83.1074L133.553 83.1381ZM131.176 78.1096C129.432 78.3061 127.744 78.8511 126.214 79.7122C124.684 80.5734 123.343 81.7332 122.269 83.1228C121.737 82.0558 121.067 81.0636 120.276 80.1716C120.33 79.819 120.361 79.4664 120.43 79.1138C121.196 75.2811 125.098 71.9161 127.489 72.8206C128.883 74.4573 130.125 76.2174 131.199 78.079L131.176 78.1096ZM127.26 72.5523C124.193 71.3488 120.192 76.4999 120.192 80.0796C119.515 79.3377 118.785 78.6459 118.007 78.01C116.321 72.1997 120.361 68.8653 122.607 68.1218C124.303 69.4353 125.868 70.9087 127.283 72.5216L127.26 72.5523ZM115.217 76.27C115.217 76.316 117.049 77.5731 117.839 78.194C117.026 80.4936 111.638 80.4936 111.883 73.9244C112.197 65.5462 118.659 63.4919 120.667 64.5727C121.114 64.7922 121.463 65.1682 121.65 65.6291C121.837 66.09 121.847 66.6035 121.679 67.0716C121.572 67.0026 120.2 66.0751 119.594 65.7302C118.248 66.5359 117.115 67.6531 116.29 68.9879C115.611 70.0585 115.164 71.2601 114.979 72.5147C114.794 73.7693 114.875 75.0488 115.217 76.27ZM115.562 76.1627C115.486 76.1167 113.585 70.6436 119.702 65.9831C120.706 66.65 121.526 67.2402 122.476 67.9761C118.092 69.3865 116.29 74.5989 117.839 77.8184C117.116 77.2185 116.356 76.6655 115.562 76.1627ZM86.618 16.7259C85.039 7.73447 102.769 7.38187 101.887 16.8485C101.596 19.9913 99.3041 22.4595 97.7021 25.0197C96.2303 27.373 95.7628 27.557 94.7433 27.7639C95.3182 26.1465 97.0889 19.585 97.5794 17.9217C97.5977 17.8851 97.6007 17.8427 97.5878 17.8039C97.5749 17.7651 97.547 17.733 97.5104 17.7147C97.4739 17.6964 97.4315 17.6934 97.3927 17.7063C97.3539 17.7193 97.3218 17.7471 97.3035 17.7837C97.1578 18.2589 97.0199 18.7342 96.8896 19.2171C95.9544 17.8987 96.6519 18.6345 95.1725 19.769C94.0994 18.8108 93.9461 18.3049 93.7391 18.5962C93.4182 19.0659 93.0454 19.4979 92.6276 19.884C91.6848 20.0373 91.2172 18.7572 91.1636 18.6039C91.1099 18.4506 90.8876 18.5579 90.9183 18.6499C90.9489 18.7418 93.3405 27.557 93.4555 27.8482C91.3705 27.7639 87.147 19.7997 86.618 16.7259ZM94.452 28.0935C96.7516 27.8789 98.1313 24.9661 98.4226 24.5292C99.8407 25.1347 99.7257 28.906 95.9927 29.8949C90.8416 31.2363 87.7449 27.028 90.2667 25.3493C91.8841 27.5033 92.1064 28.3082 94.4443 28.0935H94.452ZM93.7238 27.8789C93.7238 27.5416 91.9071 20.9111 91.4932 19.7613C92.5893 20.6812 93.0722 20.0909 93.9001 18.9182C94.176 19.2094 95.0805 20.1983 95.2415 20.0756C95.6846 19.7443 96.0594 19.3304 96.3453 18.8568L96.8206 19.4931C96.5216 20.5892 94.521 27.8099 94.521 27.8176C94.254 27.8526 93.9853 27.8731 93.7161 27.8789H93.7238ZM72.8205 34.0495C79.4893 23.732 88.7797 23.4943 88.9176 23.3717C89.2922 24.0172 89.7096 24.637 90.1671 25.2267C87.7985 26.2002 89.0556 31.8649 96.0004 30.3855C100.347 29.4579 100.147 24.8358 98.5989 24.2532C98.9592 23.7166 99.3654 23.1877 99.6951 22.6588C107.468 24.0999 117.624 31.5122 122.254 44.1677C125.282 52.4462 125.703 61.4759 125.565 70.314C124.37 69.1582 123.089 68.0948 121.733 67.1329C122.384 67.3246 122.315 63.4383 118.575 63.9595C116.55 64.3519 114.757 65.5177 113.577 67.2096C112.29 69.0403 111.536 71.1924 111.4 73.4261C110.817 80.4092 116.95 81.0914 118.007 78.3473C123.166 82.5019 124.14 87.6376 122.507 91.0947C120.207 95.9775 108.901 99.1662 95.8624 94.1608C95.9029 93.9822 95.9018 93.7968 95.8593 93.6187C95.8168 93.4406 95.7339 93.2747 95.6171 93.1336C95.0652 92.3671 94.2527 92.4821 93.4095 92.827C93.335 92.6474 93.2985 92.4543 93.3022 92.2598C95.1725 91.9685 103.497 90.1442 103.627 90.0982C103.758 90.0522 103.704 90.0062 103.704 89.9755C103.635 87.2543 103.114 70.6053 103.098 69.0876C103.137 68.9956 103.098 68.85 102.937 68.8959L102.8 68.9419C102.8 67.4089 103.114 67.6312 101.029 68.2367C101.029 66.5657 101.144 66.3204 100.914 66.3817C100.224 66.558 99.5418 66.742 98.8595 66.9413C98.8595 66.1748 98.7369 65.3546 98.7062 64.5574C98.7055 64.5438 98.7018 64.5304 98.6953 64.5184C98.6889 64.5064 98.6798 64.496 98.6688 64.4879C98.6578 64.4798 98.6451 64.4743 98.6317 64.4718C98.6183 64.4692 98.6045 64.4696 98.5913 64.4731C91.4443 66.4628 84.8335 70.0275 79.244 74.9055C79.1674 74.9515 72.3989 68.8653 66.8262 64.772C67.1788 54.3549 66.8492 43.3092 72.8205 34.0495ZM63.0472 62.5414C67.5314 65.4389 77.2894 73.8247 78.1862 74.6296L63.9594 65.9908C63.8598 65.3469 63.1775 63.1163 63.0472 62.5414ZM61.0236 64.5497C65.983 67.5545 76.9214 74.2617 76.9598 74.2923C74.6602 73.1885 62.1351 68.3364 61.9051 68.2521C61.6445 66.9873 61.3225 65.8068 61.0236 64.5497ZM58.3867 67.2786C60.8779 68.2904 77.3047 74.8596 77.3277 74.8596C78.3089 78.2093 83.0843 93.8465 83.5443 94.3831C83.2453 94.2911 70.061 89.8989 69.5474 89.7839C69.5168 89.6842 58.4327 67.3552 58.3867 67.2786ZM16.8638 62.7867C17.7223 63.1316 18.7188 62.2425 18.6191 61.1003C19.9299 63.6222 28.2774 79.566 28.8446 81.1374C28.8983 81.2754 28.9213 81.2371 30.0404 81.0301C30.113 81.3091 30.1166 81.6014 30.0511 81.8821C29.9856 82.1628 29.8528 82.4233 29.6643 82.6413C29.4757 82.8592 29.237 83.0281 28.9687 83.1333C28.7004 83.2386 28.4106 83.277 28.1241 83.2454C26.8287 80.4092 17.6839 64.0668 16.8638 62.7867ZM43.3474 81.4747C42.7725 81.628 31.4202 83.2761 29.0516 83.391C29.294 83.3223 29.5191 83.2032 29.7124 83.0416C29.9057 82.88 30.0628 82.6795 30.1735 82.4532C30.2841 82.2268 30.3458 81.9797 30.3546 81.7279C30.3634 81.4761 30.319 81.2253 30.2244 80.9918C30.3854 80.9918 42.5349 78.7535 43.6847 78.8915C44.6965 79.0065 45.1027 81.0071 43.3627 81.4747H43.3474ZM43.8533 78.5082C43.424 78.3243 29.9254 80.6545 29.1129 80.8078C28.0934 78.0713 18.4965 60.2035 18.3815 60.0349C21.8615 59.4676 30.3624 57.8272 31.3205 57.6586C32.8957 60.7809 34.6727 63.7972 36.6402 66.6883C35.4138 66.627 33.8271 66.7343 32.3707 66.5734C32.3422 66.5734 32.3149 66.5847 32.2948 66.6048C32.2747 66.6249 32.2634 66.6522 32.2634 66.6807C32.4013 68.0298 32.4013 69.3942 32.547 70.7433C32.547 70.8353 32.7386 70.8506 32.7539 70.8506C34.9309 70.9043 37.1845 70.1684 39.3308 70.9119C39.8137 71.8394 43.7307 78.3013 43.8686 78.5082H43.8533ZM39.714 71.1189C39.8831 71.2126 40.0258 71.3474 40.129 71.5109C40.2321 71.6743 40.2924 71.8611 40.3043 72.0541C39.99 71.5405 39.7754 71.1879 39.7294 71.1189H39.714ZM42.2896 75.3731L40.3962 72.238C41.1628 69.7161 35.4215 70.4367 32.8536 70.5363C32.7233 69.2409 32.6926 68.2367 32.5623 66.9183C34.8006 67.1329 37.0848 66.7497 39.2465 67.4625C42.4659 68.528 43.9606 71.7551 42.3049 75.3731H42.2896ZM46.4902 73.9014C45.9766 76.201 43.6693 76.5766 42.8032 74.7599C43.1284 73.9309 43.2648 73.0398 43.2025 72.1514C43.1402 71.263 42.8807 70.3997 42.4429 69.6242C42.4429 69.5475 43.2094 67.9148 44.5049 68.3824C46.3062 68.9879 46.8658 72.2917 46.5055 73.9014H46.4902ZM46.9041 74.6143C46.7918 74.6065 46.6791 74.6065 46.5668 74.6143C47.18 73.2575 46.7814 70.7816 46.0762 69.4938C48.6058 68.712 48.8894 73.3955 46.9194 74.6143H46.9041ZM47.1954 74.6143C48.5751 73.909 49.058 70.0917 47.0651 69.2485C48.6824 68.9343 49.9779 68.827 50.3995 70.1991C50.959 71.9851 50.0469 74.6143 48.2379 74.9209C47.9095 74.7814 47.5641 74.686 47.2107 74.6373L47.1954 74.6143ZM50.0852 76.1473C49.6248 75.6849 49.0913 75.3016 48.5061 75.0129C50.6908 75.0129 51.5723 70.3064 49.7709 69.1259C50.8641 69.2502 51.9232 69.5833 52.8907 70.1071C55.0983 72.1154 51.9019 76.8985 50.1005 76.1473H50.0852ZM50.2155 76.3083C51.6949 77.0748 55.1826 72.9509 53.3276 70.3524C54.6365 71.1791 55.7316 72.3032 56.5241 73.6331C56.5671 73.8867 56.5952 74.1427 56.6084 74.3996C56.6084 77.0135 53.9408 78.5619 51.4496 77.918C51.1076 77.3357 50.6985 76.7955 50.2308 76.3083H50.2155ZM51.5033 78.033C52.1242 78.2853 52.8005 78.3703 53.4646 78.2796C54.1287 78.189 54.7574 77.9257 55.2879 77.5161C55.8185 77.1066 56.2324 76.565 56.4883 75.9456C56.7442 75.3261 56.8332 74.6503 56.7463 73.9857C57.4439 75.1278 58.0265 76.339 58.6627 77.5194C58.6419 77.8516 58.5983 78.182 58.5324 78.5082C57.9575 80.7312 55.1903 82.0879 52.6224 80.5702C52.3338 79.6921 51.9643 78.8427 51.5186 78.033H51.5033ZM52.6684 80.6928C55.1826 82.6858 58.747 80.6929 58.8006 77.8414C59.3007 78.7933 59.8884 79.6966 60.556 80.5395C60.556 85.2537 55.6885 85.729 53.6112 83.4294C53.159 82.1109 53.0133 81.6127 52.6837 80.6928H52.6684ZM53.7186 83.6133C56.3248 86.9017 61.1309 84.3109 60.763 80.7465C61.3376 81.4415 62.0087 82.0507 62.756 82.5555C63.8214 86.8404 58.5784 89.2857 55.3743 87.1087C54.7365 85.9885 54.188 84.8198 53.7339 83.6133H53.7186ZM55.5582 87.446C59.1303 89.9525 63.9901 86.5261 62.9476 82.7242C63.6169 83.1441 64.3707 83.4111 65.1552 83.506C66.351 89.301 61.6062 92.3824 59.0229 91.5853C57.647 90.3871 56.4812 88.9673 55.5736 87.3847L55.5582 87.446ZM59.2452 91.8075C63.4765 92.873 66.7112 87.0014 65.3085 83.5673C65.5355 83.5865 65.7637 83.5865 65.9907 83.5673C66.9412 85.5143 67.7691 87.2084 68.3516 88.3888C68.3486 89.5544 68.0397 90.6987 67.4559 91.7075C66.8722 92.7164 66.0339 93.5544 65.0249 94.1378C62.8905 94.0245 60.858 93.1893 59.2606 91.7692L59.2452 91.8075ZM65.2625 94.1071C66.2773 93.5931 67.1201 92.7944 67.6878 91.8087C68.2556 90.823 68.5235 89.6931 68.4589 88.5575C69.3328 90.3358 69.0492 90.0139 69.8234 90.2668C69.9537 91.3553 70.0993 92.4361 70.2603 93.5169C68.6471 94.0049 66.9604 94.2047 65.2778 94.1071H65.2625ZM81.5896 112.68C81.263 110.889 81.3099 109.049 81.7276 107.276C82.885 103.275 86.825 100.661 89.3009 104.739C89.5615 105.176 89.8145 105.628 90.0674 106.088C85.4223 106.993 81.6586 112.581 81.5896 112.68ZM90.8416 112.496C82.5094 120.575 87.4306 130.341 89.6075 132.656C88.3427 131.361 80.8767 120.92 90.7956 112.381C90.8263 112.351 90.8953 112.443 90.8416 112.489V112.496ZM89.6842 104.609C89.1827 103.6 88.317 102.819 87.2619 102.424C84.4258 101.657 80.0872 105.007 81.283 113.155C81.053 113.5 80.0949 115.141 79.8802 115.616C72.5599 110.909 71.5021 96.1001 70.5286 90.4968C73.5947 91.5163 84.993 95.142 85.3226 95.096C85.617 95.0522 85.883 94.8959 86.0646 94.66C86.2461 94.4241 86.3291 94.127 86.2961 93.8312C86.7037 93.9516 87.1286 94.0035 87.5532 93.9845C88.2652 95.0734 89.0327 96.1249 89.8528 97.1349C89.7481 97.5157 89.7842 97.9214 89.9546 98.2777C90.125 98.6339 90.4182 98.9168 90.7803 99.0743C90.9674 99.1543 91.1734 99.1795 91.3742 99.1469C91.5751 99.1144 91.7626 99.0254 91.9148 98.8903C92.4973 100.423 99.0895 103.911 100.707 104.601C107.259 107.359 114.546 107.839 121.403 105.965C118.559 116.291 107.529 123.427 102.071 123.879C94.0764 124.531 94.0687 117.908 93.7238 115.846C93.0787 111.884 91.7094 108.075 89.6842 104.609ZM95.7551 127.183C94.5823 125.65 94.1147 123.703 95.4332 122.269C96.8666 124.025 98.9362 124.569 101.182 124.347C102.588 124.285 103.979 124.027 105.314 123.58C105.477 124.585 105.42 125.613 105.145 126.593C103.252 130.901 98.116 130.18 95.7474 127.183H95.7551ZM116.451 144.1C115.685 144.389 114.95 144.756 114.259 145.196C112.956 143.311 111.247 141.923 109.591 140.229C107.751 138.359 103.98 136.274 101.926 135.331L100.929 134.779C101.941 134.373 105.053 133.131 105.85 132.763C111.983 136.703 113.861 140.268 114.19 140.229C121.917 139.585 128.195 141.678 131.966 144.56C126.11 141.509 119.464 142.851 116.421 144.108L116.451 144.1ZM130.31 143.173C123.166 138.443 114.489 140.007 114.366 139.861C112.026 137.007 109.232 134.557 106.096 132.61C106.101 132.599 106.104 132.587 106.104 132.575C106.104 132.563 106.101 132.552 106.096 132.541C104.946 131.753 103.706 131.107 102.401 130.617C104.824 129.603 107.426 129.086 110.053 129.097C112.68 129.107 115.278 129.645 117.693 130.678C118.276 130.924 118.644 131.184 119.226 131.384C119.226 131.384 123.304 134.833 125.175 136.504C128.099 139.089 130.729 141.988 133.016 145.15C132.179 144.407 131.273 143.745 130.31 143.173ZM132.211 145.089L133.507 145.81C133.936 145.376 134.389 144.967 134.863 144.583C134.897 144.758 134.895 144.937 134.859 145.111C134.823 145.285 134.753 145.451 134.653 145.598C134.553 145.745 134.425 145.87 134.276 145.968C134.128 146.066 133.961 146.133 133.787 146.166C133.612 146.199 133.432 146.198 133.258 146.162C133.084 146.125 132.919 146.055 132.772 145.955C132.625 145.855 132.499 145.727 132.402 145.579C132.304 145.43 132.237 145.264 132.204 145.089H132.211ZM133.622 145.442C134.04 144.541 134.599 143.713 135.277 142.989C137.807 140.337 143.334 138.144 147.021 137.301C147.787 138.696 148.485 140.099 149.19 141.509C144.108 140.911 136.151 142.291 133.614 145.442H133.622ZM21.2023 117.279C21.1903 117.274 21.1772 117.271 21.164 117.271C21.1508 117.271 21.1377 117.274 21.1257 117.279C21.1203 117.29 21.1175 117.302 21.1175 117.314C21.1175 117.326 21.1203 117.338 21.1257 117.348C21.1235 117.364 21.1246 117.379 21.129 117.394C21.1334 117.409 21.1409 117.423 21.1511 117.434C21.1613 117.446 21.1739 117.455 21.188 117.462C21.2022 117.468 21.2175 117.471 21.233 117.471L23.7319 117.563C27.5645 117.716 34.0647 117.962 34.8926 117.962C34.9134 117.956 34.9317 117.943 34.9447 117.926C34.9578 117.908 34.9648 117.887 34.9648 117.866C34.9648 117.844 34.9578 117.823 34.9447 117.806C34.9317 117.788 34.9134 117.776 34.8926 117.77C33.8347 117.693 29.5268 117.525 21.9612 117.264L21.2023 117.279ZM30.6613 115.746L33.6508 115.831C33.6645 115.832 33.6783 115.83 33.6913 115.825C33.7043 115.821 33.7162 115.814 33.7263 115.804C33.7363 115.795 33.7444 115.784 33.7498 115.771C33.7553 115.758 33.7581 115.745 33.7581 115.731C33.7591 115.717 33.7574 115.703 33.7529 115.689C33.7485 115.676 33.7414 115.663 33.7322 115.653C33.7229 115.642 33.7116 115.633 33.699 115.627C33.6863 115.621 33.6726 115.617 33.6584 115.616C30.5923 115.371 24.1228 115.225 20.2365 115.133H19.9299C18.3968 115.133 17.247 115.072 16.8638 115.049C16.8447 115.048 16.8258 115.052 16.8085 115.06C16.7912 115.068 16.776 115.08 16.7641 115.095C16.7547 115.112 16.7498 115.132 16.7498 115.152C16.7498 115.172 16.7547 115.192 16.7641 115.21C16.7731 115.227 16.7862 115.241 16.8022 115.252C16.8183 115.263 16.8368 115.269 16.8561 115.271C20.0065 115.44 26.6524 115.608 30.6613 115.746Z" fill="black"/>
<path d="M67.1788 123.251C70.9425 120.307 69.8923 116.873 67.6617 116.229C68.7809 115.463 68.9188 115.401 68.7962 115.217C68.7758 115.187 68.7448 115.165 68.7093 115.157C68.6739 115.148 68.6365 115.154 68.6046 115.171C65.4695 115.486 64.5036 111.461 67.5238 109.001C67.5323 108.992 67.5391 108.982 67.5438 108.971C67.5484 108.96 67.5508 108.948 67.5508 108.936C67.5508 108.923 67.5484 108.911 67.5438 108.9C67.5391 108.889 67.5323 108.879 67.5238 108.87C67.5332 108.846 67.5332 108.818 67.5238 108.794C67.5082 108.775 67.4876 108.762 67.4644 108.755C67.4412 108.748 67.4165 108.748 67.3934 108.755L60.6556 108.334C61.1999 108.012 61.3532 107.989 61.3762 107.744C61.3992 107.498 60.2954 106.939 60.8473 105.229C61.0531 104.504 61.3519 103.808 61.7365 103.16C63.8214 102.102 63.7601 102.079 63.7294 101.964C63.7132 101.907 63.683 101.854 63.6415 101.811C63.6001 101.769 63.5486 101.737 63.4918 101.719C58.0724 101.335 39.7984 100.469 39.7294 100.523C27.4649 105.59 15.0547 111.645 14.4339 112.166C13.0081 113.332 12.7398 115.647 12.7551 116.467C4.59926 122.737 4.53794 122.829 4.17767 123.526C3.90749 124.066 3.83087 124.681 3.96066 125.27C4.09045 125.859 4.41876 126.386 4.89055 126.761C6.80687 128.179 8.93783 126.692 10.7775 128.785C11.106 129.144 11.3463 129.575 11.4794 130.043C11.6124 130.512 11.6345 131.005 11.544 131.483C8.40126 133.07 6.2703 133.438 6.76088 133.783C10.2256 135.093 9.24444 138.811 6.24731 139.662C6.21719 139.669 6.19039 139.686 6.17122 139.711C6.15205 139.735 6.14163 139.765 6.14163 139.796C6.14163 139.827 6.15205 139.857 6.17122 139.881C6.19039 139.906 6.21719 139.923 6.24731 139.93C6.36995 139.93 41.5077 142.674 44.2749 142.927C45.2563 143.051 46.253 142.935 47.18 142.59C47.7243 142.36 64.8486 131.092 65.8144 130.433C67.3475 129.398 68.8805 128.072 69.1641 126.125C69.3021 124.998 68.6965 123.848 67.1788 123.251ZM7.52741 133.813C7.60406 133.813 46.4748 136.879 46.6205 136.941C46.9058 136.997 47.176 137.113 47.4137 137.281C47.6514 137.449 47.8512 137.664 48.0002 137.914C48.8434 139.685 47.8086 142.092 44.9341 142.621C44.1139 142.575 11.8353 140.053 6.89886 139.693C9.54339 138.458 10.2026 135.354 7.52741 133.813ZM9.75035 127.627C39.7754 129.751 44.0986 129.927 44.2442 129.927C44.9086 130.102 45.5073 130.467 45.9668 130.978C46.4264 131.489 46.7267 132.123 46.8309 132.802C46.9351 133.481 46.8387 134.176 46.5535 134.801C46.2683 135.426 45.8066 135.954 45.2254 136.32C44.1676 136.243 14.5105 134.02 10.3099 133.691C12.3642 132.51 12.5099 129.091 9.75035 127.627ZM60.9393 107.698C60.2877 108.081 41.3927 119.28 40.8102 119.579C39.5531 119.648 38.2346 118.26 38.6716 116.175C39.2924 113.209 40.2046 113.508 61.3532 103.275C60.51 104.716 59.6132 106.709 60.9393 107.675V107.698ZM41.2164 112.611H41.1704C17.6916 112.611 15.7829 111.944 14.1042 112.933C14.8708 111.883 14.7481 112.166 28.906 105.766C34.5859 103.19 38.9858 101.167 39.6374 100.898C45.532 101.397 60.3874 101.91 63.0396 102.048C60.8856 103.098 42.2283 112.044 41.2164 112.588V112.611ZM24.0998 112.887C29.0899 113.025 35.2911 113.194 40.7029 112.994C38.3343 114.228 37.1078 118.138 39.7217 119.732C18.1592 119.219 14.7481 120.575 13.399 118.099C13.0674 117.455 12.929 116.728 13.0004 116.007C13.5677 112.258 14.1272 112.603 24.0998 112.864V112.887ZM15.9669 119.786C16.1509 119.878 39.7294 120.108 40.7029 120.108C40.8025 120.108 52.7451 112.987 60.1267 108.61C60.717 108.679 65.6611 108.939 66.9719 108.985C64.7566 110.434 46.3522 122.131 44.8038 123.496C38.4493 123.044 7.42776 122.392 7.34344 122.392C6.47531 122.334 5.60749 122.509 4.82922 122.898C5.35813 122.369 10.4479 118.49 12.6862 116.766C12.8855 118.812 14.5642 120.023 15.9669 119.793V119.786ZM68.0143 115.555C65.6228 117.088 46.7584 129.145 45.8769 129.697C44.6275 129.214 43.7307 128.647 43.5773 126.961C43.2554 123.488 45.8233 123.411 66.6882 109.453C64.3197 111.914 65.5001 115.455 68.0143 115.562V115.555ZM46.4135 135.676C47.7089 133.875 47.3103 130.969 45.1717 129.927C45.9383 129.927 44.7578 130.939 56.2404 123.473C60.9086 120.522 66.6039 116.919 67.3398 116.413C67.7787 116.516 68.1833 116.731 68.5139 117.037C68.8445 117.344 69.0897 117.731 69.2255 118.161C70.1913 121.097 66.7342 123.274 64.1664 125.021C59.9504 127.911 49.334 134.089 46.4135 135.676ZM44.8268 129.613C23.5096 128.202 6.74555 127.16 6.06334 126.991C5.68188 126.934 5.3202 126.784 5.00954 126.555C4.69888 126.326 4.44859 126.025 4.2803 125.678C4.11201 125.331 4.03077 124.948 4.04361 124.563C4.05644 124.177 4.16297 123.8 4.35398 123.465C4.63759 123.549 4.35398 122.699 7.34344 122.653C8.77686 122.653 40.7105 123.542 44.5662 123.687C42.5655 125.803 43.0408 128.555 44.8268 129.643V129.613ZM9.63537 133.622C8.79219 133.568 8.10231 133.537 7.45076 133.507C8.44725 133.146 10.5169 132.28 11.3447 131.851C11.0146 132.64 10.4064 133.281 9.63537 133.652V133.622ZM45.8999 136.366C53.0942 132.432 60.0814 128.132 66.8339 123.48C67.2861 123.733 68.6659 124.569 68.7885 125.412C68.9648 126.616 68.0603 127.865 67.6617 128.348C67.1022 129.03 48.7438 141.218 47.6323 141.923C47.2276 142.178 46.7813 142.359 46.3139 142.46C49.127 141.318 49.8629 137.002 45.8999 136.397V136.366Z" fill="black"/>
</svg>
