<svg width="40" height="35" viewBox="0 0 40 35" fill="none" xmlns="http://www.w3.org/2000/svg">
<path d="M37.7833 15.8444C38.1744 18.1805 33.6771 23.3575 24.0662 27.7165C9.93455 33.3505 4.81284 30.688 4.3365 29.4471C3.91974 28.3614 5.90011 23.1663 16.0886 17.4107C26.277 11.6552 37.5323 14.5089 37.7833 15.8444Z" fill="#344C3D"/>
<path d="M7.78739 0.582414C8.14339 0.406966 8.5174 0.270704 8.90283 0.176024C9.33386 0.0701424 9.77616 0.0170055 10.22 0.0177801L10.2325 0.017802C10.5967 0.0184375 10.9599 0.0546883 11.3169 0.126037L12.3148 0.325431L12.4 0.345853C13.2479 0.549122 14.0777 0.821357 14.8812 1.15984L15.0768 1.24224L16.9176 2.15744L18.4514 3.0721L20.3202 4.3807L22.2871 5.73936L23.3576 6.48129C24.052 6.96259 24.7073 7.49815 25.3172 8.08294L25.8114 8.55686L26.731 9.47045L26.9708 9.70863C27.0152 9.75278 27.0559 9.80054 27.0925 9.85142L27.2201 10.0289C27.2662 10.093 27.2925 10.1691 27.2958 10.248C27.3008 10.3642 27.2554 10.477 27.1713 10.5574L27.1514 10.5765C27.0766 10.6481 26.98 10.6927 26.877 10.7033L26.3952 10.7527L25.4748 10.7909L24.4256 10.8344L23.373 10.9237C22.1398 11.0284 20.9229 11.2757 19.7467 11.6609L19.0501 11.889L17.5137 12.4943L16.8991 12.7972L16.2844 13.1002L14.5961 14.0249C13.8785 14.4179 13.1921 14.8654 12.543 15.3635L10.7508 16.7384L9.72546 17.497C9.58932 17.5977 9.46049 17.708 9.33993 17.8269L8.5092 18.6465C8.36916 18.7846 8.18026 18.8619 7.98354 18.8616L7.89099 18.8614C7.75357 18.8612 7.62179 18.8067 7.5243 18.7099C7.42552 18.6117 7.37007 18.4782 7.37032 18.3389L7.37047 18.2525L7.37153 17.6445C7.37259 17.0373 7.33012 16.4308 7.24445 15.8297L7.06977 14.604L6.81255 12.8029L6.51605 11.5981L6.45969 11.3702C6.44752 11.3209 6.43098 11.2729 6.41026 11.2266L6.38037 11.1597C6.25584 10.8814 5.9742 10.707 5.66949 10.7196C5.55489 10.7244 5.44295 10.7555 5.34237 10.8106L5.08153 10.9536C4.95722 11.0217 4.84044 11.1027 4.73313 11.1954L4.31148 11.5593L3.08162 12.4691L2.28547 13.0581C2.00383 13.2665 1.66261 13.3786 1.31228 13.378L1.21318 13.3778C1.02728 13.3775 0.843968 13.3343 0.677509 13.2515L0.587423 13.2067C0.411866 13.1195 0.269353 12.9776 0.181273 12.8024C0.0723076 12.5858 0.0547601 12.3344 0.132557 12.1047L0.319619 11.5523L0.34462 11.468C0.56136 10.7374 0.830028 10.0231 1.14857 9.33079L1.979 7.52582L3.09383 5.47725L3.61708 4.57436C4.08745 3.76272 4.6642 3.0176 5.33201 2.35878L5.38295 2.30852C5.70311 1.99267 6.04525 1.69991 6.4068 1.43243L6.54277 1.33185C6.90928 1.0607 7.29936 0.82293 7.70831 0.621387L7.78739 0.582414Z" fill="#344C3D"/>
</svg>
