<svg width="150" height="130" viewBox="0 0 150 130" fill="none" xmlns="http://www.w3.org/2000/svg">
<path d="M141.686 59.4163C143.153 68.1767 126.288 87.5903 90.2473 103.937C37.2536 125.064 18.0473 115.08 16.261 110.426C14.6981 106.355 22.1245 86.8733 60.3312 65.29C98.5379 43.7067 140.745 54.4079 141.686 59.4163Z" fill="#F5F4EE"/>
<path d="M29.2033 2.18406C30.5384 1.52613 31.9409 1.01514 33.3862 0.660091C35.0026 0.263035 36.6612 0.0637708 38.3256 0.0666757L38.3726 0.0667577C39.7381 0.069141 41.1001 0.205082 42.4391 0.472638L46.1812 1.22037L47.4561 1.52601C49.9997 2.13582 52.4892 2.95253 54.8998 3.96798L56.5387 4.6584L63.4417 8.0904L69.1933 11.5204L76.2015 16.4277L83.5771 21.5226L88.374 24.8472C90.4574 26.2911 92.4231 27.8978 94.2527 29.6522L96.7934 32.0883L100.242 35.5143L101.141 36.4074C101.308 36.573 101.46 36.7521 101.597 36.9429L102.076 37.6086C102.249 37.8489 102.347 38.1344 102.36 38.43C102.378 38.866 102.208 39.2888 101.893 39.5904L101.818 39.662C101.538 39.9304 101.176 40.0977 100.789 40.1373L98.9826 40.3228L95.5311 40.4659L91.5967 40.6291L86.2575 41.0822C82.5578 41.3961 78.9071 42.1382 75.3785 43.2937L71.4385 44.5839L65.6771 46.8538L63.3721 47.9897L61.0671 49.1257L53.9277 53.0362C51.7748 54.2153 49.7157 55.5579 47.7682 57.052L40.3163 62.7693L36.4711 65.614C35.9606 65.9916 35.4774 66.405 35.0254 66.851L31.9101 69.9244C31.385 70.4425 30.6766 70.7324 29.9389 70.7311L29.5918 70.7305C29.0765 70.7296 28.5823 70.5253 28.2168 70.1621C27.8463 69.7941 27.6384 69.2933 27.6393 68.7711L27.6399 68.4471L27.6439 66.1671C27.6479 63.8901 27.4886 61.6157 27.1673 59.3614L26.5123 54.7653L25.5477 48.0109L24.4358 43.4931L24.2245 42.6382C24.1788 42.4535 24.1168 42.2733 24.0391 42.0997L23.927 41.8491C23.46 40.8052 22.4039 40.1513 21.2612 40.1987C20.8315 40.2166 20.4117 40.3333 20.0345 40.54L19.0564 41.076C18.5902 41.3314 18.1523 41.6354 17.7499 41.9827L16.1687 43.3474L11.5567 46.7593L8.57119 48.968C7.51504 49.7493 6.23545 50.17 4.9217 50.1677L4.55008 50.167C3.85297 50.1658 3.16554 50.0037 2.54132 49.6934L2.20351 49.5254C1.54517 49.1981 1.01074 48.6661 0.680443 48.0093C0.271824 47.1967 0.206021 46.2542 0.497759 45.3927L1.19924 43.3213L1.53714 42.1822C2.18736 39.9902 2.99336 37.8475 3.94898 35.7705L7.42193 28.2219L11.6025 20.5398L13.5647 17.1539C15.3286 14.1102 17.4914 11.316 19.9957 8.84545L20.1867 8.65696C21.3873 7.47252 22.6703 6.37467 24.0261 5.37164L24.536 4.99445C25.9105 3.97764 27.3732 3.08599 28.9068 2.33021L29.2033 2.18406Z" fill="#F5F4EE"/>
</svg>
