<svg width="150" height="150" viewBox="0 0 150 150" fill="none" xmlns="http://www.w3.org/2000/svg">
<path d="M108.472 36.7498C109.69 37.5171 110.655 38.6256 111.247 39.9373C112.042 41.7981 112.601 43.7506 112.912 45.7498C112.453 45.7619 111.996 45.8197 111.547 45.9223C111.495 45.9223 111.195 46.0798 111.142 46.2448C110.902 47.0763 110.719 47.9233 110.595 48.7798L95.595 48.8698C95.4225 48.8698 95.445 49.0723 95.595 49.0798C95.595 49.0798 109.29 49.2898 110.595 49.2973C110.265 52.0273 110.542 55.0273 112.477 56.9623C114.3 58.7623 120.495 59.0173 122.797 57.2998C124.71 55.8673 125.182 51.7273 125.047 49.2973C125.497 49.2973 135.637 49.1173 136.642 49.0798C136.67 49.0798 136.697 49.0688 136.717 49.0491C136.736 49.0294 136.747 49.0027 136.747 48.9748C136.747 48.947 136.736 48.9203 136.717 48.9006C136.697 48.8809 136.67 48.8698 136.642 48.8698C134.932 48.8698 125.025 48.7948 125.025 48.7948C124.822 46.5448 124.275 46.3198 124.275 46.2148C124.269 46.1454 124.241 46.0797 124.195 46.0271C124.149 45.9746 124.088 45.9379 124.02 45.9223C123.368 45.7948 122.705 45.727 122.04 45.7198C123.09 44.0323 123.99 39.4423 125.64 36.3673C128.085 31.7848 137.287 36.1498 137.137 32.0998C136.957 27.5998 131.962 25.0723 126.6 27.4573C121.507 29.7073 120.18 40.2073 120.09 45.6898C118.552 45.6898 119.295 45.7348 117.09 45.6898C119.017 43.1248 121.47 34.5748 121.042 28.5973C120.553 24.6304 118.883 20.9019 116.25 17.8948C113.94 15.3073 111.232 14.2123 109.192 16.2898C106.192 19.2898 108.952 22.6423 111.517 26.0398C114.337 29.7898 115.395 31.6573 115.777 36.9973C115.957 39.8945 115.901 42.8015 115.612 45.6898H114.78C115.425 43.5823 114.592 38.9398 113.985 36.7573C113.115 33.6748 111.63 30.5698 109.275 28.4323C106.493 26.0301 103.11 24.4305 99.4875 23.8048C97.275 23.4298 95.385 23.5723 94.3575 24.1873C93.9796 24.3839 93.6879 24.7132 93.5383 25.112C93.3888 25.5108 93.392 25.9508 93.5475 26.3473C94.7925 30.4198 103.597 33.7498 108.472 36.7498ZM126.75 27.9373C131.767 25.6873 136.387 28.0498 136.545 32.1298C136.665 35.2573 127.642 31.3798 125.182 36.1723C123.472 39.4873 122.715 44.1223 121.68 45.7273H121.147C121.897 42.4198 123.735 35.0623 125.895 32.4598C128.655 29.0923 133.462 31.0573 133.672 31.0048C133.755 31.0048 133.837 30.8698 133.59 30.7798C130.59 29.6923 127.537 29.7148 125.497 32.1298C123.045 35.0248 121.5 41.9998 120.855 45.7498H120.21C120.412 40.4998 121.882 30.0748 126.75 27.9373ZM116.16 36.9898C115.86 31.6948 114.885 29.7523 111.922 25.7398C109.492 22.4773 106.89 19.3648 109.575 16.6423C111.405 14.7823 113.79 15.8923 115.86 18.2323C118.395 21.1665 119.993 24.792 120.45 28.6423C120.937 34.7173 118.462 43.4398 116.7 45.6973H116.302C117.105 42.2631 117.624 38.7689 117.855 35.2498C118.027 32.2498 117.975 30.1648 117.105 27.5548C116.39 25.5676 115.398 23.6915 114.158 21.9823C113.565 21.1393 112.914 20.3397 112.207 19.5898C112.19 19.5679 112.164 19.5541 112.136 19.5513C112.107 19.5484 112.079 19.5569 112.057 19.5748C112.036 19.5927 112.022 19.6186 112.019 19.6467C112.016 19.6748 112.025 19.7029 112.042 19.7248C112.23 19.9211 112.406 20.129 112.567 20.3473C114.907 23.3473 117.217 27.7273 117.397 31.5973C117.577 35.4673 116.805 41.9248 116.092 45.7498H115.882C116.214 42.8423 116.307 39.9125 116.16 36.9898ZM123.802 46.5598C125.04 47.6923 124.65 55.2148 122.407 56.8948C120.165 58.5748 114.322 58.1773 112.732 56.6398C110.227 54.2323 110.482 49.7248 111.337 46.3798C111.391 46.4499 111.464 46.5022 111.547 46.5298C112.124 46.6629 112.711 46.7432 113.302 46.7698C112.568 49.4916 112.697 52.3741 113.67 55.0198C113.706 55.0954 113.77 55.1537 113.849 55.1818C113.928 55.2099 114.014 55.2056 114.09 55.1698C114.166 55.134 114.224 55.0697 114.252 54.9909C114.28 54.9121 114.276 54.8254 114.24 54.7498C113.295 52.8598 113.04 48.6598 113.587 46.8223C115.927 46.9273 122.19 46.9723 123.802 46.5598ZM108.952 28.8148C114.037 33.3148 115.342 43.2823 114.555 45.7123H114.09C113.984 43.6283 113.621 41.5652 113.01 39.5698C111.39 34.3198 108.675 31.0948 104.512 28.6648C102.338 27.4211 100.011 26.4655 97.59 25.8223C97.5621 25.8154 97.5327 25.8197 97.5081 25.8345C97.4835 25.8493 97.4657 25.8732 97.4587 25.9011C97.4518 25.9289 97.4562 25.9584 97.4709 25.983C97.4857 26.0076 97.5097 26.0254 97.5375 26.0323C100.364 26.9284 103.046 28.2268 105.502 29.8873C108.226 31.7005 110.353 34.2786 111.615 37.2973C112.813 39.9657 113.572 42.8097 113.865 45.7198H113.16C112.883 43.6613 112.348 41.6456 111.57 39.7198C110.962 38.335 109.964 37.1571 108.697 36.3298C103.74 33.2773 95.1975 29.9323 94.0575 26.1823C93 22.7398 103.192 23.6548 108.952 28.8148ZM44.1 67.4323C34.11 63.9598 25.155 62.4073 19.5825 61.0048C19.5135 60.9854 19.4413 60.9802 19.3702 60.9894C19.2991 60.9986 19.2306 61.022 19.1688 61.0583C19.1069 61.0946 19.0531 61.143 19.0104 61.2006C18.9678 61.2583 18.9372 61.3239 18.9205 61.3936C18.9039 61.4633 18.9015 61.5357 18.9134 61.6064C18.9254 61.6771 18.9515 61.7446 18.9902 61.805C19.0289 61.8653 19.0794 61.9172 19.1386 61.9576C19.1979 61.9979 19.2647 62.0259 19.335 62.0398C22.92 62.9023 28.335 63.8923 34.1925 65.2498C43.8675 67.4998 44.0775 68.1673 44.235 67.7023C44.2518 67.6486 44.2471 67.5904 44.222 67.5401C44.1968 67.4897 44.1531 67.4511 44.1 67.4323ZM123.262 73.4998C123.262 73.4821 123.259 73.4645 123.252 73.4482C123.245 73.4318 123.235 73.4169 123.223 73.4044C123.21 73.3918 123.196 73.3819 123.179 73.3751C123.163 73.3683 123.145 73.3648 123.127 73.3648C116.55 73.3648 110.152 74.8648 106.53 75.2023C106.486 75.206 106.443 75.2186 106.404 75.2392C106.365 75.2599 106.33 75.2882 106.302 75.3225C106.274 75.3568 106.253 75.3963 106.241 75.4388C106.229 75.4813 106.225 75.5259 106.23 75.5698C106.234 75.6142 106.246 75.6574 106.267 75.6969C106.287 75.7365 106.316 75.7715 106.35 75.8001C106.384 75.8287 106.423 75.8502 106.466 75.8635C106.508 75.8767 106.553 75.8814 106.597 75.8773C109.252 75.6148 113.85 74.6098 118.155 74.0548C122.932 73.4998 123.27 73.8373 123.262 73.4998ZM100.605 89.1073C100.611 89.095 100.615 89.0816 100.617 89.0677C100.618 89.0539 100.616 89.0399 100.612 89.0267C100.608 89.0134 100.601 89.0011 100.592 88.9905C100.583 88.9799 100.572 88.9712 100.56 88.9648L100.372 88.8673L100.327 89.0923C100.455 89.1523 100.552 89.2498 100.605 89.1073Z" fill="black"/>
<path d="M146.16 90.9824C144.232 90.5849 139.47 90.7424 137.505 90.9149C139.125 85.3799 140.797 78.1649 141.472 74.1899C141.717 73.09 141.823 71.9637 141.787 70.8374C141.763 70.7363 141.718 70.6414 141.654 70.5588C141.591 70.4761 141.511 70.4076 141.42 70.3574C138.42 68.4749 106.987 72.6074 104.797 73.6949C104.145 74.0174 103.56 75.6449 103.297 76.3799C101.355 73.1849 101.557 72.4274 99.39 67.3799C98.0393 64.0923 96.3262 60.9654 94.2825 58.0574C94.335 57.6599 96.4125 42.1424 94.185 37.9949C92.685 35.2199 84.5625 34.2449 81.435 33.9824C81.435 33.8174 81.045 30.9824 80.88 29.6999C83.52 27.4949 84.63 23.4374 81.765 22.7549C79.7325 22.2749 71.7075 20.7449 65.73 22.2899C61.98 23.2649 58.98 25.4549 58.725 29.7899C58.6243 31.436 58.725 33.0883 59.025 34.7099C55.1475 35.1374 48.4725 35.7749 45.0675 37.0574C40.6875 38.7074 42.5325 57.8699 42.9975 59.4224C42.7425 60.0524 42.5025 60.6899 42.285 61.2824C31.3725 58.4999 6.945 53.3099 5.8575 53.4074C5.57424 53.404 5.29452 53.4707 5.04328 53.6015C4.79203 53.7324 4.57705 53.9234 4.4175 54.1574C4.125 54.2249 4.02 54.6374 3.9675 54.9074C3.2175 58.8974 4.575 82.7249 4.815 86.7674C5.2125 88.2224 16.77 91.3799 18.27 91.7924C18.345 93.7649 18.7425 103.56 18.825 105.57C18.1725 105.451 17.5266 105.298 16.89 105.112C15.555 104.565 10.44 109.545 10.89 109.132C8.9325 110.872 30.2325 116.595 31.935 116.115C33.6375 115.635 37.005 112.417 36.435 110.625C36.2774 110.306 36.0116 110.053 35.685 109.912C34.0725 109.065 29.805 108.022 28.0275 107.595C28.2 103.965 28.2 98.0099 28.1925 94.3949C30.3 94.9199 42.2625 97.8149 44.4225 97.7774C44.5773 97.7796 44.73 97.7408 44.865 97.6649C45.555 97.5674 46.365 97.3949 46.4325 96.6899C46.4325 96.4799 46.605 94.6499 46.8225 91.9349C52.11 93.9524 58.5225 93.8024 59.6625 93.3374C59.9698 93.1892 60.2296 92.958 60.4125 92.6699C60.465 92.7374 60.4875 92.7224 60.885 92.7824C62.385 93.0224 64.785 93.2474 66.135 92.5424C68.0475 92.8499 73.59 93.2924 74.0025 91.4399C74.055 91.1924 74.13 90.6899 74.205 90.0824C79.755 90.3824 99.465 90.2474 99.54 90.2474L99.0825 92.3099C99.071 92.2929 99.0552 92.2792 99.0368 92.27C99.0185 92.2608 98.998 92.2565 98.9775 92.2574C98.9775 92.1974 98.9775 92.2124 98.9775 92.2574C95.9063 92.0154 92.8246 91.9353 89.745 92.0174C88.65 92.0699 85.7625 92.2049 85.71 93.2699C85.3265 94.1751 85.2708 95.1856 85.5525 96.1274C85.7175 96.7199 87.1125 97.6799 87.63 98.0324C84.6975 97.7399 82.9875 97.8524 82.1025 98.1674C81.892 98.2041 81.6958 98.2985 81.5357 98.44C81.3757 98.5816 81.258 98.7647 81.1958 98.9692C81.1337 99.1736 81.1294 99.3912 81.1835 99.5979C81.2377 99.8046 81.3481 99.9923 81.5025 100.14C82.5075 101.52 84.6 101.985 84.825 103.792C85.2525 107.22 76.5375 111.097 73.3575 112.455C74.955 110.355 79.2375 103.747 77.16 102.15C74.85 100.372 55.0425 99.5924 53.22 100.057C51.9375 100.387 42.51 107.355 42.6825 109.807C42.8025 111.405 52.08 112.972 53.805 113.272C55.7475 113.602 69.6075 115.762 71.265 114.705C71.6165 114.563 71.9358 114.352 72.2039 114.084C72.4719 113.816 72.6832 113.496 72.825 113.145C75.697 112.158 78.4612 110.881 81.075 109.335C85.2 106.777 87.51 103.612 83.43 100.95C82.9425 100.635 81.6075 99.6749 81.8025 99.1349C82.2225 97.9424 88.02 98.3849 88.1025 98.3849C90.795 100.14 95.9475 102.847 98.985 103.635C102.195 104.482 117.195 102.84 120.817 102.382C121.23 103.882 121.627 105.277 121.89 106.132C121.327 106.177 119.722 106.32 119.272 106.672C119.025 106.867 119.032 107.197 119.43 107.422C119.43 109.935 119.122 117.45 119.872 120.84C120.157 122.107 120.487 122.632 121.8 123.09C124.282 123.892 129.052 123.607 131.55 122.94C133.102 122.52 133.305 122.19 133.552 121.365C134.407 118.56 134.362 110.28 134.302 107.34C134.351 107.305 134.39 107.26 134.417 107.207C134.444 107.154 134.458 107.095 134.458 107.036C134.458 106.977 134.444 106.918 134.417 106.866C134.39 106.813 134.351 106.767 134.302 106.732C133.748 106.475 133.15 106.323 132.54 106.282C132.645 105.442 133.207 100.747 133.29 99.9224C133.682 99.6873 134.032 99.3881 134.325 99.0374C134.783 98.4802 135.082 97.8087 135.187 97.0949C135.937 96.1124 137.017 92.4449 137.37 91.2449C140.715 91.3874 145.62 91.1924 146.077 91.2449C146.112 91.2559 146.15 91.2525 146.182 91.2357C146.215 91.2188 146.239 91.1898 146.25 91.1549C146.261 91.1201 146.258 91.0824 146.241 91.05C146.224 91.0177 146.195 90.9934 146.16 90.9824ZM44.7825 107.167C45.285 106.612 45.8775 106.035 46.5075 105.45C49.185 102.975 52.59 100.485 53.3325 100.297C55.1325 99.8324 74.9025 101.047 76.9125 102.547C77.25 102.802 77.3175 103.297 77.25 103.89C76.98 106.245 74.52 110.13 73.0875 112.027C71.4675 110.632 46.9275 107.46 44.7825 107.167ZM81.5325 34.5224C84.3975 34.7924 92.43 35.7149 93.81 38.2199C95.76 41.7449 94.56 53.7674 94.08 57.7199C93.66 57.1574 93.225 56.6249 92.7825 56.1374C90.24 53.3474 85.875 51.9449 82.1775 51.2324C79.8023 50.8188 77.4062 50.5359 75 50.3849C74.925 50.3849 75.045 50.4974 74.4525 49.2824C73.5675 47.4599 73.515 47.4899 73.605 47.4374C74.5884 47.3851 75.5624 47.219 76.5075 46.9424C79.0425 46.1924 80.55 44.6924 81.2625 41.0474C81.6494 38.887 81.7301 36.6829 81.5025 34.4999L81.5325 34.5224ZM75.075 50.6174C75.5475 50.6849 75.675 50.6774 75.7125 50.6999C75.7125 50.8874 77.355 59.6999 71.73 60.1049C67.08 60.4874 64.02 53.9624 62.37 49.6049C62.97 49.5074 63.45 49.4399 63.7725 49.3949C63.93 52.8149 68.85 59.0174 71.58 58.5824C74.6475 58.0799 76.155 53.4149 75.075 50.6174ZM63.8775 36.8174C63.9447 36.4828 64.0945 36.1703 64.3132 35.9084C64.532 35.6464 64.8127 35.4433 65.13 35.3174C66.63 34.9499 66.63 36.8174 67.8225 36.7124C69.3225 36.6149 67.65 33.1349 68.94 31.0124C70.3425 28.6724 76.0275 33.4049 80.625 29.8949C81.18 33.8474 81.7875 36.9224 80.94 40.9574C80.19 44.4974 78.795 45.8024 76.3875 46.5074C75.3982 46.7352 74.3965 46.9055 73.3875 47.0174C73.307 47.0629 73.2393 47.128 73.1908 47.2067C73.1423 47.2854 73.1145 47.3751 73.11 47.4674C73.11 47.7299 73.86 49.0724 74.5575 50.6399C75.6 53.0999 74.2425 57.5699 71.4975 57.9974C69.5475 58.3049 65.73 53.9324 64.6425 50.8424C64.1625 49.4774 64.305 49.4249 65.1525 44.0924C66.345 44.1749 66.5925 41.8424 66.6525 40.6349C66.6649 40.3789 66.576 40.1284 66.405 39.9374C65.865 39.3449 65.4225 40.0349 64.3725 38.7224C64.1434 38.4678 63.9788 38.1618 63.8927 37.8303C63.8065 37.4988 63.8013 37.1514 63.8775 36.8174ZM59.13 35.2499C60.135 39.8399 62.775 43.0274 64.59 43.9124C64.26 46.0199 63.885 48.3674 63.7875 49.0799C59.4598 49.297 55.1918 50.1825 51.135 51.7049C49.3335 52.3948 47.6546 53.3697 46.1625 54.5924C45.3375 50.3174 47.46 41.9624 47.1975 39.5924C47.0775 38.5874 46.7925 37.5224 45.81 37.3049C49.17 36.2474 55.395 35.6474 59.13 35.2499ZM45.36 37.4999C45.5392 37.506 45.7154 37.5484 45.8778 37.6244C46.0402 37.7005 46.1855 37.8087 46.305 37.9424C46.6431 38.4527 46.8135 39.0557 46.7925 39.6674C46.9575 41.9174 44.625 50.2124 45.9375 54.8099C44.6733 55.9954 43.7158 57.4702 43.1475 59.1074C42.5475 55.4549 41.55 38.8274 45.36 37.4999ZM18.4125 71.6699C18.4725 71.3174 19.1175 71.1599 19.47 71.0999C22.0725 70.6724 27.48 72.1574 27.36 73.9649C27.18 76.6424 28.005 109.087 27.3 110.28C26.46 111.712 21.87 110.917 20.04 109.642C19.2075 109.065 19.2225 108.57 19.245 108.667C18.6075 83.1299 18.3075 72.2549 18.4125 71.6699ZM35.7975 110.872C36.18 112.147 33.1725 115.08 31.7775 115.47C30.3825 115.86 9.8175 110.535 11.16 109.32C10.5375 109.882 14.505 106.23 16.2525 105.645C16.3918 105.576 16.551 105.557 16.7025 105.592C16.905 105.682 17.7 105.885 18.8475 106.155C18.915 107.737 18.96 108.675 18.96 108.675C19.4025 110.88 26.46 112.545 27.69 110.512C27.8783 109.792 27.979 109.052 27.99 108.307C29.1375 108.592 35.025 110.025 35.7975 110.872ZM44.4225 97.1399C42.45 97.2149 30.1725 94.3349 28.1925 93.8699C28.155 85.0799 27.975 75.2249 28.065 74.0099C28.245 71.2499 21.225 69.7499 18.75 70.5599C18.5047 70.6138 18.2793 70.7349 18.0991 70.9098C17.919 71.0847 17.7911 71.3064 17.73 71.5499C17.565 72.5474 18.21 90.2999 18.2475 91.3649C17.025 91.0349 5.5725 87.9824 5.1 86.7599C4.9725 83.9999 3.75 57.3149 4.62 54.7874C8.7 55.8074 43.545 62.8349 45.9975 64.5374C46.6125 66.2249 45.21 94.7549 44.4225 97.1399ZM46.185 96.6974C46.185 97.1999 45.5175 97.3724 45.0225 97.4474C45.8325 95.5049 47.445 65.9474 46.62 64.2074C45.795 62.4674 8.1675 55.1549 4.65 54.1724C4.80643 54.0032 4.99689 53.8689 5.20886 53.7784C5.42084 53.6879 5.64955 53.6433 5.88 53.6474C6.9225 53.5724 45.3975 62.1674 47.6325 63.3974C48.0075 64.4774 47.6325 71.9999 47.58 73.2374C47.445 76.2224 46.215 96.2924 46.185 96.6974ZM66.435 91.6199C65.5575 92.7899 62.445 92.6474 60.9825 92.5124H60.6225C61.2897 91.171 61.6679 89.7043 61.7325 88.2074C62.4825 87.9974 65.2275 87.3599 65.6475 88.0349C65.775 88.2299 65.37 88.4624 65.16 88.5749C64.6054 88.8322 64.0245 89.0284 63.4275 89.1599C63.339 89.1768 63.2608 89.2282 63.2102 89.3028C63.1595 89.3773 63.1406 89.4689 63.1575 89.5574C63.1744 89.646 63.2258 89.7241 63.3003 89.7748C63.3749 89.8254 63.4665 89.8443 63.555 89.8274C64.305 89.7224 66.3525 89.4374 67.08 89.6849C66.7803 90.1009 66.3499 90.4046 65.8575 90.5474C65.1563 90.5427 64.456 90.6004 63.765 90.7199C63.6654 90.7387 63.5763 90.7935 63.5145 90.8739C63.4528 90.9542 63.4227 91.0544 63.4302 91.1555C63.4376 91.2565 63.4819 91.3513 63.5547 91.4217C63.6276 91.4922 63.7238 91.5334 63.825 91.5374C64.5868 91.5596 65.3471 91.4557 66.075 91.2299C66.2647 91.2378 66.4509 91.2837 66.6225 91.3649C66.5744 91.4659 66.5023 91.5534 66.4125 91.6199H66.435ZM73.53 91.3574C73.4982 91.4743 73.4387 91.5817 73.3564 91.6705C73.2741 91.7593 73.1716 91.8269 73.0575 91.8674C71.67 92.6174 68.1675 92.4824 66.6075 92.3249C67.185 91.8824 67.5225 91.1624 66.9375 90.7649C68.0925 90.0149 67.9725 89.2124 67.215 88.9799C66.7244 88.8611 66.2173 88.8256 65.715 88.8749C66.1875 88.5224 66.36 88.1249 66.075 87.6974C65.6625 87.1124 64.575 87.1874 63.9 87.2999C63.5788 84.3306 63.4136 81.3465 63.405 78.3599C65.4075 79.8149 72.045 79.8599 74.3625 78.4799C74.475 80.9999 73.7175 90.2624 73.5 91.3574H73.53ZM67.095 89.6549C67.095 89.6549 67.0725 89.6699 67.0725 89.6549H67.095ZM83.19 89.8199C84.5775 85.7624 84.7725 77.1674 84.69 72.8699C85.8525 74.7374 92.19 83.6924 92.235 83.7674C92.3889 84.003 92.5702 84.2195 92.775 84.4124C94.2862 85.7935 95.9825 86.9572 97.815 87.8699C99.7725 88.9049 99.93 88.8524 99.915 88.9349L99.6525 90.0599C99.525 90.0524 84.3375 89.8199 83.1675 89.8199H83.19ZM86.4225 93.1874C88.035 92.0624 99 92.5724 99.12 92.4974V92.5799C98.07 97.6049 97.665 99.4199 97.5375 100.08C97.605 99.7874 98.0175 97.8299 98.49 95.6624C98.82 94.0724 99.24 92.1824 99.6675 90.1799C99.8625 89.2649 99.99 88.6799 99.9975 88.6349C97.9425 87.5474 94.8075 85.6724 93.165 84.0149C92.7525 83.5949 84.78 72.5474 84.705 72.4199C84.63 72.2924 84.63 68.9999 84.5475 68.8499C84.5318 68.8329 84.5112 68.8212 84.4886 68.8163C84.4659 68.8114 84.4423 68.8136 84.421 68.8226C84.3997 68.8317 84.3816 68.847 84.3694 68.8667C84.3571 68.8864 84.3512 68.9093 84.3525 68.9324C84.2775 68.9324 84.3525 84.9674 82.965 89.7974L74.325 89.8799C74.3775 89.4599 74.43 88.9724 74.49 88.4474C77.97 88.8899 79.5525 85.0724 78.63 81.9599C78.0825 80.2499 76.6725 79.9874 75.06 80.8124C75.135 79.8138 75.135 78.811 75.06 77.8124C75.1296 77.6401 75.1416 77.4499 75.0943 77.2701C75.047 77.0904 74.9429 76.9307 74.7975 76.8149C73.68 75.7649 70.5525 75.6524 69.03 75.6524C67.5075 75.6524 64.3725 75.7724 63.2625 76.8149C63.1653 76.8901 63.088 76.9879 63.0375 77.0999C62.4675 78.1274 63.5625 87.1349 63.6975 87.3299C63.0443 87.46 62.4004 87.6328 61.77 87.8474V86.6474C61.725 84.0299 53.355 82.5749 53.07 81.0824C52.9725 80.5724 52.815 79.4324 52.635 78.0824C51.6225 70.6724 51.7725 70.9574 51.6075 70.9574C51.5796 70.9574 51.5529 70.9685 51.5332 70.9882C51.5136 71.0079 51.5025 71.0346 51.5025 71.0624C51.5025 71.2649 52.3125 79.4249 52.605 81.1574C52.8975 82.8899 61.2075 84.5699 61.245 86.6474C61.245 88.2674 60.885 92.2874 59.4825 92.8649C58.635 93.2249 52.08 93.5549 46.8525 91.7174C46.965 90.2624 49.05 64.2149 48.045 63.0599C47.6625 62.6174 43.17 61.4924 42.6 61.3499C44.85 56.2499 46.515 52.0499 62.16 49.5974C62.5945 51.0537 63.1257 52.4794 63.75 53.8649C65.34 57.2624 68.0325 60.9299 71.76 60.6149C76.0425 60.2474 76.7325 55.6049 76.05 51.3674C76.005 51.0674 75.96 50.8724 75.9225 50.6999C77.9803 50.9058 80.0257 51.2213 82.05 51.6449C85.5825 52.3949 89.925 53.8199 92.3475 56.5049C94.965 59.3849 97.2525 63.8324 98.8575 67.3874C101.167 72.5024 101.152 73.8224 103.14 76.7699C101.742 81.1798 100.571 85.6581 99.63 90.1874C99.33 91.5899 98.88 93.7274 98.4525 95.6699C97.83 98.6699 97.455 100.567 97.4925 100.17C97.425 100.575 97.4925 100.56 97.4925 100.657C95.0474 99.5669 92.6882 98.2933 90.435 96.8474C89.6475 96.3224 85.6275 93.7499 86.4225 93.1724V93.1874ZM75 82.3424C75 81.9524 75.045 81.5924 75.06 81.2174C76.4175 80.6699 77.625 80.7524 77.9925 82.1699C78.7425 84.7424 77.5575 88.1699 74.535 88.1699C74.535 87.8099 74.6625 86.7824 74.6775 86.6699C78.1275 87.1349 78.105 80.8199 75 82.3424ZM74.7075 86.3474C74.8125 85.1624 74.9025 83.9099 74.9775 82.7324C75.3366 82.6215 75.7209 82.6215 76.08 82.7324C76.9725 83.0549 76.83 86.1524 74.67 86.3474H74.7075ZM99.24 102.99C96.354 102.046 93.562 100.836 90.9 99.3749C90.15 98.9774 86.265 96.8624 86.0025 96.0449C85.7757 95.315 85.7523 94.5371 85.935 93.7949C86.94 95.7524 93.315 99.0449 95.3625 100.012C96.2999 100.455 97.2673 100.831 98.2575 101.137C101.722 102.375 116.587 100.387 120.24 99.9374C120.285 100.095 120.6 101.302 120.72 101.737C117.54 102.105 102.225 103.777 99.2025 102.99H99.24ZM132.75 121.852C131.655 122.782 125.085 123.562 121.987 122.602C120.862 122.25 120.637 121.89 120.367 120.75C120.122 119.513 119.966 118.26 119.902 117C121.44 117.945 124.26 118.185 126.067 118.237C128.79 118.297 131.467 118.237 133.657 117C133.612 117.795 133.357 121.335 132.75 121.852ZM133.68 116.707C132.201 117.34 130.609 117.669 129 117.675C126.855 117.78 121.83 117.765 119.887 116.73C119.805 115.32 119.752 113.812 119.73 112.41C120.48 113.31 124.477 113.715 126.075 113.767C128.925 113.827 131.572 113.767 133.852 112.417C133.852 112.342 133.83 114.12 133.687 116.707H133.68ZM133.852 112.155C130.102 114.045 120.795 113.19 119.722 112.155V107.542C122.107 108.39 131.535 108.33 133.897 107.542C133.882 108.405 133.89 110.16 133.86 112.155H133.852ZM132.352 107.107C132.379 107.115 132.408 107.112 132.433 107.1C132.458 107.087 132.477 107.066 132.487 107.04C132.487 107.04 132.487 106.905 132.532 106.665C133.016 106.731 133.493 106.839 133.957 106.987C132.315 107.737 122.43 107.805 119.962 107.077C119.946 107.072 119.931 107.062 119.921 107.048C119.91 107.033 119.905 107.016 119.905 106.999C119.905 106.981 119.91 106.964 119.921 106.95C119.931 106.936 119.946 106.925 119.962 106.92C120.65 106.733 121.353 106.608 122.062 106.545C122.112 106.754 122.188 106.955 122.287 107.145C122.347 107.205 122.445 107.212 122.437 107.062C122.43 106.912 119.97 97.1999 119.595 95.0624C119.979 95.1904 120.388 95.2224 120.786 95.1557C121.185 95.089 121.561 94.9257 121.882 94.6799C122.707 96.9899 125.34 107.385 125.497 107.385C125.526 107.383 125.553 107.37 125.572 107.349C125.592 107.329 125.603 107.301 125.602 107.272L125.385 106.26H126.42C126.42 106.402 126.502 107.13 126.51 107.182C126.517 107.235 126.735 107.362 126.72 107.085C126.72 106.41 126.09 95.2274 126.075 95.0249C126.183 94.9729 126.296 94.9327 126.412 94.9049C126.495 95.3099 129.135 106.005 129.337 106.837C129.337 106.912 129.337 107.04 129.48 107.01C129.622 106.98 129.562 106.845 129.48 106.357L130.627 106.44V106.567C130.627 106.687 130.815 106.657 130.837 106.567C130.837 106.65 132.232 92.2574 132.337 91.1099C132.535 91.2598 132.762 91.366 133.004 91.4216C133.246 91.4771 133.497 91.4809 133.74 91.4324C133.725 91.5449 132.187 107.055 132.345 107.107H132.352ZM125.602 92.1974C125.513 91.476 125.198 90.8013 124.702 90.2699C125.73 90.5774 125.947 90.8024 126.202 91.5074C126.405 92.0691 126.46 92.6736 126.36 93.2624C126.259 93.6331 126.259 94.0243 126.36 94.3949C126.237 94.4232 126.117 94.4608 126 94.5074C125.535 93.1799 124.5 93.1949 124.5 91.8599C124.499 91.3773 124.428 90.8974 124.29 90.4349C124.653 91.0932 125.051 91.7316 125.482 92.3474C125.557 92.4449 125.7 92.3024 125.61 92.1974H125.602ZM125.977 101.662C126.015 102.03 126.307 105.217 126.382 106.027H125.31C125.085 105.015 124.747 103.515 124.365 101.91L125.977 101.662ZM125.932 101.085L124.222 101.31C124.072 100.687 123.915 100.057 123.757 99.4349C124.447 99.3374 125.122 99.2324 125.775 99.1274C125.805 99.4499 125.91 100.755 125.94 101.085H125.932ZM128.265 100.74C128.145 100.17 127.852 98.8799 127.83 98.8049C128.482 98.6924 130.702 98.3099 131.16 98.2199C131.16 98.5424 131.032 99.9074 131.002 100.252C130.275 100.41 129.345 100.575 128.25 100.74H128.265ZM130.972 100.74C130.837 102.682 130.627 105.93 130.62 106.11C130.23 106.11 129.817 106.095 129.382 106.065C129.202 105.157 128.43 101.52 128.377 101.272C129.39 101.07 130.26 100.89 130.98 100.717L130.972 100.74ZM132.405 90.4874C132.497 89.537 132.644 88.5929 132.847 87.6599C133.048 87.5999 133.259 87.5856 133.465 87.618C133.671 87.6505 133.868 87.7289 134.04 87.8474C133.995 88.79 133.895 89.7291 133.74 90.6599C133.672 90.9224 133.657 90.9899 133.485 91.0124C133.147 91.0349 132.465 90.7499 132.412 90.4649L132.405 90.4874ZM133.387 99.4274C133.455 98.8724 133.522 98.3099 133.582 97.7474C134.027 97.6542 134.463 97.5264 134.887 97.3649C134.651 98.2021 134.121 98.9262 133.395 99.4049L133.387 99.4274ZM134.64 96.7424C134.324 96.8684 133.997 96.9687 133.665 97.0424C133.8 95.7824 134.595 88.4474 134.595 87.9299C134.595 87.1799 133.26 86.9024 132.57 87.1799C132.337 87.2849 132.27 87.7274 132.202 88.1174C131.827 90.2099 131.385 95.4299 131.212 97.5524L127.695 98.1974C126.817 94.3724 126.892 94.5824 126.795 94.4849C126.728 94.4212 126.64 94.3838 126.547 94.3799C126.478 94.046 126.496 93.6998 126.6 93.3749C126.755 92.7263 126.734 92.048 126.54 91.4099C126.44 90.946 126.173 90.5349 125.79 90.2549C125.18 89.9315 124.521 89.7086 123.84 89.5949C123.804 89.5853 123.767 89.5843 123.731 89.5921C123.694 89.5999 123.661 89.6162 123.632 89.6397C123.603 89.6632 123.581 89.6931 123.566 89.7271C123.551 89.761 123.545 89.798 123.547 89.8349C123.564 89.8986 123.584 89.9613 123.607 90.0224C124.192 91.4174 123.787 92.0549 124.192 92.8874C124.597 93.7199 125.28 93.8474 125.527 94.8074C125.527 94.8824 125.737 98.3474 125.745 98.5574L123.622 98.8949C123.472 98.3249 122.445 94.2674 122.04 93.8699C121.29 93.1199 119.145 93.9599 119.04 94.6199C118.972 94.9949 120 99.0149 120.097 99.3974C116.235 99.9599 112.14 100.47 108.517 100.807C106.935 100.95 97.2675 101.835 97.8075 100.252C98.5575 96.7874 100.057 90.4274 100.357 89.0924V88.9874C100.357 88.8749 100.41 88.7624 100.357 89.0924C100.357 88.9799 100.402 88.9124 100.417 88.8749L102.292 81.6224C102.54 80.7299 104.242 74.6624 105.105 74.2349C107.017 73.2899 138.45 69.2249 141.105 71.0024C141.555 72.9299 136.027 95.8274 134.647 96.7499L134.64 96.7424Z" fill="black"/>
<path d="M73.8825 36.4197V35.8422C73.8825 35.7487 73.8454 35.6591 73.7793 35.593C73.7131 35.5269 73.6235 35.4897 73.53 35.4897C73.4358 35.4897 73.3454 35.5266 73.2781 35.5925C73.2108 35.6584 73.172 35.7481 73.17 35.8422V36.5172C73.1866 36.6064 73.237 36.6858 73.3106 36.7388C73.3842 36.7918 73.4755 36.8144 73.5653 36.8018C73.6552 36.7893 73.7368 36.7425 73.793 36.6714C73.8493 36.6002 73.876 36.5101 73.8675 36.4197H73.8825ZM121.815 82.5747C121.597 82.3647 121.29 82.1172 121.005 82.2072C120.532 82.3572 120.06 83.5572 119.857 84.0522C119.289 85.5294 118.837 87.0491 118.507 88.5972C118.815 89.3922 124.005 88.3497 124.71 88.0047C124.935 87.8997 124.905 87.6297 124.83 87.3897C124.088 85.6344 123.07 84.0089 121.815 82.5747ZM118.71 88.4997C118.845 87.8772 120.555 83.1072 121.14 82.6722C122.048 83.1897 123.87 86.3697 124.357 87.5697C123.682 87.8397 119.1 89.0022 118.71 88.4997ZM57.645 104.407C57.57 104.46 55.935 105.495 55.86 105.57C55.8422 105.577 55.8271 105.59 55.8164 105.606C55.8057 105.622 55.8 105.64 55.8 105.66C55.8 105.679 55.8057 105.698 55.8164 105.714C55.8271 105.73 55.8422 105.742 55.86 105.75C56.28 105.87 57.6825 106.027 58.11 106.072C68.37 103.5 68.4375 103.5 68.31 103.5C68.379 103.49 68.4417 103.455 68.485 103.4C68.5283 103.346 68.5489 103.277 68.5425 103.207C68.5425 103.08 68.34 102.195 68.28 101.925L57.645 104.407ZM77.52 33.2847C77.73 33.2847 78.1425 33.3822 78.225 33.3897C78.6802 33.437 79.1314 33.5172 79.575 33.6297L80.25 33.7497C80.2757 33.7561 80.3028 33.7533 80.3266 33.7417C80.3503 33.73 80.3693 33.7104 80.38 33.6862C80.3907 33.6621 80.3926 33.6349 80.3853 33.6095C80.378 33.584 80.362 33.562 80.34 33.5472C79.9487 33.2157 79.474 32.9978 78.9675 32.9172C78.4659 32.8097 77.9437 32.8541 77.4675 33.0447C77.4517 33.0482 77.4368 33.0547 77.4236 33.0639C77.4103 33.0731 77.399 33.0848 77.3903 33.0984C77.3816 33.112 77.3757 33.1272 77.3728 33.1431C77.37 33.1589 77.3703 33.1752 77.3737 33.191C77.3772 33.2067 77.3837 33.2217 77.3929 33.2349C77.4021 33.2481 77.4139 33.2594 77.4275 33.2681C77.441 33.2768 77.4562 33.2828 77.4721 33.2856C77.488 33.2885 77.5042 33.2882 77.52 33.2847ZM71.58 33.9447C71.7825 33.8997 72.2175 33.8322 72.33 33.8172C72.7845 33.718 73.2458 33.6528 73.71 33.6222L74.46 33.5397C74.4898 33.5397 74.5184 33.5279 74.5395 33.5068C74.5606 33.4857 74.5725 33.4571 74.5725 33.4272C74.5725 33.3974 74.5606 33.3688 74.5395 33.3477C74.5184 33.3266 74.4898 33.3147 74.46 33.3147C73.9766 33.1098 73.4462 33.0413 72.9265 33.1166C72.4069 33.192 71.9178 33.4084 71.5125 33.7422C71.4947 33.7422 71.4771 33.7465 71.4612 33.7546C71.4454 33.7627 71.4317 33.7745 71.4212 33.7889C71.4108 33.8034 71.404 33.8201 71.4013 33.8378C71.3986 33.8554 71.4001 33.8734 71.4058 33.8903C71.4114 33.9072 71.421 33.9225 71.4337 33.935C71.4464 33.9475 71.4619 33.9568 71.479 33.9621C71.496 33.9674 71.514 33.9686 71.5316 33.9656C71.5491 33.9626 71.5657 33.9554 71.58 33.9447ZM79.08 35.2497C78.9865 35.2497 78.8969 35.2869 78.8307 35.353C78.7646 35.4191 78.7275 35.5087 78.7275 35.6022V36.2772C78.7404 36.3707 78.79 36.4552 78.8652 36.5122C78.9405 36.5692 79.0353 36.5939 79.1287 36.581C79.2222 36.568 79.3068 36.5185 79.3637 36.4433C79.4207 36.368 79.4454 36.2732 79.4325 36.1797V35.6022C79.4335 35.5557 79.4251 35.5094 79.4078 35.4661C79.3904 35.4229 79.3645 35.3836 79.3315 35.3507C79.2986 35.3177 79.2593 35.2918 79.2161 35.2745C79.1729 35.2571 79.1266 35.2487 79.08 35.2497ZM20.8725 100.365C21.915 100.702 24.345 101.61 25.4625 101.475C25.5975 101.475 25.7475 101.34 25.845 101.1C26.595 99.4122 26.055 90.8322 25.785 89.1747C25.5975 87.9822 21.285 86.5047 20.2425 87.3522C19.5675 87.8997 19.905 94.2522 19.98 95.1372C20.175 97.2747 19.9725 100.072 20.8725 100.365ZM20.58 87.7497C21.39 87.1647 25.1475 88.5522 25.2675 89.2497C25.455 90.4272 26.1525 100.327 25.4025 101.1C24.435 101.242 21.87 100.455 20.9025 100.155C20.22 99.9297 20.4525 96.9447 20.34 95.0997C20.2875 93.8547 20.205 88.9122 20.58 87.7497ZM73.875 40.9122C73.8564 40.903 73.8358 40.8982 73.815 40.8982C73.7942 40.8982 73.7736 40.903 73.755 40.9122C73.5675 40.9797 73.455 41.1897 73.425 41.4972C73.4008 42.2918 73.6675 43.0679 74.175 43.6797C74.294 43.8421 74.4444 43.9789 74.6174 44.082C74.7903 44.185 74.9822 44.2522 75.1817 44.2794C75.3812 44.3067 75.5841 44.2936 75.7783 44.2408C75.9726 44.188 76.1543 44.0967 76.3125 43.9722C76.7646 43.6002 77.1197 43.1241 77.3475 42.5847C77.368 42.5427 77.3787 42.4965 77.3787 42.4497C77.3787 42.4029 77.368 42.3568 77.3475 42.3147C77.115 41.9547 76.56 42.4647 73.875 40.9122ZM73.8075 41.1672C74.6223 41.8611 75.5762 42.3725 76.605 42.6672C75 45.3972 73.3875 41.7147 73.8075 41.1672ZM75.645 39.4047C76.125 39.4947 77.4525 39.3297 77.7375 38.8422C77.88 38.6097 77.7375 38.5347 77.4225 37.5747C77.1387 36.7407 76.8056 35.9243 76.425 35.1297C76.29 34.9197 76.1175 35.1297 76.215 35.2572C76.4234 36.4071 76.7553 37.5311 77.205 38.6097C76.6622 38.8637 76.1064 39.089 75.54 39.2847C75.539 39.2995 75.5409 39.3143 75.5456 39.3284C75.5504 39.3424 75.5578 39.3554 75.5676 39.3665C75.5773 39.3777 75.5892 39.3868 75.6025 39.3934C75.6158 39.3999 75.6302 39.4038 75.645 39.4047ZM103.305 117.397C106.118 115.612 103.927 113.97 102.067 114.75C101.61 113.917 101.505 113.85 100.567 113.895C95.7 114.142 73.7175 119.227 73.5075 119.31C72.3975 119.767 75.2175 126.39 76.335 127.26C76.59 127.455 76.5075 127.492 79.26 126.952C79.44 128.587 80.1525 131.452 81.8175 131.542C82.5935 131.4 83.3491 131.163 84.0675 130.837C85.4584 132.221 86.9391 133.511 88.5 134.7C90.225 135.855 101.25 122.977 102.9 121.477C103.372 121.32 103.793 121.215 103.74 120.045C105.165 119.782 106.267 118.905 105.51 117.645C105 116.88 104.115 117 103.305 117.397ZM103.567 115.357C103.875 115.47 104.033 115.59 103.935 115.897C103.733 116.367 103.437 116.791 103.065 117.142C102.866 116.532 102.633 115.934 102.368 115.35C102.756 115.21 103.181 115.213 103.567 115.357ZM95.5875 115.11C95.865 116.422 96.0525 117.135 96.405 118.342L91.2075 119.325C90.9085 118.24 90.5607 117.168 90.165 116.115C91.1475 115.927 94.785 115.245 95.5875 115.11ZM87.9 125.122C88.1751 126.065 88.5816 126.963 89.1075 127.792C87.6675 128.49 86.31 129.127 85.155 129.652C84.7406 128.394 84.1578 127.199 83.4225 126.097L87.9 125.122ZM85.7775 125.122C85.524 123.819 85.2036 122.53 84.8175 121.26L90.8175 119.962C91.1447 121.233 91.5403 122.484 92.0025 123.712C89.94 124.147 87.7875 124.635 85.7775 125.092V125.122ZM88.275 125.16C88.1925 125.04 87.6825 125.22 93.2025 123.952C93.3 124.51 93.5065 125.042 93.81 125.52L89.415 127.672C89.1541 126.776 88.7704 125.921 88.275 125.13V125.16ZM93.525 123.87C96.375 123.21 98.9925 122.58 100.8 122.1L94.1775 125.332C94.0549 124.8 93.8363 124.294 93.5325 123.84L93.525 123.87ZM92.2575 123.637C92.0169 122.358 91.7115 121.091 91.3425 119.842L96.465 118.582C96.465 118.62 96.81 119.775 96.9675 120.27C97.0425 120.495 97.68 122.31 97.7175 122.34C96.165 122.685 92.3775 123.577 92.25 123.607L92.2575 123.637ZM89.94 116.19C90.1875 117.555 90.42 118.44 90.69 119.46L84.69 120.78C84.3375 119.587 84.0975 118.807 83.58 117.457C84.75 117.187 89.04 116.332 89.9475 116.16L89.94 116.19ZM83.3325 117.502C83.625 119.002 83.8425 119.79 84.1575 120.9C83.655 121.012 79.5525 122.04 79.5525 122.04C79.4025 122.04 79.4625 122.272 79.6125 122.242C79.6125 122.242 84.06 121.417 84.285 121.365C84.285 121.365 84.6075 122.655 85.53 125.182L80.6925 126.262C80.0006 123.646 79.1311 121.08 78.09 118.582L83.3325 117.502ZM76.545 127.005C75.405 126.15 72.795 119.85 73.5825 119.505C73.5825 119.505 75.3 119.13 77.88 118.59C78.523 121.218 79.3809 123.789 80.445 126.277C76.5 127.162 76.6725 127.072 76.5525 126.975L76.545 127.005ZM81.795 130.995C80.5275 130.995 79.77 128.257 79.545 127.012C79.545 126.87 79.1475 127.012 83.07 126.195C83.265 126.157 82.9575 126.105 83.895 128.055C84.1639 128.667 84.4957 129.251 84.885 129.795C83.8985 130.267 82.8751 130.658 81.825 130.965L81.795 130.995ZM88.785 134.205C87.2602 133.136 85.7955 131.985 84.3975 130.755C85.6875 130.222 87.15 129.54 88.41 128.94C89.3965 130.086 90.5141 131.113 91.74 132C91.23 132.435 89.4975 134.04 88.815 134.175L88.785 134.205ZM91.9575 131.775C90.9669 130.669 89.8578 129.675 88.65 128.812L93.36 126.495C94.0163 127.168 94.7758 127.733 95.61 128.167C94.4305 129.388 93.2227 130.581 91.9875 131.745L91.9575 131.775ZM95.865 127.927C95.2395 127.289 94.5275 126.741 93.75 126.3C96.975 124.672 98.8275 123.682 101.835 122.017C100.5 123.195 97.11 126.66 95.895 127.897L95.865 127.927ZM103.02 120.877C102.698 121.11 98.28 122.19 97.8975 122.28C97.4199 119.826 96.7195 117.421 95.805 115.095C97.26 114.847 100.14 114.345 101.212 114.465C101.358 114.635 101.483 114.821 101.587 115.02C101.076 115.367 100.652 115.83 100.35 116.37C100.275 116.557 100.47 116.655 100.567 116.565C100.943 116.168 101.381 115.836 101.865 115.582C102.205 116.285 102.501 117.009 102.75 117.75C102.084 118.205 101.483 118.751 100.965 119.37C100.867 119.49 100.897 119.58 100.965 119.617C101.145 119.722 101.16 119.452 102.93 118.402C103.109 119.009 103.21 119.637 103.23 120.27C103.192 120.405 103.17 120.75 103.05 120.847L103.02 120.877ZM104.888 118.867C104.553 119.251 104.131 119.549 103.658 119.737C103.588 119.203 103.481 118.674 103.335 118.155C103.823 117.907 104.58 117.592 104.835 118.05C104.931 118.155 104.991 118.288 105.006 118.43C105.02 118.572 104.99 118.714 104.917 118.837L104.888 118.867Z" fill="black"/>
</svg>
