<svg width="250" height="250" viewBox="0 0 250 250" fill="none" xmlns="http://www.w3.org/2000/svg">
<path d="M226.937 63.9624C226.8 63.0249 226.7 62.7124 225.525 62.1749C220.612 60.1374 202.212 59.8499 196.9 59.7874C196.919 58.7663 196.682 57.7566 196.212 56.8499C194.225 54.8374 181.512 55.0749 178.812 54.5249C178.562 54.5249 178.587 54.5249 178.525 54.2999C177.887 52.7374 177.725 47.4999 176.687 45.6749C174.75 42.2499 167.4 40.2874 162.862 43.5249C160.522 42.8194 158.02 42.8543 155.7 43.6249C154.449 44.134 153.324 44.91 152.405 45.8989C151.485 46.8877 150.792 48.0655 150.375 49.3499C149.669 51.7123 149.286 54.1596 149.237 56.6249C146.925 57.3874 134.875 58.2874 133.487 60.0874C133.145 60.6126 132.919 61.2051 132.825 61.8249C124.325 62.4624 125.237 62.5749 125.137 62.2749C121.962 52.3874 110.525 42.4999 110.525 42.4999C110.262 42.2624 110 42.4999 109.425 42.7499C108.771 40.8921 107.934 39.1041 106.925 37.4124C106.949 36.9953 106.808 36.5855 106.531 36.272C106.255 35.9584 105.867 35.7663 105.45 35.7374C106.575 34.3999 104.7 32.2624 102.125 34.0249C101.687 33.3874 101.225 32.7749 100.75 32.0999C101.033 31.9193 101.289 31.7006 101.512 31.4499C101.775 30.9749 100.262 31.4499 109.25 29.7624C110.912 29.4249 118.25 27.9374 119.25 27.6124C119.363 27.5986 119.469 27.5465 119.548 27.4646C119.628 27.3827 119.677 27.2761 119.687 27.1624C121.437 26.1999 119.487 20.9999 118.737 19.1499C121.85 16.1374 121.237 12.8999 118.6 11.9624C117.384 11.5904 116.095 11.5302 114.85 11.7874C113.668 9.74503 112.061 7.98027 110.137 6.61241C108.725 5.83741 107.637 6.31241 107.312 7.04991C106.987 7.78741 94.9625 22.0499 94.8125 22.1374C92.5375 22.7874 89.175 24.2124 88.0625 26.2999C85.4875 31.1874 90.4875 37.1874 95.3625 35.2874L96.25 34.9999C96.775 35.7624 97.425 36.6249 98 37.3874C97.8906 37.5875 97.7986 37.7966 97.725 38.0124C97.5875 38.4624 96.675 39.6624 97.275 40.8624C97.875 42.0624 102.025 44.9874 103.275 45.7749L103.012 45.9124C102.926 45.9485 102.856 46.0169 102.819 46.1032C102.782 46.1895 102.779 46.2869 102.812 46.3749C103.537 48.4999 107.45 58.6749 105.55 58.2749C102.775 57.6749 95.9125 54.9874 87.5625 52.2624C82.975 50.7624 79.9 49.3124 75.8125 48.3624C75.5125 46.3999 75.175 45.7749 74.875 44.1874C76.2243 43.6122 77.3666 42.64 78.15 41.3999C78.6 40.6499 78.075 40.9499 79.025 41.1374C79.3333 41.2293 79.6652 41.1987 79.9516 41.052C80.238 40.9053 80.4568 40.6538 80.5625 40.3499C81.6875 40.7374 82.7625 40.0999 82.5125 38.7874C83.3125 38.7874 84.7875 38.7874 85.0125 37.3999C85.35 35.7249 83.275 35.1374 82.75 34.5124C81.8044 33.3377 81.1224 31.9736 80.75 30.5124C79.5 26.5124 78.525 19.7624 76.325 17.1999C75.6363 16.4382 74.7895 15.8361 73.8439 15.4358C72.8982 15.0355 71.8765 14.8466 70.8503 14.8823C69.824 14.918 68.8179 15.1775 67.9024 15.6426C66.9869 16.1077 66.184 16.7672 65.55 17.5749C64.7545 17.1243 63.9172 16.7518 63.05 16.4624C61.9872 16.289 60.9 16.3372 59.8567 16.6039C58.8135 16.8707 57.8366 17.3502 56.9875 18.0124C52.8875 21.4999 55 27.4999 52.2375 33.9374C51.375 35.9374 47.075 40.2499 50.225 41.8874C50.55 41.9877 50.8963 41.9976 51.2266 41.9161C51.5569 41.8347 51.8588 41.6648 52.1 41.4249C52.1307 41.7482 52.2241 42.0624 52.375 42.3499C52.7498 42.7987 53.2352 43.1419 53.7832 43.3458C54.3312 43.5496 54.923 43.6071 55.5 43.5124C55.8578 43.3941 56.1801 43.1878 56.4375 42.9124C56.5214 43.172 56.6723 43.4048 56.875 43.5874C57.9 44.3999 59.15 44.3249 60.225 42.6999C60.3921 42.9359 60.6234 43.1191 60.8915 43.2276C61.1596 43.3362 61.4532 43.3656 61.7375 43.3124V47.4499C61.05 47.5374 60.3625 47.6249 59.675 47.7499C59.6172 47.7385 59.5577 47.7385 59.5 47.7499C51.9572 48.8572 44.888 52.0969 39.125 57.0874C33.3538 61.9959 28.6234 68.0099 25.2125 74.7749C22.2 81.3999 22.525 83.8499 23.5625 88.5249C24.2011 91.2135 25.4262 93.7276 27.15 95.8874C29.05 98.4624 31.9875 101.562 36.2375 106.15C37.25 107.237 38.525 108.65 39.6 109.725C39.025 112.35 34.9625 128.212 35.2 131.425C35.2 131.75 35.5 132.137 36.15 132.412C38.279 133.048 40.4797 133.414 42.7 133.5C41.9625 160.037 43.85 194.85 46.1875 220.687C46.092 220.72 46.0061 220.776 45.9375 220.85C45.5373 221.952 45.5373 223.16 45.9375 224.262C46.1 224.6 46.4125 224.575 47.1875 224.637C47.1875 226.237 47.325 228.087 47.425 229.7C47.1447 229.918 46.8928 230.17 46.675 230.45C46.5875 230.65 46.575 230.587 47.1375 233.862C46.7514 234.923 46.4546 236.015 46.25 237.125C46.1334 237.954 46.0625 238.788 46.0375 239.625C46.0347 240.073 46.1748 240.511 46.4375 240.875C48.02 242.111 49.7932 243.083 51.6875 243.75C53.8029 243.414 55.8008 242.554 57.5 241.25C57.7109 241.061 57.8725 240.823 57.9705 240.557C58.0686 240.291 58.1001 240.006 58.0625 239.725C57.9866 237.679 57.6376 235.653 57.025 233.7C57.2748 232.63 57.4089 231.536 57.425 230.437C57.35 230.2 57.2125 230.087 56.5375 229.65C56.7 228.1 56.85 226.35 56.9625 224.812H58.525C59.5125 224.75 59.2125 223.025 59.2625 221.65C59.2625 221.162 58.7875 220.987 58.3375 220.887L70.1875 144.512C71.05 149.262 73.0875 161.137 73.075 165.987C73.075 167.162 70.0625 205.912 69.325 216.062C69.2062 216.09 69.0978 216.15 69.0125 216.237C68.5689 217.306 68.477 218.488 68.75 219.612C68.8875 219.987 69.2375 219.987 69.7625 220.075C69.575 221.825 69.4 223.7 69.2625 225.512C68.7625 225.512 68.6125 225.637 68.45 226.1C67.9625 227.5 67.4625 232.462 68.3375 233.837C68.925 234.75 88.7375 238.537 93.9875 236.225C95.0375 235.75 94.9875 234.675 94.8125 233.537C94.5125 231.487 86.0625 228.675 83.5625 227.45C83.325 227.325 83.375 227.362 83.275 227.175C82.025 224.9 81.675 223.937 81.3125 223.762C80.9511 223.658 80.5708 223.637 80.2 223.7C80.1125 222.837 80.025 222 79.925 221.05C80.1332 221.086 80.3477 221.056 80.5375 220.962C81.0625 220.587 81.0125 219.012 81.1375 217.962C81.1524 217.82 81.1121 217.676 81.025 217.562C80.35 216.575 79.775 220.725 86.5125 197.187C86.2875 199.812 84.4375 220.812 85.0875 221.85C85.275 222.112 85.6375 222.125 86.0875 222.162C94.375 223 199.637 226.887 208.475 226.987C209.987 226.987 214.725 227.087 215.175 226.787C219.375 224.237 228.75 77.0999 226.937 63.9624ZM133.75 60.3249C135 58.6374 148.312 57.8874 149.6 57.1499C149.671 57.1181 149.731 57.0675 149.776 57.0036C149.82 56.9397 149.845 56.8649 149.85 56.7874C149.911 54.3573 150.306 51.9471 151.025 49.6249C151.424 48.4422 152.08 47.362 152.944 46.4612C153.808 45.5603 154.86 44.8608 156.025 44.4124C159.412 43.1624 165.175 44.2624 166.837 47.2624C167.875 49.0999 167.9 55.4624 168.962 56.3499C170.025 57.2374 184.775 56.9374 186.462 58.6624C186.565 58.8675 186.636 59.0865 186.675 59.3124C187.06 62.0387 187.03 64.8075 186.587 67.5249C183.175 68.8874 141.312 70.7624 134.762 70.0249C133.837 69.9249 133.762 70.0249 133.512 69.0999C132.9 67.1624 132.65 61.7999 133.75 60.3249ZM101.525 37.2874C101.612 36.5624 101.287 36.8999 101.987 37.0499C101.888 37.2253 101.833 37.422 101.826 37.6235C101.819 37.8249 101.861 38.025 101.948 38.2067C102.035 38.3884 102.165 38.5464 102.326 38.6671C102.488 38.7878 102.676 38.8676 102.875 38.8999C102.757 39.0652 102.686 39.2591 102.668 39.4613C102.651 39.6635 102.688 39.8667 102.775 40.0499C103.075 40.6749 103.5 40.7624 104.137 40.8374C103.889 41.1191 103.54 41.2916 103.166 41.3173C102.791 41.3431 102.422 41.22 102.137 40.9749C102.025 40.8624 101.475 40.1874 100.75 39.2874C101.118 38.6687 101.38 37.9927 101.525 37.2874ZM105.987 36.8124C106.075 36.8614 106.151 36.9277 106.212 37.0071C106.273 37.0866 106.317 37.1777 106.342 37.2748C106.366 37.3718 106.371 37.4729 106.355 37.5718C106.339 37.6707 106.303 37.7653 106.25 37.8499C105.71 37.793 105.164 37.8311 104.637 37.9624C104.075 38.0874 103.087 38.1749 102.85 37.7999C102.5 37.1999 105.062 36.1749 105.987 36.8124ZM103.35 34.3999C104.712 33.8374 105.487 34.7874 105.25 35.2999C104.376 35.8657 103.354 36.1614 102.312 36.1499C102.256 36.1489 102.2 36.1361 102.148 36.1125C102.096 36.0888 102.05 36.0547 102.012 36.0124C101.737 35.7499 101.925 35.4749 102.162 35.2249C102.505 34.8803 102.907 34.6007 103.35 34.3999ZM101.162 30.5624C99.625 28.3249 95.8875 23.3499 95.2875 22.3874L107.2 8.63741C107.625 12.3874 111.725 19.2624 113.762 22.3874C113.829 22.4719 113.921 22.5331 114.025 22.5624C115.161 24.2624 116.562 25.7691 118.175 27.0249C117.2 27.1499 104.687 29.8624 101.162 30.5624ZM118.287 12.8374C118.603 12.9472 118.893 13.1212 119.138 13.3483C119.384 13.5754 119.579 13.8508 119.713 14.1572C119.847 14.4636 119.916 14.7943 119.916 15.1286C119.916 15.4629 119.846 15.7936 119.712 16.0999C119.037 17.9624 117.212 19.3624 115.562 20.5374C115.112 20.8749 114.675 21.1874 114.312 21.4249C112.627 19.0265 111.099 16.5213 109.737 13.9249C112.287 13.1624 115.962 11.8874 118.287 12.8374ZM95.0875 34.4374C91.025 36.0249 86.8375 30.8624 88.8375 26.6999C89.725 24.8249 92.95 23.2749 94.9125 22.5749C95.425 23.5124 99.75 29.9999 100.487 31.1624C98.8056 32.438 96.9959 33.5355 95.0875 34.4374ZM96.95 34.5749C98.0375 33.9624 99.325 33.1374 100.337 32.4249C100.75 33.0874 101.175 33.8124 101.587 34.4749C101.368 34.6446 101.194 34.8657 101.081 35.1186C100.968 35.3715 100.918 35.6484 100.937 35.9249C100.596 35.7454 100.208 35.6756 99.825 35.7249C99.3201 35.8269 98.8731 36.1175 98.575 36.5374L96.95 34.5749ZM101.25 43.4249C98.5125 41.0374 98.2625 41.2249 98 40.4999C97.7375 39.7749 98.4875 38.7124 98.65 38.2624C98.925 37.4624 99.8 36.2499 100.525 36.7624C101.012 37.0999 100.325 39.0499 100.15 39.4499C100.082 39.5552 100.027 39.6686 99.9875 39.7874C100.45 40.434 100.947 41.0557 101.475 41.6499C101.768 41.9075 102.117 42.0931 102.494 42.1917C102.871 42.2903 103.267 42.2993 103.648 42.2179C104.029 42.1365 104.386 41.967 104.691 41.723C104.995 41.4789 105.238 41.1671 105.4 40.8124L106 40.6874C106.05 40.6756 106.093 40.6464 106.123 40.6051C106.153 40.5638 106.167 40.5132 106.162 40.4624C106.162 40.1374 105.437 40.4624 104.462 40.1124C104.037 39.9874 103.762 39.9499 103.662 39.6874C103.437 39.1499 105.412 38.7124 106.025 38.7249C106.189 38.7054 106.355 38.7186 106.514 38.7637C106.672 38.8087 106.821 38.8848 106.95 38.9874C107.075 39.0999 108.862 42.4124 109.1 42.9624L103.75 45.4624C103.037 44.9999 102.1 44.1999 101.25 43.4249ZM105.412 58.8749C105.539 58.9151 105.672 58.9294 105.804 58.9169C105.936 58.9045 106.064 58.8657 106.181 58.8027C106.297 58.7397 106.4 58.6539 106.483 58.5503C106.566 58.4467 106.627 58.3276 106.662 58.1999C107.287 56.3249 104.85 49.9249 103.662 46.4124L110.2 43.3374C111.712 44.6999 121.45 53.6374 124.237 62.5624C125.837 67.5624 125.225 72.5624 119.537 76.1749C115.167 78.8051 110.086 80.0107 105 79.6249C99.9082 79.3027 94.9161 78.0663 90.2625 75.9749C90.45 73.2874 90.3875 67.2999 90.85 64.0624C90.8543 64.0108 90.8397 63.9594 90.8088 63.9179C90.7779 63.8763 90.7329 63.8475 90.6823 63.8367C90.6317 63.826 90.5788 63.8341 90.5338 63.8595C90.4887 63.885 90.4544 63.926 90.4375 63.9749C90.0784 65.0632 89.8108 66.1796 89.6375 67.3124C89.3005 70.2634 89.2587 73.2406 89.5125 76.1999C89.4125 76.3999 89.2625 75.3499 91.125 93.0124C91.125 93.2249 98.1 123.7 97.9125 127.812C95.4125 129.162 81.05 130.662 77.9125 130.725C76.925 128.312 71.5 111.975 70.65 109.375C75.65 84.5874 71.5375 101 78.775 85.9374C81.3095 80.6401 83.5708 75.2163 85.55 69.6874C86.0299 68.4136 86.4143 67.1058 86.7 65.7749C86.8 65.5499 86.9375 65.3124 86.7 65.0499L83.5 60.7374C86.9 52.1499 86.7875 52.6124 86.775 52.3999C94.8375 55.1624 102.587 58.2374 105.412 58.8749ZM90.5625 77.2624C93.2724 78.4118 96.0907 79.2869 98.975 79.8749C97.9125 87.0874 96.6875 96.8374 95.4 107.875C91.15 87.6749 92.6875 98.4374 90.5625 77.2624ZM52.075 208.025C51.7 217.662 52.075 217.237 51.6625 217.25C51.6082 217.25 51.556 217.229 51.5164 217.192C51.4769 217.155 51.4532 217.104 51.45 217.05C50.9625 206.125 52.275 185.4 54.8875 133.9H55.3625C54.525 153.212 52.1625 205.662 52.075 208.025ZM60.4375 61.6499C57.3467 58.1556 54.5024 54.4508 51.925 50.5624C54.3059 49.6677 56.7733 49.0226 59.2875 48.6374C60.1125 50.5374 62.6125 57.5249 63.3125 59.4999L60.4625 61.6874L60.4375 61.6499ZM61.925 48.4374C64.325 50.9374 69.325 55.5249 72.8125 55.8499C72.45 56.4374 70.1625 60.1499 69.7125 60.6874C68.375 60.2499 62.825 53.5999 61.85 52.4499C61.4625 51.4124 60.8125 49.6374 60.3875 48.6249L61.925 48.4374ZM57.425 67.8374V67.7124C57.425 67.6624 60 63.1624 60.25 62.7124C60.3625 62.4999 59.975 62.8499 63.5 59.9624C69.425 76.7624 69.225 78.4374 72.25 89.6874C55.6 65.1999 57.5 67.7124 57.425 67.8374ZM70.8875 59.9124C71.1321 60.8049 71.4628 61.6714 71.875 62.4999C72.125 62.7749 71.4 65.4374 70.2125 77.3999C68.0687 69.6524 65.5364 62.0178 62.625 54.5249C63.625 55.6124 68.075 60.4999 69.4375 61.0249C69.5223 61.0794 69.6219 61.1063 69.7227 61.1018C69.8234 61.0974 69.9203 61.0617 70 60.9999C70.1375 60.8499 70.4625 60.4124 70.8625 59.8499L70.8875 59.9124ZM74.05 92.2374C75.7125 84.7374 79.2875 66.7874 79.675 59.1749L82.675 61.1499C86.25 66.1499 85.925 65.5749 85.9 65.7999C85.4375 68.4624 77.225 87.9749 74.025 92.1749L74.05 92.2374ZM82.5 60.3374L79.7375 58.6374C80.0584 56.0238 80.242 53.3952 80.2875 50.7624C82.025 51.3499 83.825 52.0124 85.5125 52.7499C85.2125 53.4624 83.0625 58.8999 82.5 60.3374ZM77.6 67.4999C77.226 65.719 76.7332 63.965 76.125 62.2499C76.1875 61.9749 76.45 60.7624 76.6125 59.9999C76.901 60.3233 77.2055 60.632 77.525 60.9249C77.8375 61.1999 78.0875 61.3624 78.425 61.1999C78.1625 63.2999 77.9 65.2999 77.6 67.4999ZM79.225 50.3999C79.2119 53.3256 79.0199 56.2477 78.65 59.1499C78.425 59.5999 78.2375 59.9624 78.1 60.1999C76.637 58.8017 75.2516 57.3245 73.95 55.7749C76.1625 55.1624 76.1875 51.7249 75.9625 49.4249C77.1 49.6999 78.1875 49.9999 79.225 50.3499V50.3999ZM63.95 41.6499C64.025 41.4374 63.95 41.4999 64.1375 41.5374C64.8976 41.6177 65.6629 41.4442 66.3141 41.044C66.9653 40.6438 67.4657 40.0393 67.7375 39.3249C68.0192 38.0947 67.9367 36.809 67.5 35.6249C67.3127 35.0655 67.1665 34.4931 67.0625 33.9124C66.4375 31.4124 64.9125 28.9749 65.6125 26.5249C65.7813 25.8584 66.2038 25.2842 66.7899 24.9246C67.3759 24.565 68.0793 24.4485 68.75 24.5999C69.0908 24.7229 69.4211 24.8734 69.7375 25.0499C70.8 25.5999 71.5625 25.9999 72.0625 25.4999C72.0625 25.4999 73.575 24.0124 75.0125 24.3999C75.5875 24.6249 76.9375 27.4874 77.2375 29.0499C77.0121 28.7491 76.6819 28.5439 76.3125 28.4749C75.2875 28.3499 74.575 29.1874 74.725 29.4374C75.5614 29.6248 76.4354 29.5461 77.225 29.2124C77.6536 31.5667 77.8503 33.9573 77.8125 36.3499C77.2327 35.9734 76.5951 35.6947 75.925 35.5249C75.4179 35.5078 74.9135 35.6061 74.45 35.8124C73.9519 35.687 73.4379 35.6365 72.925 35.6624C71.4875 35.9374 70.3 37.4999 69.575 38.1624C69.25 38.4624 69.0125 39.2874 69.575 39.6374C70.1375 39.9874 70.95 39.3499 71.2 39.0624C72.2309 38.0273 73.352 37.086 74.55 36.2499C75.5838 36.9331 76.6519 37.5631 77.75 38.1374C77.6076 38.7473 77.5612 39.3757 77.6125 39.9999C77.32 40.7349 76.8745 41.3993 76.3056 41.9489C75.7366 42.4984 75.0572 42.9206 74.3125 43.1874C74.2143 43.2183 74.1235 43.2688 74.0453 43.3358C73.9672 43.4028 73.9035 43.4848 73.8579 43.5771C73.8124 43.6694 73.786 43.7699 73.7803 43.8726C73.7747 43.9754 73.7898 44.0782 73.825 44.1749C74.075 45.7374 75.275 48.9999 74.9125 52.2874C74.8 53.3124 74.475 54.5999 73.45 54.7124C70.45 55.0499 64.875 49.8874 62.7625 47.7124V42.9749C63.3239 42.6727 63.7487 42.1675 63.95 41.5624V41.6499ZM62.5 30.9999C62.7098 32.3248 62.8475 33.6601 62.9125 34.9999C62.2 35.2499 61.25 34.3124 61.075 33.6499C60.675 32.2749 61.025 31.3999 62.5 30.9999ZM36.25 131.25C36.1 128.262 39.8 113.587 40.5125 110.537C40.8601 110.911 41.2873 111.201 41.7625 111.387C41.8706 111.4 41.9799 111.379 42.0759 111.327C42.1719 111.276 42.25 111.197 42.3 111.1C42.3875 110.975 42.6875 110.5 43.125 109.85C43.4878 110.616 43.9974 111.304 44.625 111.875C42.7625 113.4 42.3625 113.287 42.525 113.587C42.549 113.633 42.5897 113.668 42.6386 113.684C42.6875 113.7 42.7409 113.697 42.7875 113.675C48.1125 111.325 50.8375 107.062 51.15 101.1C51.1539 101.051 51.1395 101.002 51.1095 100.962C51.0795 100.923 51.036 100.897 50.9875 100.887C50.5625 100.887 50.8625 101.912 49.475 105.387C48.8499 104.765 48.0815 104.306 47.2375 104.05C47.4043 103.831 47.5882 103.627 47.7875 103.437C48.075 103.362 48.2375 103.075 48.075 102.662C47.6625 101.575 45.1 97.1374 44.45 96.0249C44.457 95.9543 44.457 95.8831 44.45 95.8124C44.525 94.0749 44.9375 90.9999 45.325 87.6874C46.0726 81.1816 46.4191 74.6358 46.3625 68.0874C46.271 66.1855 45.9176 64.3053 45.3125 62.4999C45.3009 62.4469 45.2687 62.4006 45.2229 62.3713C45.1772 62.342 45.1218 62.3321 45.0687 62.3437C45.0157 62.3553 44.9694 62.3875 44.9401 62.4332C44.9108 62.4789 44.9009 62.5344 44.9125 62.5874C45.3 65.3374 45.5 76.2374 45.5 76.4874C44.3375 78.2499 38.825 85.7249 38.85 86.8874C38.981 87.587 39.1994 88.2673 39.5 88.9124C39.5 89.2374 38.7375 87.2124 43.8 96.6124C44.4625 97.8624 46.5 101.612 47.0375 102.787C45.0918 105.176 43.2926 107.681 41.65 110.287C38.8375 108.037 30.4 98.5374 28 95.2874C26.3599 93.2439 25.1943 90.8615 24.5875 88.3124C23.924 86.1621 23.728 83.8947 24.0125 81.6624C25.2625 73.5999 33.4125 63.2499 39.7625 57.9124C43.2622 54.9096 47.2318 52.5025 51.5125 50.7874C52.225 52.0374 53.7125 54.1874 55.2625 56.4124C59.825 62.7749 59.85 61.8124 59.575 62.2874C58.9 63.5374 56.85 66.8124 56.525 67.5499C56.35 67.9624 54.9 66.1124 72.525 92.3874C71.9625 95.4374 65.7875 129.65 64.5 132.512C62.325 133.375 38.4125 133.087 36.25 131.25ZM44.8875 111.65C44.3787 110.924 43.9982 110.117 43.7625 109.262C44.4334 107.982 45.2244 106.768 46.125 105.637C46.6625 104.925 46.6375 104.85 47 104.875C47.8132 104.99 48.5881 105.294 49.2625 105.762C48.3124 108.073 46.7947 110.107 44.85 111.675L44.8875 111.65ZM43.5125 94.3999C42.75 93.1499 39.95 87.8624 39.875 86.8999C40.4 85.4999 43.1875 81.2749 45.6375 77.2249C45.35 81.5499 44 88.9249 43.475 94.4249L43.5125 94.3999ZM56.9625 239.725C56.9622 239.911 56.937 240.096 56.8875 240.275C56.8652 240.321 56.8306 240.36 56.7875 240.387C55.502 241.372 54.0496 242.117 52.5 242.587C51.65 242.85 51.6375 242.875 49.775 242.012C48.7612 241.569 47.7796 241.055 46.8375 240.475C46.5375 240.2 46.5 239.3 46.5 238.9C47.3632 239.687 48.3155 240.371 49.3375 240.937C51.1125 241.9 52.325 242.075 55.0375 240.812C55.7114 240.51 56.3558 240.146 56.9625 239.725ZM55.8625 224.912C55.75 226.3 55.625 227.725 55.5 229C54.4461 228.352 53.3475 227.78 52.2125 227.287C51.1375 227.012 49.2125 228.337 48.3125 229C48.2125 228.025 48.1125 226.8 47.925 224.675C49.3375 224.75 51.0125 224.787 52.425 224.8C56.25 224.837 55.8875 224.725 55.8625 224.912ZM58.125 223.662C58 223.662 46.9875 223.85 46.5375 223.812C46.1781 222.934 46.0868 221.968 46.275 221.037C46.4466 220.991 46.6225 220.962 46.8 220.95C50.6057 220.973 54.4058 221.248 58.175 221.775C58.2065 222.434 58.1898 223.094 58.125 223.75V223.662ZM78.75 220.937C78.8375 221.887 78.9125 222.875 79 223.837C78.5734 223.909 78.1548 224.022 77.75 224.175C76.7875 224.687 77.6125 226.462 77.3 226.862C76.125 226.725 72.1375 225.612 70.025 225.475C70.1 223.787 70.2 221.725 70.2875 220.137C72.7625 220.487 76.375 220.775 78.75 220.937ZM93.75 234C93.75 234.5 93.85 235.037 93.475 235.25C89.1125 237.187 70.55 234.187 68.7375 233.45C68.5645 233.054 68.463 232.631 68.4375 232.2C75.3375 233.362 88.1875 236.637 93.75 234ZM79.775 220C79.65 220 69.6 219.362 69.25 219.3C69.1118 218.66 69.053 218.005 69.075 217.35C69.0612 217.062 69.117 216.775 69.2375 216.512C70.75 216.25 78.45 217.762 79.975 218.125C79.9434 218.753 79.8767 219.379 79.775 220ZM85.95 166.25C85.1625 170 77.375 208.312 76.1 214.15C76.083 214.199 76.0487 214.24 76.0037 214.265C75.9586 214.291 75.9058 214.299 75.8551 214.288C75.8045 214.277 75.7595 214.249 75.7286 214.207C75.6978 214.165 75.6831 214.114 75.6875 214.062C76.7125 208.775 84.075 170.062 84.925 166.025C85.325 164.137 81.9625 134.712 81.5625 131.562H82.225C84.05 143.362 86.3375 164.337 85.95 166.25ZM214.3 226.037C209.012 226.45 86.9125 221.325 85.8125 221.187C85.55 217.9 87.5 195.65 87.7875 192.362C89.7875 185.275 93.6 171.362 94.725 164.05C95.7 157.662 93.9875 143.362 93.1375 136.912C93.3875 134.587 93.625 132.275 93.875 129.975C95.3164 129.76 96.7349 129.413 98.1125 128.937C98.4875 128.762 98.8625 128.525 98.9 128.125C99.1375 125.9 96.4 112.975 95.9875 110.737C97.3625 98.5624 98.75 87.8249 99.8125 79.9999C106.775 81.2499 114.037 80.8124 120.062 76.9874C125.862 73.3124 126.8 68.2374 125.412 63.1624C127.725 62.9374 130.162 62.7249 132.687 62.5249C132.412 64.5374 132.462 69.3999 133.525 70.2374C135.537 71.8374 183.012 69.9499 186.937 68.3874C187.131 68.3203 187.294 68.1876 187.4 68.0124C188 66.8624 187.95 62.0499 187.775 60.2499C191.662 60.2499 224.025 59.9999 226.337 63.1124C228.95 66.6374 218.387 225.637 214.3 225.975V226.037Z" fill="black"/>
<path d="M127.262 134.2C127.125 133.338 126.837 133.175 126.362 133.038C123.862 132.313 109.35 131.488 108.125 132.313C106.9 133.138 104.487 142.725 105.337 145.7C105.418 145.872 105.534 146.024 105.679 146.147C105.823 146.27 105.992 146.361 106.175 146.413C109.137 147.663 123.45 148.825 125 147.95C126.55 147.075 127.625 136.563 127.262 134.2ZM125 146.138C124.896 146.482 124.744 146.81 124.55 147.113C123.55 147.675 107.975 146.838 106.125 145.45C105.287 142.663 107.375 133.325 108.362 132.638C109.35 131.95 124.712 133.263 126.312 133.975C126.825 136.063 125.762 143.75 125 146.138ZM121.937 156.95C120.687 155.988 104.437 155.213 103.187 156.013C101.937 156.813 99.5499 166.35 100.4 169.4C100.482 169.57 100.599 169.722 100.744 169.845C100.888 169.967 101.056 170.058 101.237 170.113C104.225 171.363 116.575 172.3 119.462 171.825C119.651 171.818 119.836 171.768 120.002 171.679C120.169 171.591 120.314 171.465 120.425 171.313C121.662 169.6 123.25 158.013 121.937 156.95ZM119.612 170.8C118.587 171.375 103.1 170.538 101.187 169.138C100.35 166.35 102.437 157.013 103.425 156.325C104.412 155.638 119.912 157 121.362 157.663C121.987 160 120.437 170.338 119.612 170.8ZM119.037 180.075C117.787 179.125 101.537 178.338 100.287 179.138C99.0374 179.938 96.6499 189.463 97.4999 192.5C97.5804 192.672 97.6968 192.824 97.8412 192.947C97.9857 193.07 98.1549 193.161 98.3374 193.213C101.325 194.463 113.675 195.4 116.562 194.925C116.752 194.916 116.938 194.865 117.104 194.774C117.271 194.683 117.415 194.555 117.525 194.4C118.75 192.75 120.362 181.15 119.037 180.075ZM117.15 192.963C117.15 193.113 116.837 193.863 116.7 193.925C115.675 194.5 100.187 193.65 98.2749 192.263C97.4499 189.488 99.5249 180.15 100.512 179.45C101.5 178.75 116.85 180.075 118.462 180.788C118.962 182.813 118 190.325 117.15 192.963Z" fill="black"/>
<path d="M121 136.475C118.762 138.6 116.775 141.063 115.325 141.988C114.812 142.325 114.55 142.438 114.075 142.188C113.301 141.699 112.644 141.046 112.15 140.275C112.121 140.239 112.081 140.214 112.037 140.204C111.992 140.194 111.945 140.2 111.904 140.221C111.863 140.241 111.83 140.275 111.811 140.317C111.792 140.359 111.788 140.406 111.8 140.45C112.219 141.451 112.907 142.316 113.787 142.95C114.107 143.115 114.468 143.184 114.826 143.146C115.183 143.108 115.522 142.966 115.8 142.738C116.82 142.03 117.741 141.189 118.537 140.238C119.51 139.121 120.416 137.948 121.25 136.725C121.277 136.712 121.301 136.693 121.319 136.669C121.337 136.645 121.349 136.617 121.354 136.588C121.359 136.558 121.357 136.528 121.348 136.499C121.339 136.47 121.323 136.444 121.302 136.423C121.28 136.402 121.255 136.386 121.226 136.377C121.197 136.368 121.167 136.366 121.137 136.371C121.108 136.376 121.08 136.388 121.056 136.406C121.032 136.424 121.013 136.448 121 136.475ZM116.087 160.163C113.387 162.725 110.825 165.975 109.637 166.025C109.268 165.954 108.926 165.781 108.65 165.525C107.325 164.438 107.325 163.7 107 163.888C106.976 163.898 106.955 163.914 106.937 163.933C106.92 163.952 106.907 163.975 106.898 163.999C106.89 164.024 106.887 164.05 106.89 164.076C106.892 164.102 106.9 164.127 106.912 164.15C107.375 165.225 108.475 166.888 109.65 166.913C111.15 166.913 113.6 164.138 114.487 163.025C115.375 161.913 116.025 160.888 116.375 160.413C116.408 160.374 116.425 160.325 116.421 160.274C116.418 160.224 116.394 160.177 116.356 160.144C116.318 160.111 116.268 160.094 116.218 160.097C116.168 160.101 116.121 160.124 116.087 160.163ZM113.175 183.288C110.525 185.788 107.9 189.1 106.737 189.138C106.361 189.077 106.012 188.903 105.737 188.638C104.4 187.55 104.487 186.825 104.087 187C104.064 187.013 104.044 187.03 104.028 187.051C104.011 187.072 103.999 187.096 103.992 187.122C103.985 187.147 103.984 187.174 103.987 187.2C103.99 187.227 103.999 187.252 104.012 187.275C104.462 188.35 105.562 190.012 106.75 190.038C108.25 190.038 110.7 187.263 111.575 186.15C112.45 185.038 113.125 184.013 113.462 183.538C113.637 183.35 113.35 183.1 113.175 183.288ZM209.312 140.838C205.275 140.6 139.587 137.838 135.425 137.663C135.382 137.674 135.344 137.699 135.317 137.734C135.289 137.769 135.275 137.812 135.275 137.856C135.275 137.901 135.289 137.944 135.317 137.979C135.344 138.014 135.382 138.039 135.425 138.05C139.662 138.325 206.562 141.15 209.325 141.225C209.368 141.213 209.405 141.186 209.431 141.15C209.457 141.115 209.471 141.071 209.469 141.026C209.468 140.982 209.452 140.939 209.423 140.905C209.395 140.871 209.356 140.847 209.312 140.838ZM204.4 164.538C200.362 164.3 134.675 161.538 130.512 161.35C130.483 161.342 130.452 161.342 130.422 161.348C130.392 161.354 130.364 161.367 130.34 161.386C130.316 161.404 130.297 161.428 130.283 161.456C130.27 161.483 130.263 161.513 130.263 161.544C130.263 161.574 130.27 161.604 130.283 161.632C130.297 161.659 130.316 161.683 130.34 161.702C130.364 161.72 130.392 161.733 130.422 161.74C130.452 161.746 130.483 161.745 130.512 161.738C134.75 162.013 201.637 164.838 204.4 164.925C204.443 164.914 204.481 164.889 204.508 164.854C204.536 164.819 204.55 164.776 204.55 164.731C204.55 164.687 204.536 164.644 204.508 164.609C204.481 164.574 204.443 164.549 204.4 164.538ZM201.487 187.663C197.45 187.425 131.762 184.663 127.6 184.475C127.557 184.486 127.519 184.511 127.492 184.546C127.464 184.581 127.45 184.624 127.45 184.669C127.45 184.713 127.464 184.756 127.492 184.791C127.519 184.826 127.557 184.851 127.6 184.863C131.825 185.138 198.725 187.962 201.487 188.038C201.537 188.038 201.585 188.018 201.62 187.983C201.655 187.947 201.675 187.9 201.675 187.85C201.675 187.8 201.655 187.753 201.62 187.717C201.585 187.682 201.537 187.663 201.487 187.663ZM208.75 149.688C204.712 149.463 139.025 146.688 134.875 146.513C134.845 146.505 134.815 146.504 134.785 146.51C134.755 146.517 134.727 146.53 134.703 146.548C134.679 146.567 134.659 146.591 134.646 146.618C134.632 146.646 134.625 146.676 134.625 146.706C134.625 146.737 134.632 146.767 134.646 146.794C134.659 146.822 134.679 146.846 134.703 146.864C134.727 146.883 134.755 146.896 134.785 146.902C134.815 146.908 134.845 146.908 134.875 146.9C139.1 147.175 206 150 208.762 150.075C208.805 150.063 208.843 150.036 208.869 150C208.895 149.965 208.908 149.921 208.907 149.876C208.905 149.832 208.889 149.789 208.861 149.755C208.832 149.721 208.793 149.697 208.75 149.688ZM203.862 173.388C199.825 173.15 134.137 170.388 129.975 170.213C129.725 170.213 129.7 170.575 129.975 170.6C134.212 170.875 201.112 173.688 203.875 173.775C203.918 173.763 203.955 173.736 203.981 173.701C204.007 173.665 204.021 173.621 204.019 173.576C204.018 173.532 204.002 173.489 203.973 173.455C203.945 173.421 203.906 173.397 203.862 173.388ZM200.95 196.513C196.925 196.275 131.237 193.513 127.075 193.325C127.022 193.325 126.971 193.346 126.934 193.384C126.896 193.421 126.875 193.472 126.875 193.525C126.875 193.578 126.896 193.629 126.934 193.666C126.971 193.704 127.022 193.725 127.075 193.725C131.312 193.987 198.2 196.812 200.962 196.9C201.005 196.888 201.043 196.861 201.069 196.825C201.095 196.79 201.108 196.746 201.107 196.701C201.105 196.657 201.089 196.614 201.061 196.58C201.032 196.546 200.993 196.522 200.95 196.513ZM138.25 122.425C138.637 122.2 138.812 121.488 138.925 121.013C140.575 114.325 142.475 83.7 142.075 81.975C142.041 81.8599 141.976 81.7562 141.887 81.675C141.175 81.025 137.237 80.95 135.875 80.9125C128.737 80.7375 112.125 81.275 111.937 81.45C111.475 82.0125 104.587 118.7 105.437 121.188C106.287 123.675 135.3 124.088 138.25 122.425ZM106.25 120.85C106.241 120.717 106.241 120.583 106.25 120.45C106.261 120.49 106.284 120.525 106.317 120.551C106.35 120.576 106.39 120.59 106.431 120.59C106.473 120.59 106.513 120.576 106.546 120.551C106.578 120.525 106.602 120.49 106.612 120.45C107.145 118.398 108.195 116.517 109.662 114.988C111.341 113.111 113.503 111.732 115.912 111C117.002 112.413 118.189 113.75 119.462 115C119.75 115.213 120.087 115 120.437 114.838C121.687 118 121.087 113.913 120.437 122.338C118.575 122.275 107.862 121.863 106.25 120.85ZM120.362 106.25C119.665 105.973 119.039 105.543 118.53 104.991C118.022 104.439 117.644 103.78 117.425 103.062C117.292 102.517 117.208 101.961 117.175 101.4C117.609 101.973 118.213 102.394 118.902 102.601C119.59 102.808 120.327 102.79 121.005 102.551C121.683 102.311 122.267 101.862 122.673 101.269C123.078 100.676 123.285 99.9685 123.262 99.25H123.487C123.15 100.389 123.002 101.576 123.05 102.763C123.055 102.938 123.102 103.109 123.187 103.263C123.562 103.738 123.937 103.725 124.575 103.625C124.625 103.622 124.673 103.602 124.709 103.568C124.746 103.534 124.769 103.487 124.775 103.438C124.775 103.15 124.275 103.275 123.925 102.925C123.925 102.5 124.062 101.062 124.075 100.7C124.075 99.125 123.762 99.3 124.212 99.3C124.126 99.9108 124.211 100.534 124.458 101.099C124.706 101.664 125.105 102.149 125.612 102.5C126.22 102.895 126.933 103.094 127.657 103.072C128.381 103.05 129.081 102.806 129.662 102.375C129.662 102.538 129.537 102.725 129.437 102.975C129.097 104.1 128.421 105.094 127.5 105.825C126.037 106.85 125.1 106.488 125.2 107.175C125.35 108.162 125.687 108.863 125.9 110.325C124.803 110.986 123.747 111.712 122.737 112.5C121.772 111.606 120.754 110.771 119.687 110C120.187 107.388 121.062 106.563 120.362 106.25ZM124.4 98.4875C124.361 98.594 124.328 98.7025 124.3 98.8125C124.139 98.7045 123.95 98.6468 123.756 98.6468C123.562 98.6468 123.373 98.7045 123.212 98.8125C123.187 98.448 123.082 98.0934 122.905 97.7738C122.728 97.4541 122.483 97.1772 122.187 96.9625C121.404 96.4619 120.492 96.1972 119.562 96.2C118.901 96.1698 118.252 96.3934 117.75 96.825C118.103 95.2076 119.054 93.7833 120.412 92.8375C122.762 91.375 126.412 91.6625 127.912 93.9875C128.25 94.4569 128.504 94.9814 128.662 95.5375C128.745 95.963 128.862 96.3811 129.012 96.7875C128.742 96.6743 128.455 96.6067 128.162 96.5875C126.537 96.475 124.8 96.8625 124.4 98.5125V98.4875ZM121.25 101.6C120.944 101.756 120.611 101.849 120.269 101.874C119.927 101.899 119.584 101.855 119.259 101.746C118.934 101.636 118.635 101.463 118.378 101.236C118.121 101.009 117.911 100.734 117.762 100.425C117.337 98.825 118 97.025 119.575 97.0125C124.337 96.85 122.912 100.988 121.25 101.6ZM128.175 97.3875C129.75 97.5625 130.2 99.4375 129.625 100.988C129.442 101.276 129.204 101.525 128.924 101.721C128.644 101.917 128.329 102.055 127.995 102.128C127.662 102.201 127.317 102.208 126.981 102.147C126.645 102.087 126.324 101.96 126.037 101.775C124.425 101 123.35 96.7125 128.15 97.3875H128.175ZM130.675 98.6375L130.987 98.4625C131.7 99 131.825 99.9125 130.612 100.963C130.819 100.242 130.84 99.481 130.675 98.75V98.6375ZM115.887 98.0375C115.988 97.9398 116.122 97.8851 116.262 97.8851C116.403 97.8851 116.537 97.9398 116.637 98.0375C116.697 98.0907 116.771 98.1255 116.85 98.1375C116.637 98.821 116.594 99.5462 116.725 100.25C115.837 99.7125 115.125 98.85 115.887 98.0875V98.0375ZM125.262 114.288C124.665 113.881 124.093 113.439 123.55 112.963L127.2 110C127.487 110.213 128.275 110.8 128.7 111.163C126.625 113.025 125.75 113.913 125.262 114.325V114.288ZM121.862 112.863C121.212 113.288 120.54 113.68 119.85 114.038C119.5 113.675 116.537 110.413 116.537 110.413C117.025 110.088 117.95 109.563 118.275 109.388L121.862 112.863ZM125 122.5C124.995 120.498 124.747 118.505 124.262 116.563C125.087 114.95 124.637 115.313 125.112 115.425C125.175 115.453 125.243 115.468 125.312 115.468C125.381 115.468 125.45 115.453 125.512 115.425C126.755 114.372 127.917 113.227 128.987 112C133.25 113.888 136.612 117 137.737 121.6C137.4 122.5 126.112 122.5 125 122.5ZM112.225 81.7625C115.362 81.675 138.362 81.075 141.287 82.25C141.575 84.75 139.362 115.688 138 120.738C136.837 116.363 133.637 113.238 129.512 111.3C129.7 110.888 129.25 110.638 127.3 109.563C127.27 109.544 127.235 109.534 127.2 109.534C127.165 109.534 127.13 109.544 127.1 109.563L126.612 109.863C126.425 108.613 126.237 108.25 126.075 107.363C126.831 107.175 127.541 106.833 128.158 106.357C128.776 105.882 129.288 105.283 129.662 104.6C130.122 103.788 130.471 102.917 130.7 102.013C132.262 100.938 133.125 99.4375 131.95 97.9875C132.287 97.4625 132.525 97.0375 132.275 96.475C132.381 96.3146 132.448 96.1319 132.472 95.9411C132.496 95.7503 132.476 95.5566 132.412 95.375C132.353 95.1264 132.26 94.8868 132.137 94.6625C132.265 94.4553 132.348 94.2242 132.382 93.9836C132.416 93.7429 132.401 93.4977 132.336 93.2633C132.272 93.0289 132.16 92.8103 132.007 92.6209C131.855 92.4316 131.665 92.2755 131.45 92.1625C131.501 91.8579 131.475 91.5454 131.374 91.2533C131.274 90.9612 131.103 90.6985 130.876 90.489C130.649 90.2795 130.374 90.1297 130.075 90.053C129.776 89.9764 129.462 89.9754 129.162 90.05C129.055 89.766 128.869 89.5187 128.625 89.3375C128.424 89.168 128.191 89.0398 127.94 88.9605C127.689 88.8811 127.425 88.8521 127.162 88.875C126.212 88.95 126.612 89.25 126.412 88.7625C126.309 88.528 126.129 88.3358 125.902 88.2176C125.674 88.0994 125.414 88.0623 125.162 88.1125C124.762 88.1412 124.378 88.2892 124.062 88.5375C123.688 88.2275 123.217 88.0579 122.731 88.0579C122.245 88.0579 121.774 88.2275 121.4 88.5375C121.212 88.7375 121.312 88.6875 121.15 88.625C120.74 88.5192 120.31 88.5192 119.9 88.625C119.654 88.6788 119.425 88.7894 119.229 88.9478C119.034 89.1063 118.878 89.3082 118.775 89.5375C118.572 89.5004 118.365 89.5004 118.162 89.5375C117.756 89.6843 117.39 89.9267 117.096 90.2443C116.803 90.5619 116.589 90.9454 116.475 91.3625C116.469 91.4582 116.469 91.5543 116.475 91.65C116.241 91.7854 116.015 91.9357 115.8 92.1C115.565 92.3825 115.41 92.7234 115.353 93.0865C115.296 93.4496 115.338 93.8214 115.475 94.1625C115.185 94.3679 114.97 94.6618 114.862 95C114.797 95.4273 114.867 95.8643 115.062 96.25C115.136 96.3543 115.215 96.4544 115.3 96.55L115.175 96.7C115.093 96.9176 115.093 97.1574 115.175 97.375C114.966 97.6193 114.82 97.9112 114.75 98.2251C114.681 98.539 114.689 98.8652 114.775 99.175C115.059 99.9451 115.574 100.609 116.25 101.075C116.25 101.363 116.25 101.85 116.362 102.325C116.483 103.311 116.854 104.249 117.44 105.05C118.027 105.851 118.809 106.488 119.712 106.9C119.421 107.718 119.179 108.553 118.987 109.4C118.45 109 118.375 108.9 118.237 108.975C116.25 109.763 115.737 110 115.737 110.225C110.575 111.888 106.987 116.588 106.287 120.225C106.325 114.713 111.65 83.65 112.225 81.7625ZM215.325 102.675C215.15 102.488 153.075 102.1 152.95 102.113C152.897 102.113 152.846 102.134 152.809 102.171C152.771 102.209 152.75 102.259 152.75 102.312C152.75 102.188 152.275 107.95 152.912 108.325C154.6 109.275 209.525 110.188 214.512 109.7C214.729 109.703 214.941 109.632 215.112 109.5C216.025 108.562 216 103.25 215.325 102.675ZM152.987 102.5H153.062C153.062 102.5 153 102.563 152.987 102.5ZM214.487 108.75C211.637 109.113 156.2 108.625 153.237 107.938C153.062 106.129 153.062 104.308 153.237 102.5L214.8 103.538C215.034 105.279 214.928 107.049 214.487 108.75ZM215.475 92.1875C215.3 92 153.225 91.6125 153.1 91.625C153.048 91.628 152.999 91.65 152.962 91.6869C152.925 91.7238 152.903 91.7729 152.9 91.825C152.9 91.7 152.412 97.4625 153.062 97.8375C154.85 98.8625 209.937 99.675 214.662 99.2125C214.879 99.2153 215.091 99.1449 215.262 99.0125C216.175 98.075 216.137 92.7625 215.475 92.1875ZM153.137 92.0125H153.212C153.287 92.0125 153.15 92.0875 153.137 92.0125ZM214.637 98.2625C211.95 98.625 156.375 98.1375 153.387 97.4375C153.219 95.6331 153.219 93.8169 153.387 92.0125L214.95 93.05C215.178 94.7874 215.072 96.5524 214.637 98.25V98.2625ZM215.612 82.1125C215.514 82.033 215.389 81.9929 215.262 82C215.262 82 153.837 81.525 153.462 81.5375C153.275 81.5375 153.012 81.5375 153.025 81.75C153.025 81.625 152.55 87.3875 153.187 87.7625C154.737 88.6375 214.437 89.9 215.387 88.9375C216.337 87.975 216.25 82.6875 215.612 82.1125ZM153.262 81.9375H153.337C153.412 81.9375 153.275 82 153.262 81.9375ZM214.762 88.1875C211.9 88.55 156.2 88.0375 153.512 87.3625C153.318 85.5605 153.293 83.7442 153.437 81.9375L215 82.975C215.257 84.7074 215.176 86.4732 214.762 88.175V88.1875ZM163.662 120.388C164.4 119.975 164.475 119.325 164.125 118.913C163.134 118.277 162.024 117.852 160.862 117.663C160.752 116.547 160.356 115.48 159.712 114.563C158.462 113.438 157.65 116.013 157.212 117.625C156.162 117.713 153.85 118.013 153.675 119.05C153.675 119.413 153.925 119.638 154.25 119.8C154.987 120.096 155.743 120.342 156.512 120.538C155.512 121.588 153.262 124.025 154.662 124.288C155.462 124.463 157.587 123.188 158.6 122.963C159.537 123.488 161.562 125.125 162.35 124.575C163.137 124.025 162.012 122.25 161.375 121.038C162.154 120.885 162.919 120.667 163.662 120.388ZM175.6 120.95C176.35 120.55 176.425 119.9 176.062 119.488C175.082 118.842 173.973 118.416 172.812 118.238C172.702 117.119 172.306 116.047 171.662 115.125C170.412 114.013 169.6 116.588 169.162 118.2C168.112 118.288 165.8 118.575 165.625 119.625C165.562 119.975 165.875 120.213 166.2 120.375C166.935 120.664 167.686 120.91 168.45 121.113C167.462 122.15 165.2 124.6 166.6 124.863C167.4 125.038 169.587 123.75 170.537 123.613C171.525 124.163 173.512 125.763 174.287 125.213C175.062 124.663 173.95 122.888 173.325 121.675C174.105 121.509 174.868 121.267 175.6 120.95ZM188.037 121.413C188.775 121 188.85 120.35 188.5 119.95C187.513 119.308 186.401 118.882 185.237 118.7C185.133 117.584 184.736 116.515 184.087 115.6C182.837 114.475 182.025 117.05 181.587 118.663C180.537 118.763 178.225 119.05 178.062 120.088C178.062 120.45 178.312 120.688 178.637 120.838C179.37 121.138 180.121 121.389 180.887 121.588C179.9 122.625 177.637 125.075 179.037 125.338C179.837 125.513 181.962 124.238 182.975 124.013C183.912 124.55 185.937 126.175 186.725 125.625C187.512 125.075 186.375 123.3 185.75 122.088C186.531 121.93 187.296 121.704 188.037 121.413ZM201.012 121.9C201.762 121.5 201.825 120.838 201.475 120.438C200.488 119.795 199.376 119.369 198.212 119.188C198.104 118.074 197.713 117.007 197.075 116.088C195.825 114.963 195 117.55 194.575 119.15C193.525 119.25 191.212 119.538 191.05 120.588C190.987 120.938 191.3 121.175 191.625 121.338C192.36 121.626 193.111 121.873 193.875 122.075C192.887 123.113 190.625 125.563 192.025 125.825C192.812 126 195 124.713 195.962 124.5C196.912 125.038 198.912 126.663 199.712 126.113C200.512 125.563 199.375 123.788 198.75 122.575C199.523 122.421 200.281 122.195 201.012 121.9ZM197.612 122.338C197.612 122.8 198.737 124.325 199.012 125.313C198.787 125.213 198.475 125.013 198.225 124.875C196.225 123.813 196.3 123.463 195.475 123.75C194.837 123.975 192.725 125.113 192.162 125.213C192.288 124.803 192.482 124.419 192.737 124.075C194.112 122.038 194.787 122.013 193.925 121.575C193.102 121.333 192.312 120.988 191.575 120.55C191.8 119.975 194.075 119.813 194.85 119.8C195.287 119.8 195.137 119.463 195.837 117.813C195.994 117.403 196.205 117.017 196.462 116.663C196.699 117.007 196.869 117.393 196.962 117.8C197.425 119.388 197.175 119.825 197.7 119.938C198.723 120.14 199.715 120.476 200.65 120.938C200.454 121.08 200.234 121.186 200 121.25C198.45 121.713 197.575 121.663 197.612 122.338ZM213.85 120.275C212.984 119.895 212.084 119.598 211.162 119.388C211.039 118.6 210.829 117.829 210.537 117.088C210.012 115.838 209.162 115.6 208.487 116.725C208.058 117.562 207.719 118.442 207.475 119.35C206.625 119.41 205.785 119.573 204.975 119.838C204.262 120.113 203.65 120.688 204.037 121.188C204.857 121.731 205.781 122.097 206.75 122.263C206.005 123.033 205.331 123.87 204.737 124.763C204.162 125.763 204.512 126.375 205.775 126.013C206.737 125.713 208.112 124.975 208.837 124.763C209.462 125.113 211.337 126.525 212.225 126.488C212.315 126.491 212.405 126.476 212.489 126.443C212.573 126.411 212.65 126.361 212.714 126.298C212.779 126.235 212.829 126.159 212.863 126.076C212.898 125.992 212.914 125.903 212.912 125.813C212.679 124.753 212.255 123.746 211.662 122.838C212.443 122.685 213.208 122.463 213.95 122.175C214.75 121.725 215 120.863 213.85 120.275ZM210.85 122.1C209.925 122.538 211.512 123.988 211.95 125.575C211.375 125.313 209.3 124.025 209.15 123.963C208.475 123.675 206.9 124.85 205.487 125.338L205.112 125.475C205.625 124.329 206.331 123.281 207.2 122.375C207.687 121.838 205.025 121.45 204.512 120.863C204.612 120.6 205.287 120.413 205.55 120.35C207.375 119.925 207.987 120.35 208.15 119.825C208.444 118.826 208.864 117.868 209.4 116.975C209.882 117.864 210.176 118.843 210.262 119.85C210.337 120.375 210.775 120.163 212.55 120.788C212.918 120.898 213.27 121.053 213.6 121.25C213.162 121.575 211.475 121.8 210.85 122.1ZM158.812 55.65C160.163 55.7591 161.505 55.3477 162.562 54.5C165.7 51.7 161.312 46.375 156.962 49.2375C153.562 51.475 155.637 55.525 158.812 55.65ZM157.425 50C158.274 49.3784 159.332 49.1096 160.375 49.25C160.896 49.3259 161.393 49.521 161.827 49.8202C162.26 50.1194 162.619 50.5146 162.875 50.975C163.725 53.4125 161.462 54.875 158.837 54.725C156.55 54.6 154.925 51.7125 157.425 50ZM51.4249 110.663C51.1749 110.563 51.4249 110.663 49.6249 112.488C47.8249 114.313 46.1499 115.313 46.3124 115.613C46.4749 115.913 47.9874 115.163 48.2374 115.025C49.0407 114.522 49.7652 113.903 50.3874 113.188C50.8249 112.675 51.8874 110.863 51.4249 110.663ZM70.7249 30.3625C70.7874 30.0625 69.9499 29.8 69.3374 29.875C67.9874 30.05 67.4249 31.125 67.7124 31.3125C68.7656 31.1799 69.7862 30.858 70.7249 30.3625ZM73.7499 35C74.1044 35.135 74.4882 35.1738 74.8624 35.1125C75.0293 35.0806 75.1898 35.0215 75.3374 34.9375C75.4878 34.8684 75.613 34.7543 75.6959 34.611C75.7787 34.4678 75.8151 34.3023 75.7999 34.1375C75.7999 32.9875 74.1999 30.45 73.7749 30.725C73.6249 30.8125 73.6624 30.875 73.8999 31.6625C74.0522 32.2011 74.2444 32.7275 74.4749 33.2375C74.6071 33.5356 74.7117 33.8453 74.7874 34.1625C74.528 34.4022 74.2003 34.5551 73.8499 34.6C73.8237 34.5934 73.7964 34.5921 73.7696 34.5961C73.7428 34.6001 73.7171 34.6093 73.6939 34.6232C73.6707 34.6372 73.6504 34.6555 73.6343 34.6773C73.6182 34.699 73.6065 34.7237 73.5999 34.75C73.5934 34.7763 73.592 34.8036 73.596 34.8303C73.6 34.8571 73.6092 34.8829 73.6232 34.9061C73.6371 34.9293 73.6554 34.9495 73.6772 34.9656C73.699 34.9818 73.7237 34.9934 73.7499 35ZM73.3249 39.825C73.4085 40.0162 73.533 40.1867 73.6897 40.3245C73.8464 40.4623 74.0314 40.564 74.2317 40.6224C74.432 40.6808 74.6427 40.6945 74.8489 40.6626C75.055 40.6306 75.2517 40.5538 75.4249 40.4375C75.4725 40.418 75.5113 40.3819 75.5343 40.336C75.5573 40.29 75.5628 40.2372 75.5499 40.1875C75.4499 39.9 75.1999 40.2625 74.5624 39.9C74.4304 39.8198 74.3203 39.7083 74.2417 39.5752C74.1632 39.4422 74.1188 39.2918 74.1124 39.1375C74.1196 38.9757 74.1612 38.8173 74.2345 38.6728C74.3078 38.5284 74.4111 38.4013 74.5374 38.3C74.651 38.2398 74.7776 38.2083 74.9062 38.2083C75.0347 38.2083 75.1613 38.2398 75.2749 38.3C75.4749 38.4625 75.6999 38.15 75.4999 38C74.2999 36.6125 72.6124 38.375 73.3249 39.825ZM76.2499 93.325C75.9566 93.3304 75.6692 93.4084 75.4134 93.5521C75.1575 93.6957 74.9413 93.9005 74.7841 94.1482C74.6268 94.3959 74.5334 94.6787 74.5121 94.9713C74.4909 95.2639 74.5425 95.5572 74.6624 95.825C75.4874 97.4875 78.3249 96.875 78.2749 95.075C78.2643 94.8245 78.2026 94.5789 78.0935 94.3531C77.9844 94.1274 77.8302 93.9264 77.6406 93.7625C77.4509 93.5985 77.2296 93.4752 76.9905 93.3999C76.7513 93.3247 76.4993 93.2992 76.2499 93.325ZM77.3374 95.4625C77.3227 95.5848 77.2839 95.703 77.2235 95.8103C77.163 95.9176 77.082 96.012 76.9851 96.0881C76.8882 96.1641 76.7773 96.2203 76.6586 96.2534C76.54 96.2866 76.416 96.296 76.2937 96.2813C76.1714 96.2665 76.0532 96.2278 75.9459 96.1673C75.8385 96.1069 75.7442 96.0259 75.6681 95.9289C75.5921 95.832 75.5359 95.7211 75.5028 95.6024C75.4696 95.4838 75.4602 95.3598 75.4749 95.2375C75.4749 95.1232 75.4976 95.01 75.5418 94.9045C75.5859 94.7991 75.6505 94.7034 75.732 94.6232C75.8134 94.5429 75.9099 94.4796 76.016 94.437C76.1221 94.3944 76.2356 94.3733 76.3499 94.375C76.4939 94.3595 76.6394 94.3775 76.7752 94.4277C76.911 94.4778 77.0333 94.5587 77.1326 94.6641C77.2319 94.7694 77.3055 94.8963 77.3475 95.0349C77.3895 95.1734 77.3989 95.3198 77.3749 95.4625H77.3374ZM75.9124 101.8C75.6179 101.802 75.3286 101.878 75.071 102.021C74.8134 102.164 74.5957 102.369 74.4378 102.618C74.2799 102.866 74.1869 103.151 74.1671 103.444C74.1474 103.738 74.2017 104.032 74.3249 104.3C75.1374 105.938 77.9874 105.363 77.9374 103.55C77.9251 103.3 77.8621 103.055 77.7525 102.83C77.6428 102.606 77.4886 102.405 77.2993 102.242C77.11 102.078 76.8895 101.955 76.6512 101.879C76.4128 101.803 76.1615 101.776 75.9124 101.8ZM76.9999 103.938C77.0038 104.072 76.9789 104.207 76.9268 104.331C76.8747 104.456 76.7966 104.568 76.6978 104.66C76.599 104.752 76.4817 104.822 76.3538 104.865C76.2258 104.908 76.0902 104.924 75.9558 104.91C75.8214 104.897 75.6915 104.855 75.5746 104.787C75.4577 104.72 75.3566 104.628 75.278 104.518C75.1994 104.408 75.145 104.283 75.1186 104.15C75.0923 104.018 75.0944 103.882 75.1249 103.75C75.1282 103.52 75.2219 103.301 75.3856 103.139C75.5493 102.978 75.77 102.887 75.9999 102.888C76.1377 102.879 76.2756 102.902 76.4039 102.952C76.5323 103.003 76.6481 103.081 76.7433 103.181C76.8385 103.281 76.9107 103.4 76.9551 103.531C76.9994 103.662 77.0147 103.8 76.9999 103.938ZM70.6624 32.05C70.6624 32.25 70.7374 32.45 70.8124 32.875C70.826 32.9564 70.8556 33.0343 70.8995 33.1043C70.9434 33.1742 71.0007 33.2347 71.0681 33.2824C71.1355 33.33 71.2117 33.3638 71.2923 33.3819C71.3728 33.3999 71.4561 33.4018 71.5374 33.3875C71.6993 33.3599 71.8439 33.2697 71.9398 33.1364C72.0357 33.003 72.0753 32.8373 72.0499 32.675C72.0499 32.45 71.9374 32.1375 71.9124 31.9125C71.8942 31.7467 71.8109 31.595 71.6808 31.4907C71.5507 31.3864 71.3844 31.338 71.2187 31.3563C71.0529 31.3745 70.9012 31.4578 70.7969 31.5879C70.6926 31.718 70.6442 31.8842 70.6624 32.05ZM76.0624 31.8875C76.0836 32.0344 76.1574 32.1685 76.27 32.2651C76.3827 32.3616 76.5266 32.414 76.6749 32.4125C76.7655 32.4116 76.8548 32.3914 76.937 32.3532C77.0191 32.3151 77.0922 32.2599 77.1513 32.1913C77.2105 32.1227 77.2543 32.0423 77.2799 31.9554C77.3055 31.8685 77.3124 31.7772 77.2999 31.6875C77.1999 31.1375 77.1749 31.075 77.1499 30.925C77.13 30.7592 77.0451 30.6082 76.9138 30.505C76.7826 30.4019 76.6157 30.3551 76.4499 30.375C76.2842 30.3949 76.1331 30.4798 76.03 30.6111C75.9268 30.7424 75.88 30.9092 75.8999 31.075C75.9374 31.25 75.9874 31.45 76.0624 31.8875ZM94.6999 112.275C94.8499 112.425 95.0874 112.2 94.9374 112.05C91.9124 108.413 91.1874 104.738 91.7249 100.138C91.7318 100.113 91.733 100.088 91.7284 100.063C91.7238 100.038 91.7136 100.015 91.6984 99.995C91.6833 99.9749 91.6637 99.9586 91.6411 99.9474C91.6186 99.9362 91.5938 99.9304 91.5687 99.9304C91.5435 99.9304 91.5187 99.9362 91.4962 99.9474C91.4737 99.9586 91.4541 99.9749 91.4389 99.995C91.4238 100.015 91.4135 100.038 91.4089 100.063C91.4043 100.088 91.4055 100.113 91.4124 100.138C90.1374 104.775 91.0249 108.95 94.6999 112.275Z" fill="black"/>
<path d="M120.25 98.7499C120.086 98.7323 119.922 98.7803 119.793 98.8833C119.664 98.9863 119.581 99.1361 119.562 99.2999V100.125C119.562 100.291 119.628 100.45 119.746 100.567C119.863 100.684 120.022 100.75 120.187 100.75C120.353 100.75 120.512 100.684 120.629 100.567C120.747 100.45 120.812 100.291 120.812 100.125V99.4624C120.825 99.3783 120.82 99.2926 120.798 99.2106C120.776 99.1285 120.737 99.0518 120.685 98.9851C120.632 98.9184 120.566 98.8632 120.491 98.8227C120.417 98.7823 120.335 98.7575 120.25 98.7499ZM127.087 100.837C127.168 100.848 127.25 100.842 127.328 100.821C127.406 100.799 127.48 100.763 127.544 100.713C127.608 100.663 127.661 100.6 127.701 100.529C127.74 100.459 127.766 100.381 127.775 100.3V99.4874C127.775 99.3216 127.709 99.1627 127.592 99.0455C127.475 98.9283 127.316 98.8624 127.15 98.8624C126.985 98.8656 126.828 98.9325 126.712 99.049C126.595 99.1655 126.528 99.3226 126.525 99.4874V100.15C126.516 100.232 126.524 100.315 126.548 100.394C126.571 100.473 126.611 100.547 126.663 100.611C126.715 100.675 126.78 100.728 126.852 100.767C126.925 100.806 127.005 100.83 127.087 100.837ZM121.887 105.112C122.91 105.437 123.997 105.501 125.05 105.3C125.175 105.3 125.162 105.1 125.05 105.112L124.262 105C123.485 104.935 122.703 104.935 121.925 105C121.8 104.9 121.762 105.1 121.887 105.112Z" fill="black"/>
</svg>
