<svg width="150" height="150" viewBox="0 0 150 150" fill="none" xmlns="http://www.w3.org/2000/svg">
<path fill-rule="evenodd" clip-rule="evenodd" d="M11.0881 112.694C9.10108 113.726 7.05522 114.93 4.89913 116.368C3.75463 117.131 3.75013 118.277 3.78088 118.4C3.94213 119.285 4.90738 119.848 5.55088 120.169C9.50278 122.022 11.2564 122.392 18.8596 123.996V123.997C20.2257 124.285 21.7807 124.612 23.5711 124.996C29.6049 126.364 65.8051 134.086 77.8719 136.5C80.0484 136.935 82.2286 137.378 84.4126 137.822C94.3359 139.839 104.333 141.871 114.395 143.257C114.677 143.296 114.962 143.346 115.241 143.394C116.234 143.566 117.127 143.721 117.424 143.315C126.253 139.615 134.44 134.074 141.666 127.893C141.956 127.639 142.265 127.393 142.575 127.147C143.642 126.298 144.735 125.43 145.205 124.111C145.406 123.552 145.977 121.427 145.431 121.282H145.43C142.631 120.532 139.585 119.786 136.351 119.048L136.294 119.799C139.218 120.469 141.996 121.149 144.588 121.834C132.602 133.117 121.615 138.076 117.876 139.763C117.099 140.114 116.635 140.324 116.54 140.419C84.9391 135.166 53.153 128.22 22.4019 121.499L22.1836 121.452C21.22 121.241 20.3098 121.046 19.4393 120.859H19.4365C14.2623 119.75 10.4969 118.944 5.33338 116.979C7.58751 115.477 9.71931 114.234 11.7903 113.176C11.5195 113.032 11.2783 112.872 11.0881 112.694ZM41.6424 104.515C42.6848 104.643 44.0305 104.809 45.6402 105.013C45.6101 104.755 45.5802 104.497 45.5503 104.239C43.9454 104.039 42.6041 103.876 41.5658 103.753C41.5909 104.008 41.6164 104.261 41.6424 104.515ZM81.3226 109.171C81.3136 109.423 81.3039 109.673 81.2934 109.919C84.0091 110.325 86.7826 110.748 89.5899 111.186C89.5801 110.935 89.5711 110.684 89.5614 110.433C86.7751 109.997 84.0211 109.576 81.3226 109.171Z" fill="black"/>
<path fill-rule="evenodd" clip-rule="evenodd" d="M40.3132 44.5441C41.7841 69.0226 44.0716 93.4543 47.2064 117.778C46.1526 118.378 45.1434 118.957 44.259 119.531C44.214 119.719 44.0377 119.881 43.8442 119.881C33.1154 119.269 22.5891 116.584 15.7337 114.835C15.0806 114.669 14.4608 114.511 13.8773 114.364C10.5056 113.515 10.3505 112.699 10.1107 111.436C10.0969 111.364 10.0829 111.29 10.068 111.214C9.56573 108.68 9.16673 105.772 8.73833 102.65C8.55893 101.343 8.37443 99.9981 8.175 98.6271C5.08275 78.4258 3.68175 54.3976 3.90075 51.2161C3.6255 51.0984 3.76575 50.8089 3.91875 50.7947C6.5404 49.8044 9.25403 49.0109 11.8775 48.2438L11.8875 48.2409C14.7017 47.4178 16.9012 46.743 18.6837 46.1962C24.2959 44.4745 25.7743 44.021 29.2875 44.1969C29.2875 44.1969 34.6 44.3635 40.3132 44.5441ZM14.8319 113.713C14.9452 113.743 15.0566 113.774 15.1671 113.804C16.2911 114.112 17.3246 114.396 19.2915 114.888C19.284 114.813 14.8222 59.6311 14.7773 55.4311C12.753 55.2076 10.911 54.9639 9.14175 54.6856C9.66728 58.7731 14.8131 113.512 14.8319 113.713ZM15.2902 55.4866C15.4718 56.8584 19.8593 111.221 20.0408 115.069V115.07C22.0568 115.565 24.0765 116.027 26.1 116.444C26.0925 116.367 21.4807 60.6879 21.4515 56.0476C19.3418 55.8841 17.394 55.7124 15.2902 55.4866ZM22.3549 60.057C22.3876 60.8177 22.42 61.5742 22.4752 62.3221H22.476L26.9145 116.603C28.773 116.977 30.633 117.322 32.4922 117.629C32.3993 116.709 27.7065 59.8149 27.672 56.4631C25.7663 56.3551 23.8958 56.2314 22.065 56.0926C22.2413 57.4117 22.2984 58.7407 22.3549 60.057ZM28.2412 56.4939C28.3965 57.5911 33.0105 113.032 33.228 117.748C35.3175 118.083 37.4062 118.377 39.4912 118.627C38.5065 114.851 37.8652 110.776 37.5367 106.18C37.1716 102.002 36.1785 91.5493 35.1913 81.1573C34.2217 70.9523 33.2577 60.8057 32.8995 56.7181C31.329 56.6551 29.778 56.5779 28.2412 56.4939ZM38.484 107.368C38.8057 111.385 39.4432 115.198 40.3635 118.728C41.3407 118.84 42.3172 118.948 43.2922 119.041C40.5413 105.199 40.0421 90.8188 39.552 76.7023C39.2713 68.6158 38.9935 60.6157 38.2972 52.8526C33.8541 52.6628 30.0145 52.5118 26.5179 52.3742C18.4763 52.0578 12.2486 51.8128 4.665 51.3324C4.78575 52.2429 4.8585 53.2036 4.8585 54.2049C4.89825 54.7621 5.421 64.2526 5.421 64.2526C6.42753 80.6983 8.04315 91.9213 10.229 107.104C10.4096 108.359 10.5943 109.642 10.7828 110.956C11.033 112.699 11.8637 112.918 14.015 113.488L14.0228 113.489C8.9226 58.5256 8.39003 54.2558 8.76465 54.1747C8.81678 54.1634 8.88653 54.2333 8.964 54.2589C10.4159 54.3725 12.0979 54.5367 13.9779 54.7202C19.1463 55.2248 25.8112 55.8755 33.306 56.0229C33.4515 56.0229 33.6577 56.1579 33.6577 56.3769C34.101 60.6564 38.484 107.368 38.484 107.368Z" fill="black"/>
<path d="M23.0873 40.3359C22.6065 40.3359 22.653 40.432 22.653 46.1605C22.653 46.6308 23.5215 46.8993 23.5215 46.1605C23.5215 40.468 23.568 40.3359 23.0873 40.3359Z" fill="black"/>
<path d="M26.739 46.6425C26.739 46.0357 26.5785 46.638 26.5785 36.426C26.5785 36.0375 25.9575 36.0345 25.9515 36.4207C25.455 42.6435 25.8713 46.461 25.8713 46.884C25.8713 49.0012 27.1335 48.9525 26.7398 46.6425H26.739Z" fill="black"/>
<path d="M85.7063 19.528C85.1543 6.91824 85.212 7.25649 85.0493 6.73074C84.777 5.84349 84.3233 6.35424 84.2355 7.04949C84.1095 8.06052 84.4515 9.07752 84.6773 19.4523C84.6915 20.0965 84.6773 20.7625 84.93 21.3528C85.1063 21.7053 85.6028 21.6198 85.6253 21.3205C85.77 20.806 85.7985 20.1663 85.7063 19.528Z" fill="black"/>
<path d="M89.085 12.9362C89.085 12.3917 88.2968 12.3917 88.2968 12.9362C88.2968 15.5852 88.5405 18.2905 88.6995 20.9005C88.6995 21.5507 89.7525 21.5102 89.6483 20.8937C89.4923 18.3257 89.4075 15.5882 89.085 12.937V12.9362Z" fill="black"/>
<path fill-rule="evenodd" clip-rule="evenodd" d="M106.619 19.4137C106.642 19.2292 106.536 19.0012 106.279 18.9382C91.6522 17.5147 77.7682 16.9267 72.0877 16.9267C67.5874 16.5947 65.0154 17.4898 62.3949 18.4017C62.2265 18.4603 62.0578 18.519 61.8885 18.5774C57.6187 20.0488 52.4756 21.4381 47.354 22.8215C44.628 23.5578 41.9081 24.2926 39.3293 25.0372C39.1545 25.0874 39.036 25.2487 39.039 25.4302C39.2272 36.2399 41.244 69.4851 45.1455 103.521C46.6655 116.782 47.312 120.017 47.4667 120.792C47.5032 120.974 47.5124 121.02 47.499 121.028C47.4947 121.03 47.4877 121.029 47.4786 121.026C47.4739 121.026 47.4688 121.024 47.463 121.023C47.229 121.023 47.0175 121.374 47.4338 121.486C50.4884 122.309 53.6593 122.88 56.726 123.432C57.1846 123.515 60.8888 124.237 65.2235 125.082H65.2247L65.226 125.083C71.5549 126.317 79.227 127.813 80.1045 127.963C80.148 127.971 80.184 127.977 80.2155 127.983C80.295 127.998 80.3415 128.007 80.3872 128.004C80.451 127.998 80.5133 127.968 80.6618 127.896C80.7052 127.875 80.7555 127.851 80.8162 127.822C81.5265 127.487 82.2615 127.147 83.0212 126.795C85.2045 125.786 87.5933 124.682 90.174 123.318C89.916 118.714 89.6722 113.826 89.5087 108.922C86.0182 116.865 82.9485 123.852 82.2067 125.533C82.0027 126.151 81.1372 125.669 81.3555 125.124C81.8235 124.033 85.404 115.887 89.4405 106.712C89.2102 98.5406 89.229 90.4399 89.7983 83.6546C89.7983 83.6546 97.5165 81.6619 100.871 80.7401C100.951 80.5571 101.027 80.3854 101.098 80.2249C101.482 79.6084 101.581 78.8276 101.335 78.1339C101.043 77.3081 98.703 73.394 98.3887 72.8795L98.2657 72.6777C94.6252 66.7108 90.624 60.1528 84.5392 52.1825C84.4372 52.0843 84.42 51.857 84.5378 51.725C85.9042 49.394 99.738 27.1558 100.381 26.15C101.657 24.1558 102.917 22.4165 104.417 20.417C104.474 20.342 104.683 20.2955 104.773 20.3885L104.773 20.3893C104.94 20.5615 104.688 20.9491 103.11 23.3782C100.845 26.8643 95.8485 34.5553 85.4355 51.8488C92.226 60.7835 98.4502 70.7487 100.495 74.5835C100.84 75.2321 101.151 75.7624 101.416 76.2169C102.423 77.9366 102.796 78.5734 102.05 80.4064C102.574 80.2489 103.152 80.0501 103.754 79.8356C103.957 77.2241 104.167 74.6044 104.379 71.9772C105.214 61.6003 106.057 51.1068 106.462 40.5329C106.872 28.7662 106.705 23.2231 106.633 20.8513C106.609 20.0461 106.595 19.6072 106.619 19.4137ZM77.2297 126.435C76.2682 126.243 51.6578 121.705 50.103 121.439C49.911 119.476 49.6853 117.381 49.4535 115.308C50.0574 115.392 51.1609 115.471 52.5478 115.571C54.6784 115.724 57.4776 115.926 60.1605 116.261C66.1642 116.886 73.5037 118.097 74.949 118.431C75.8115 118.629 76.7902 118.839 77.7465 118.947C77.7083 119.847 77.598 121.291 77.4862 122.753C77.3835 124.105 77.2792 125.472 77.2297 126.435ZM71.3705 117.053H71.3693C68.9235 116.654 64.2495 115.893 55.3582 115.152C53.5612 114.952 51.5992 114.852 49.4002 114.836C49.2591 113.581 48.8774 110.268 48.6281 108.103C48.5345 107.29 48.4595 106.638 48.423 106.32C49.5821 106.497 50.6419 106.562 52.112 106.65C55.7368 106.869 61.8567 107.239 78.1118 109.824C78.0135 112.626 77.8957 115.427 77.7787 118.167C76.2562 117.797 74.55 117.532 72.5797 117.245C72.2542 117.198 71.8563 117.132 71.3705 117.053ZM47.6415 38.7412C58.2745 39.0219 67.6086 39.8604 73.1413 40.3575C75.5602 40.5748 77.2523 40.7268 78.009 40.7384C78.0218 41.1179 78.2932 50.2852 78.3172 51.4237C72.9217 50.6774 49.4288 49.2689 43.2825 49.4174C43.1766 47.8299 43.1093 46.8945 43.0533 46.1165C42.9345 44.4646 42.8666 43.5218 42.5888 38.5522C42.5882 38.5413 42.5861 38.5321 42.5845 38.5245C42.5823 38.5147 42.5807 38.5074 42.5834 38.5023C42.5911 38.4875 42.635 38.4916 42.807 38.5078C43.2246 38.5472 44.3982 38.6577 47.6415 38.7412ZM42.5573 37.9994C42.3135 33.5249 42.0023 29.3969 41.8815 28.0552C42.8051 28.1299 42.989 28.1342 44.4022 28.167C45.9211 28.2022 48.8602 28.2705 55.6643 28.4947C61.6492 28.6915 69.3169 29.2444 74.0918 29.5888C75.7042 29.7052 76.9875 29.7977 77.7637 29.8447C77.7742 33.2249 77.8725 36.6307 77.9835 39.9712C72.9675 39.3014 48.8303 37.8239 42.5573 37.9994ZM70.6237 51.5017C72.7812 51.6367 74.1335 51.7924 75.2138 51.9169C76.3478 52.0475 77.1825 52.1436 78.3337 52.1452C78.4042 55.6297 78.4582 59.1307 78.5047 62.5979C75.6682 62.2094 51.2145 60.5114 44.0918 60.6809C43.8218 57.1147 43.5593 53.5154 43.3178 49.9312C44.6089 50.0482 46.3551 50.1089 48.702 50.1905C53.3173 50.351 60.2551 50.5923 70.6237 51.5017ZM48.825 61.4272C59.0418 61.6926 74.5437 62.9902 77.8755 63.2691C78.252 63.3006 78.4732 63.3191 78.5137 63.3217C78.5302 64.5546 78.609 72.0816 78.6157 74.5604C72.9615 73.8051 51.3765 72.3412 45.0728 72.5084C44.8875 70.4294 44.2583 62.8912 44.1285 61.1887C45.699 61.3386 47.286 61.3859 48.825 61.4272ZM75.7245 75.0738C77.3018 75.2178 78.33 75.3124 78.6187 75.3191C78.6255 78.8561 78.6097 82.4059 78.5692 85.9444C77.3167 85.7539 76.0125 85.6459 74.7487 85.5416L74.7285 85.5394C73.2084 85.4149 72.5157 85.3421 71.9371 85.2813C71.0842 85.1921 70.4794 85.1283 67.8375 84.9618L67.7512 84.9559C66.4893 84.8651 51.8092 83.8129 46.0898 83.9224L45.126 73.0904C46.6395 73.2419 48.156 73.2892 49.626 73.3312L49.6253 73.3319C59.8225 73.621 70.6346 74.609 75.7245 75.0738ZM50.1855 84.7549C57.9868 84.9761 67.2061 85.7764 73.0828 86.2863C75.7366 86.5173 77.709 86.6884 78.561 86.7199C78.5205 90.0266 78.4755 93.5741 78.4162 97.1763C73.314 96.4181 52.629 95.0486 47.1908 95.1911C46.8368 91.8724 46.1655 84.7871 46.1453 84.5554C47.505 84.6731 48.864 84.7174 50.1855 84.7549ZM51.3503 96.0169C57.9128 96.2111 69.1345 97.1493 74.8579 97.6278C76.8405 97.7936 78.1635 97.9039 78.4043 97.9091C78.36 100.503 78.1777 107.945 78.1395 109.077C75.4972 108.481 57.165 105.921 48.3758 105.903C48.297 105.211 47.5448 98.4821 47.2568 95.7986C48.5977 95.9314 49.9928 95.9771 51.3503 96.0169ZM78.0937 126.609C78.7957 126.754 79.4857 126.9 80.1712 127.056C80.1712 125.948 80.277 123.369 80.4233 119.79C80.7555 111.683 81.297 98.4491 81.297 85.5783C81.297 76.4943 80.5373 45.7659 80.2253 33.1483V33.1465C80.145 29.9026 80.0947 27.8562 80.094 27.6832C76.8465 27.5058 75.1208 27.3469 73.3501 27.184C70.2311 26.8969 66.9743 26.5972 55.0185 26.1614C45.8662 25.8277 42.9676 25.8049 41.5163 25.7935C40.6844 25.7869 40.3282 25.7841 39.5423 25.7287C39.8382 29.4348 40.0765 33.3451 40.3545 37.9069C40.9811 48.1887 41.8093 61.7794 43.9538 83.7979C45.0893 94.8799 46.1675 103.855 46.9695 110.532C47.5325 115.22 47.9595 118.774 48.1748 121.129C48.5963 121.191 49.0177 121.26 49.4392 121.329C49.4023 121.055 49.3455 120.667 49.2701 120.153C48.7288 116.458 47.2289 106.221 45.2303 84.4549C45.0398 84.3716 45.0728 84.0416 45.1853 83.9674C43.8233 69.0172 41.7068 43.3282 41.4803 28.0237C41.4698 27.7357 41.6145 27.6097 41.7533 27.6022C46.5061 27.3355 49.4714 27.4687 61.7258 28.019L63.717 28.1084C68.3865 28.3177 73.212 28.5832 78.0427 29.0744C78.3217 29.1427 78.4785 29.4644 78.3225 29.7052C78.3397 30.1981 78.381 30.6442 78.4215 31.0877C78.4365 31.2542 78.4515 31.4203 78.4657 31.5884C79.785 47.5087 79.8075 94.1479 79.107 108.153C78.906 112.178 78.8025 115.052 78.72 117.327C78.5782 121.266 78.501 123.407 78.0937 126.609ZM80.403 26.8814C64.248 25.4632 44.5747 25.0214 41.1997 25.1557C55.0108 21.715 59.9161 20.0209 62.6882 19.0635C64.4432 18.4573 65.3433 18.1465 67.107 17.8747C68.3617 17.6954 69.5167 17.6414 70.5502 17.7149C75.8482 17.7149 90.414 18.2797 104.512 19.5659C96.5287 21.1282 87.6915 23.7374 80.403 26.8814Z" fill="black"/>
<path fill-rule="evenodd" clip-rule="evenodd" d="M111.928 77.6298C109.103 77.5938 107.694 78.0865 105.31 78.9205C103.842 79.4335 102.005 80.0763 99.24 80.8045C98.1938 81.0918 97.1017 81.3715 95.9872 81.6565C93.8797 82.1958 91.6957 82.7545 89.6055 83.425C89.5042 83.4573 89.4337 83.5495 89.4277 83.656C88.9575 93.1263 88.6237 101.622 89.3422 117.199C89.4495 119.663 89.8253 126.29 90.2033 128.841C90.0938 128.875 89.94 128.993 89.9265 129.138C89.91 129.31 90.0682 129.43 90.3975 129.494C91.056 129.621 94.8375 130.362 99.432 131.263C107.222 132.79 117.348 134.775 118.554 135.003C118.761 135.042 118.942 134.953 119.031 134.772C121.833 133.584 124.977 132.126 127.638 130.647C130.913 128.924 133.153 127.701 136.112 125.478C136.405 125.185 136.55 122.685 136.691 120.239C136.748 119.266 136.804 118.302 136.868 117.489C137.695 107.043 137.885 102.081 137.983 98.335C138.047 98.245 138.037 98.1865 137.989 98.104C138.148 91.8258 138.059 88.477 137.946 84.1968C137.911 82.8498 137.873 81.4105 137.839 79.7583L137.84 79.759C138.008 79.534 137.885 79.1883 137.573 79.1118C130.849 78.4563 124.813 78.115 120.361 77.9253C120.391 78.1698 120.421 78.4143 120.452 78.6588C125.243 78.8785 129.325 79.1838 134.602 79.6428C129.86 80.6538 122.624 82.8153 118.7 84.7165C110.656 83.905 94.1768 83.3568 91.3913 83.5225C99.4035 81.5943 102.151 80.7003 105.904 79.4793C106.059 79.429 106.215 79.378 106.374 79.3263H106.373L106.396 79.3188C108.082 78.7705 109.5 78.31 111.98 78.3715C111.996 78.3715 112.012 78.3723 112.027 78.3723C111.992 78.1248 111.959 77.8773 111.928 77.6298ZM136.343 91.8153C136.959 91.3735 137.007 91.3398 137.178 91.2768H137.179C137.168 89.749 137.15 88.2243 137.123 86.6988C136.787 86.8878 136.486 87.037 135.955 87.2515C135.762 87.328 135.722 87.3475 135.682 87.3678C135.64 87.388 135.598 87.409 135.403 87.4878C135.392 91.7155 135.149 92.5383 135.229 92.5713C135.25 92.5795 135.292 92.5368 135.364 92.4858L135.393 92.4655C135.584 92.332 135.78 92.1955 135.975 92.0785C136.117 91.9773 136.238 91.8903 136.343 91.8153ZM136.537 86.3275C136.719 86.2263 136.903 86.1243 137.11 86.041C137.089 84.8973 137.065 83.761 137.039 82.6248C136.75 82.747 136.236 82.9443 135.289 83.2848C135.36 84.4623 135.396 85.6773 135.403 86.914C135.584 86.7963 135.776 86.6868 135.992 86.6005C136.184 86.5233 136.36 86.4258 136.537 86.3275ZM137.025 82.039L136.979 80.0718C136.347 80.1873 135.703 80.314 135.046 80.4528C135.128 81.1938 135.194 81.958 135.248 82.7365C135.418 82.6638 135.574 82.5963 135.721 82.5325C136.297 82.282 136.704 82.1058 137.025 82.039ZM126.17 120.699C127.043 120.207 127.045 120.205 127.563 119.96V119.959C132.632 108.939 135.043 97.075 134.713 84.4788C133.684 84.853 122.874 88.1793 122.874 88.1793C122.764 88.222 120.405 89.1318 119.372 89.4183C119.421 90.4233 119.492 92.4933 119.492 92.4933C119.953 98.0193 120.39 110.766 119.734 122.268C119.671 122.999 119.621 123.714 119.578 124.439C120.075 124.116 120.586 123.813 121.096 123.531C124.021 121.911 125.418 121.123 126.17 120.699ZM119.063 85.408C119.195 86.5443 119.281 87.694 119.345 88.8423V88.8415C120.286 88.4778 133.913 83.9958 134.698 83.806C134.665 82.7298 134.625 81.646 134.578 80.5525C127.199 82.1478 122.86 83.9005 120.525 84.844C119.901 85.096 119.42 85.2903 119.063 85.408ZM96.021 129.869C96.4665 129.948 96.9 130.025 97.0635 130.054V125.202L94.8877 124.913V129.667C95.088 129.703 95.5605 129.787 96.021 129.869ZM97.8135 130.191L99.9892 130.585V125.591L97.8135 125.302V130.191ZM103.762 126.679C103.861 127.833 104.003 129.88 103.903 131.3H103.903C112.03 132.789 113.22 133.001 114.407 133.231C114.71 133.29 115.013 133.35 115.433 133.434C115.15 131.702 115.212 129.099 115.329 128.515C115.333 128.495 115.34 128.481 115.348 128.464C115.372 128.417 115.406 128.35 115.407 128.075C115.352 127.938 115.212 127.926 115.036 127.926C110.993 127.371 109.704 127.249 107.282 127.02C106.349 126.933 105.25 126.829 103.762 126.679ZM116.296 133.608C116.963 133.745 117.632 133.885 118.297 134.038L118.299 134.04C118.227 131.262 118.349 129.489 118.483 127.544C118.529 126.887 118.576 126.21 118.617 125.467C118.542 125.458 97.5465 122.649 94.3065 121.934C94.1047 122.164 93.6877 122.055 93.6877 121.701C93.6727 121.233 93.6352 120.359 93.585 119.194C93.3997 114.921 93.0442 106.729 93.0442 100.222C93.0442 93.8748 93.0758 92.8735 93.099 92.128C93.1133 91.6848 93.1245 91.3323 93.1245 90.0048C93.051 89.0605 93.1065 87.9415 93.285 86.7768C93.2902 86.686 93.3532 86.6388 93.4155 86.6388C93.4237 86.6388 93.432 86.6433 93.4395 86.6485C93.444 86.6515 93.4485 86.6538 93.453 86.656C93.621 86.4558 97.2675 86.8038 97.8525 86.86C97.8802 86.863 97.9012 86.8645 97.9147 86.866C101.761 87.2283 105.714 87.583 109.123 87.8898C114.287 88.3533 118.205 88.705 118.624 88.8018C118.534 87.4735 118.433 86.1805 118.38 85.5145C101.553 84.2755 97.5007 84.253 94.7805 84.2373C93.3592 84.2298 92.3025 84.2238 89.9782 84.0475C90.0727 86.3373 90.0405 88.6855 90.006 90.9595C89.739 109.065 90.255 116.79 90.5977 121.911C90.777 124.593 90.9082 126.561 90.855 128.932C91.6387 129.067 93.816 129.471 94.1377 129.531C94.1377 124.647 94.0957 124.364 94.2157 124.245C94.23 124.232 94.2465 124.22 94.2652 124.203C94.2825 124.188 94.296 124.174 94.311 124.163C94.455 124.053 94.7535 124.143 100.414 124.891C100.6 124.916 100.739 125.075 100.739 125.263V130.722L103.253 131.181C103.28 130.448 103.229 129.387 103.178 128.304C103.146 127.645 103.114 126.978 103.099 126.372C103.093 126.147 103.305 126.009 103.453 126.012C107.412 126.107 114.931 127.109 115.708 127.303C116.336 127.571 116.211 128.306 116.128 128.793C115.985 129.628 115.982 131.739 116.296 133.608ZM106.918 88.447C106.979 89.1783 107.989 120.411 107.989 120.411V120.411C108.133 121.34 108.142 122.326 108.03 123.279L113.225 123.939C113.075 122.613 113.073 121.347 113.073 120.011C113.073 116.117 113.014 112.008 112.958 108.022C112.852 100.485 112.751 93.391 113.062 89.0365L106.918 88.447ZM100.606 103.807C100.629 106.053 100.648 107.966 100.668 109.068C100.668 113.392 100.752 116.192 100.813 118.218C100.868 120.036 100.903 121.231 100.843 122.345C103.871 122.695 104.954 122.853 105.872 122.988C106.332 123.054 106.751 123.116 107.353 123.192C107.292 122.794 106.202 89.8345 106.262 88.384L100.286 87.808C100.455 89.314 100.543 97.7628 100.606 103.807ZM93.5407 87.0723C94.62 87.2823 95.4615 87.3595 97.5225 87.5485C98.169 87.6078 98.9355 87.6775 99.8677 87.7668C99.8115 88.5588 99.813 88.7043 99.8437 91.345C99.8827 94.633 99.9667 101.79 100.041 118.884C100.041 118.929 100.041 118.975 100.042 119.021C100.044 119.631 100.047 120.303 100.121 120.895C100.121 121.372 100.132 121.809 100.165 122.26C100.025 122.241 99.705 122.202 99.3262 122.154C98.643 122.07 97.7707 121.962 97.4355 121.91C96.4372 121.756 95.4075 121.601 94.3882 121.59C93.7687 109.973 93.723 100.485 93.6938 94.312C93.6758 90.646 93.6637 88.1493 93.5407 87.0723ZM117.878 124.565C118.132 124.565 118.399 124.588 118.663 124.63H118.664C119.388 112.446 119.296 109.308 119.015 99.6243C118.993 98.8735 118.97 98.0838 118.946 97.2475C118.946 95.0088 118.784 91.3173 118.669 89.5075C118.254 89.5405 118.252 89.5405 117.706 89.4783C117.166 89.416 116.093 89.2938 113.565 89.083C113.64 89.875 113.638 93.3085 113.636 97.507C113.635 101.587 113.633 106.39 113.7 110.194C113.7 118.149 113.857 120.576 113.939 121.843C113.993 122.663 114.014 122.997 113.941 124.029C115.485 124.225 115.898 124.275 116.311 124.332C116.641 124.379 116.97 124.43 117.878 124.565ZM118.907 134.076C119.096 133.962 119.24 133.881 119.386 133.806H119.387C119.72 133.316 120.069 132.82 120.437 132.298C122.157 129.858 124.286 126.837 127.036 121.107C126.725 121.281 121.525 124.051 121.525 124.051C121.307 124.172 121.074 124.316 120.834 124.464C120.403 124.729 119.949 125.01 119.516 125.2C119.528 125.222 119.505 125.679 119.477 126.227C119.451 126.744 119.421 127.344 119.412 127.738C119.372 129.581 119.254 131.557 118.907 134.076ZM134.406 125.657C134.831 125.364 135.193 125.115 135.52 124.908L135.52 124.907C135.529 122.165 135.65 120.945 135.793 119.504C135.812 119.31 135.832 119.111 135.851 118.905C135.244 119.328 134.604 119.715 133.907 120.032C132.278 120.948 131.256 121.55 130.457 122.02C129.057 122.844 128.343 123.264 126.256 124.264C124.265 128.069 122.12 131.457 120.909 133.104C128.919 129.428 132.382 127.047 134.406 125.657ZM133.645 119.349C134.299 118.839 135.04 118.451 135.931 118.041V118.041C136.059 116.67 136.13 115.628 136.193 114.704C136.226 114.221 136.258 113.77 136.293 113.322C134.864 114.297 133.525 115.08 131.17 116.091C131.145 116.102 131.078 116.131 130.985 116.173C130.679 116.311 130.079 116.58 129.669 116.745C128.749 119.071 127.731 121.355 126.604 123.577C127.958 122.603 129.443 121.692 131.153 120.795L131.182 120.778C131.96 120.312 132.769 119.826 133.645 119.349ZM136.129 112.518C136.202 112.469 136.283 112.456 136.359 112.474V112.473C136.515 110.453 136.649 108.523 136.763 106.673L136.672 106.723C135.196 107.542 134.858 107.73 133.661 108.209C133.273 108.364 132.923 108.436 132.634 108.495C132.563 108.51 132.496 108.523 132.433 108.537C131.722 111.091 130.889 113.611 129.936 116.082C130.014 116.038 130.207 115.938 130.472 115.8C131.09 115.48 132.106 114.954 133 114.443C134.158 113.864 135.141 113.202 136.129 112.518ZM136.812 105.853C136.952 103.452 137.057 101.181 137.127 99.0108H137.128C137.129 98.9508 137.133 98.9283 137.126 98.9245C137.118 98.92 137.093 98.9463 137.026 98.9628C136.743 99.1053 136.498 99.2313 136.279 99.3438C135.463 99.763 135.01 99.997 134.298 100.2C133.854 102.821 133.283 105.426 132.585 107.997C132.859 107.847 133.121 107.716 133.417 107.598C133.836 107.43 134.068 107.338 134.295 107.233C134.718 107.037 135.121 106.794 136.69 105.922C136.727 105.887 136.769 105.867 136.812 105.853ZM136.691 98.3583C136.817 98.2375 136.974 98.1573 137.14 98.0958V98.0965C137.179 96.124 137.19 94.1373 137.182 92.1445C137.117 92.1835 136.334 92.674 136.334 92.674C135.892 92.896 135.521 93.115 135.163 93.3295C134.993 95.4198 134.739 97.5093 134.403 99.5883C135.027 99.1855 135.58 98.9103 136.312 98.5473C136.433 98.4865 136.559 98.4243 136.691 98.3583Z" fill="black"/>
<path d="M125.768 73.351C125.768 73.0915 125.589 72.9228 125.183 73.0338C123.57 73.195 119.804 72.844 117.765 72.8388C117.23 72.7645 113.169 73.6705 111.732 74.0583C111.68 74.053 111.629 74.0493 111.578 74.0433C111.356 74.0433 111.219 74.1753 111.224 74.4018C111.257 75.97 111.643 78.2418 112.12 80.1925C112.131 80.2398 112.172 80.275 112.222 80.278C112.793 80.3155 119.152 80.893 119.259 80.911C119.816 81.0055 120.6 81.1465 121.069 80.8315C121.151 80.749 120.974 80.8068 121.378 80.6965C124.965 79.7185 125.34 79.6173 125.896 79.0608C126.079 78.877 125.768 79.0608 125.768 73.3503L125.768 73.351ZM119.632 75.4398C119.668 75.787 119.71 76.1343 119.752 76.4823C120.133 79.5985 120.034 79.5573 120.26 80.2413C119.789 80.2285 119.765 80.2668 119.014 80.1145C118.743 80.0598 118.898 80.0853 116.651 79.8355C116.331 79.819 116.022 79.8055 115.708 79.7898C115.721 79.609 115.717 79.576 115.717 78.154C115.717 77.8818 115.543 77.6665 115.238 77.5645C114.815 77.4235 114.688 77.5255 114.259 77.44C113.498 77.2878 113.284 77.6283 113.481 78.1533C113.481 79.7043 113.468 79.5648 113.472 79.705C113.136 79.696 112.804 79.6818 112.461 79.6788C112.355 78.1015 112.07 76.5175 112.025 74.9448C114.575 75.2058 117.141 75.1788 119.631 75.439L119.632 75.4398ZM114.098 79.7215C114.116 79.4785 114.11 79.333 114.109 78.0175C114.213 78.0273 114.84 78.0903 114.93 78.0985V79.7523C114.655 79.7395 114.373 79.732 114.098 79.7223V79.7215Z" fill="black"/>
</svg>
